# https://github.com/mikedh/trimesh
v -0.16827011 0.39536306 0.24846846
v -0.16799310 0.39414585 0.22631137
v -0.19237062 0.39437407 0.22561289
v -0.19237062 0.39498270 0.24738194
v -0.19273998 0.39399368 0.26884055
v -0.16928583 0.39346114 0.27027631
v -0.14666276 0.39186355 0.27167326
v -0.14537001 0.39353722 0.24963257
v -0.12219288 0.39064631 0.22887243
v -0.16808543 0.39057025 0.20415428
v -0.12191587 0.38798365 0.20652133
v -0.14463130 0.38958123 0.20481396
v -0.19273998 0.39026594 0.20396027
v -0.21757920 0.39193961 0.22518605
v -0.21711750 0.39285254 0.24648945
v -0.19357103 0.38920087 0.28983352
v -0.17085561 0.38912478 0.29165733
v -0.21702518 0.39102671 0.26752123
v -0.21702518 0.38729894 0.28820375
v -0.14897123 0.38722289 0.29332590
v -0.12496306 0.38851619 0.27310899
v -0.12311628 0.39087453 0.25114593
v -0.10012383 0.38669035 0.23178273
v -0.09947746 0.38448411 0.20993608
v -0.16836245 0.38456020 0.18226883
v -0.14490831 0.38372335 0.18242404
v -0.09956980 0.37984344 0.18805063
v -0.12228522 0.38227791 0.18428662
v -0.19338635 0.38357121 0.18296729
v -0.21813324 0.38783148 0.20388265
v -0.24315715 0.38684249 0.22506964
v -0.24251077 0.38805971 0.24614021
v -0.19458675 0.38204968 0.31020564
v -0.17288707 0.38265827 0.31284431
v -0.24158737 0.38623387 0.26682276
v -0.21684049 0.38014776 0.30803260
v -0.24066399 0.38212574 0.28700083
v -0.23946358 0.37596354 0.30636403
v -0.15183374 0.38060421 0.31466809
v -0.00833874 0.35458604 0.33624312
v -0.02375938 0.36348701 0.31117573
v -0.01951178 0.36599752 0.29262742
v 0.00754359 0.36386737 0.25948879
v -0.07731607 0.37991953 0.21432093
v -0.07703905 0.37588748 0.19325036
v -0.17002456 0.37421378 0.16166389
v -0.14610872 0.37330088 0.16127585
v -0.12274692 0.37314871 0.16313845
v -0.05386193 0.36698651 0.17889288
v 0.06571724 0.31624347 0.09135103
v 0.04457158 0.32103631 0.09135103
v 0.02314890 0.32582912 0.09135103
v -0.09966214 0.37254012 0.16717407
v -0.19384804 0.37254012 0.16313845
v -0.21831791 0.37961522 0.18316132
v -0.24297246 0.38159323 0.20396027
v -0.26734999 0.37756115 0.22561289
v -0.26688829 0.37885445 0.24660586
v -0.26568788 0.37778938 0.26697797
v -0.19587950 0.37193149 0.32991806
v -0.17538022 0.37238795 0.33298358
v -0.15525030 0.37040997 0.33504018
v -0.26421046 0.37467024 0.28665161
v -0.21674815 0.37040997 0.32708538
v -0.23770913 0.36675829 0.32464072
v -0.26171732 0.36835590 0.30523872
v -0.25830075 0.36013964 0.32285574
v -0.00704599 0.34066403 0.37663808
v 0.00421938 0.34446788 0.36193138
v 0.01234522 0.34811953 0.34567249
v 0.01742388 0.35215160 0.32735699
v 0.02148680 0.35511857 0.30748934
v 0.02462633 0.35679227 0.28661278
v 0.04355585 0.35131475 0.29278263
v 0.04697239 0.35131475 0.27132401
v 0.05020426 0.35024968 0.25033104
v 0.02998200 0.35610756 0.24489848
v 0.00939037 0.36128077 0.23896147
v -0.03216223 0.36706260 0.20543481
v -0.00935447 0.35846594 0.19196981
v -0.08904314 0.33526260 0.09135103
v -0.11157388 0.33412147 0.09135103
v -0.13382761 0.33252385 0.09135103
v 0.00126453 0.32872003 0.09135103
v -0.02043517 0.33046979 0.09135103
v -0.03013077 0.35800949 0.16558310
v 0.01234522 0.35412958 0.19864410
v 0.03358322 0.34956500 0.20473634
v 0.08630887 0.31015736 0.09135103
v -0.13825989 0.33199131 0.09135103
v -0.16115999 0.32742673 0.09135103
v -0.21693283 0.36721474 0.16399214
v -0.24195673 0.37254012 0.18331653
v -0.26642659 0.37193149 0.20450351
v -0.28988075 0.36546499 0.22666061
v -0.28951138 0.36645398 0.24757597
v -0.28849566 0.36576930 0.26775405
v -0.19726460 0.35922670 0.34900963
v -0.17796572 0.35937887 0.35234678
v -0.16079064 0.34515256 0.37493071
v 0.00569681 0.32879612 0.39693257
v -0.28646418 0.36295447 0.28711724
v -0.28323233 0.35823771 0.30539393
v -0.21637879 0.35778126 0.34524566
v -0.23577002 0.35511857 0.34221894
v -0.25488421 0.35047790 0.33992949
v -0.27852303 0.35139084 0.32215726
v -0.27399841 0.34378317 0.33826092
v 0.01493072 0.33328462 0.38412726
v 0.02444165 0.33746883 0.36965337
v 0.03182878 0.34188128 0.35308406
v 0.03663041 0.34598941 0.33469096
v 0.05417485 0.34096834 0.33911461
v 0.04023164 0.34964108 0.31424123
v 0.05768374 0.34416357 0.31944099
v 0.07393542 0.33914250 0.32285574
v 0.06137730 0.34507647 0.29809877
v 0.06580958 0.34477216 0.27629092
v 0.05260509 0.34758702 0.22999775
v 0.23848376 0.28079182 0.18855506
v 0.03201346 0.35336882 0.22464280
v 0.05435953 0.34393534 0.21028531
v 0.23866841 0.27896598 0.17854363
v 0.10172950 0.30445161 0.09135103
v -0.19606419 0.31487411 0.09135103
v -0.23909421 0.35983533 0.16368170
v -0.26393345 0.36280230 0.18378218
v -0.28803396 0.36021572 0.20555122
v -0.31158045 0.35298845 0.22797994
v -0.31148809 0.35352099 0.24908932
v -0.31019536 0.35222769 0.26918980
v -0.17990483 0.34583724 0.37205923
v -0.16328380 0.32894826 0.39340141
v -0.00344477 0.32103631 0.40865138
v 0.02093276 0.31403726 0.41381234
v 0.02961264 0.32027555 0.40248156
v 0.03792316 0.32582912 0.38901657
v -0.30770218 0.34941283 0.28843659
v -0.30373162 0.34492433 0.30617002
v -0.29911464 0.34066403 0.32297215
v -0.23456961 0.34218559 0.35991356
v -0.21656348 0.34370711 0.36359996
v -0.19837266 0.34484825 0.36775196
v -0.25229871 0.33883822 0.35661522
v -0.26975080 0.33457792 0.35331687
v -0.29320496 0.33457792 0.33756244
v -0.28821865 0.32636166 0.35219157
v 0.06276239 0.32620952 0.37632766
v 0.06488619 0.33229563 0.35921508
v 0.06922612 0.33594730 0.34148166
v 0.09083349 0.33298030 0.32320496
v 0.08446208 0.33762097 0.28028774
v 0.24540919 0.27637938 0.19410405
v 0.24457812 0.27782482 0.18591639
v 0.32694462 0.21156219 0.09135103
v 0.30976954 0.22023490 0.09135103
v 0.29204044 0.22769040 0.09135103
v 0.23857608 0.24944828 0.09135103
v 0.10616177 0.30277795 0.09135103
v -0.20668319 0.31061381 0.09135103
v -0.24897450 0.32560089 0.12953417
v -0.25968584 0.35009754 0.16368170
v -0.28424805 0.35146689 0.18455826
v -0.30382395 0.34005544 0.18560597
v -0.30862558 0.34781525 0.20675415
v -0.32792446 0.33396930 0.20857793
v -0.33152568 0.33822960 0.22992015
v -0.33300310 0.33990327 0.25114593
v -0.33087930 0.33716452 0.27132401
v -0.18175162 0.32948080 0.39014187
v -0.16549994 0.31015736 0.41000953
v -0.01267868 0.29889804 0.43162337
v -0.01018552 0.31068990 0.41986576
v 0.01289926 0.30582100 0.42463863
v 0.02970498 0.28664970 0.44338098
v 0.04623368 0.30407125 0.42044783
v 0.05278976 0.31228751 0.40589631
v 0.05851479 0.31951478 0.39095676
v -0.32773978 0.33374107 0.29045439
v -0.32395387 0.33024156 0.30842066
v -0.31869054 0.32575303 0.32483473
v -0.31250381 0.32126454 0.33954147
v -0.23438492 0.32704633 0.37729776
v -0.25100595 0.32567698 0.37291291
v -0.26799637 0.32210138 0.36833403
v -0.30548605 0.31525448 0.35362732
v -0.29856062 0.30909228 0.36480287
v 0.07762899 0.31380904 0.39118958
v 0.09932868 0.30498415 0.39064634
v 0.13026229 0.30452770 0.34772909
v 0.10810090 0.32407936 0.32339901
v 0.27144882 0.25568658 0.22561289
v 0.28243718 0.25188273 0.21513581
v 0.37828517 0.18120764 0.09135103
v -0.21628645 0.30612531 0.09135103
v -0.22395061 0.30224541 0.09135103
v -0.23484662 0.29615927 0.09135103
v -0.25156000 0.28550857 0.09135103
v -0.28951138 0.31708032 0.14765565
v -0.29699084 0.32910040 0.16535027
v -0.31545869 0.31837362 0.16709645
v -0.32266113 0.32757887 0.18723574
v -0.34075961 0.31411335 0.18936995
v -0.36458310 0.30399516 0.21296279
v -0.35045519 0.32255784 0.23220958
v -0.38720617 0.28824732 0.23690486
v -0.37003109 0.30452770 0.25615165
v -0.35036287 0.32027555 0.27400148
v -0.34750035 0.31692818 0.29340351
v -0.18350607 0.31008127 0.40612912
v -0.23521598 0.30962482 0.39375067
v -0.21850260 0.30985305 0.39829072
v -0.20252793 0.28992099 0.41788673
v -0.18553753 0.26892388 0.43585300
v -0.05303088 0.23689567 0.47384214
v 0.00708189 0.26869565 0.45901901
v 0.01927066 0.27721623 0.45184025
v 0.04087801 0.25644732 0.45816529
v 0.06303941 0.27904207 0.43558139
v -0.36116654 0.29395306 0.31559938
v -0.33697370 0.30825543 0.32844353
v -0.33023295 0.30429947 0.34427553
v -0.26716530 0.30863583 0.38249749
v -0.25146765 0.30901620 0.38816288
v -0.32146072 0.29927841 0.35777932
v -0.31139576 0.29448560 0.36988619
v -0.29920700 0.29205114 0.38075131
v -0.29311261 0.30361477 0.37314573
v 0.09655850 0.29265976 0.40275317
v 0.18040243 0.24747030 0.37625006
v 0.19979365 0.24670954 0.36181495
v 0.19813155 0.26131624 0.34745747
v 0.16202694 0.28444350 0.34749627
v 0.15103859 0.29821333 0.33061653
v 0.12749211 0.31297219 0.32506758
v 0.20487231 0.27972674 0.28269359
v 0.23829907 0.26550043 0.26104096
v 0.23866841 0.25028515 0.30752814
v 0.28511500 0.24222101 0.23760334
v 0.29499528 0.23993872 0.22347867
v 0.35852462 0.18105549 0.20077834
v 0.38280979 0.17633875 0.09135103
v -0.32921720 0.23179853 0.09135103
v -0.30687115 0.30658177 0.14944063
v -0.32441556 0.29555067 0.15118681
v -0.33328012 0.30597314 0.16934708
v -0.36744562 0.27888989 0.17334390
v -0.37594080 0.28505209 0.19340557
v -0.38268155 0.28794301 0.21486419
v -0.40050301 0.27135834 0.21637754
v -0.40511999 0.26930428 0.23872864
v -0.38877594 0.28573680 0.25875151
v -0.36929238 0.30194110 0.27695060
v -0.36624521 0.29813728 0.29677945
v -0.22025704 0.29022530 0.41365710
v -0.25405318 0.29091001 0.40294719
v -0.23752445 0.29068178 0.40872902
v -0.20419003 0.26953250 0.43150693
v -0.20622149 0.24876361 0.44244969
v -0.18876940 0.22632103 0.45672956
v -0.19070852 0.20463921 0.46600372
v -0.16983987 0.20342200 0.46961248
v -0.08590361 0.20874734 0.47942990
v -0.04407398 0.21856122 0.48043880
v -0.02403639 0.22381049 0.48067164
v 0.01132949 0.23735212 0.47263920
v 0.02702715 0.24663346 0.46712905
v 0.07485881 0.24883968 0.44966722
v 0.08464676 0.26276168 0.43368000
v -0.38443601 0.27721623 0.30011660
v -0.37741822 0.27287987 0.31951860
v -0.36827666 0.26922819 0.33845496
v -0.35359475 0.28938848 0.33333281
v -0.34426847 0.28489995 0.34997973
v -0.33392650 0.28071573 0.36546254
v -0.28544846 0.29098606 0.38858974
v -0.26984316 0.29091001 0.39627290
v -0.32053733 0.27630329 0.37853947
v -0.32432324 0.21787652 0.41610175
v -0.29597512 0.25294781 0.40931106
v -0.29015777 0.27204302 0.39968768
v 0.11345656 0.26314205 0.41346309
v 0.19859324 0.23149423 0.37434864
v 0.25335035 0.14362584 0.39836833
v 0.21881551 0.23141815 0.35863304
v 0.27754319 0.21285547 0.32196325
v 0.32362041 0.19642295 0.27997732
v 0.33885637 0.18790238 0.25750980
v 0.37145209 0.16462296 0.19674271
v 0.40423247 0.15237464 0.09135103
v 0.39666066 0.16089521 0.09135103
v 0.34393504 0.17991434 0.26593027
v -0.33909750 0.22396265 0.09135103
v -0.34509954 0.21856122 0.09135103
v -0.37344766 0.25644732 0.15619253
v -0.38314325 0.26420712 0.17470205
v -0.39191547 0.26884779 0.19522935
v -0.40650505 0.25203490 0.19631587
v -0.41601598 0.25233918 0.21734765
v -0.42146400 0.24754637 0.23954353
v -0.40724376 0.26473966 0.26080814
v -0.38812956 0.28185689 0.27989969
v -0.22265786 0.27021718 0.42681167
v -0.25765437 0.27113008 0.41497645
v -0.24057165 0.27074972 0.42126268
v -0.22533569 0.24982867 0.43740517
v -0.22810586 0.22905979 0.44652408
v -0.20852996 0.22761433 0.45168504
v -0.19172424 0.18151195 0.47298843
v -0.23078370 0.20768228 0.45428491
v -0.27409074 0.17108947 0.45692357
v -0.14860187 0.20319377 0.47256160
v -0.08091729 0.18607654 0.48567736
v -0.03548644 0.19657511 0.48777276
v -0.14786316 0.18044688 0.47884786
v 0.02693481 0.21498562 0.47884786
v 0.04429456 0.22434303 0.46984529
v 0.16784431 0.15891722 0.43740517
v 0.29333317 0.05720291 0.41373473
v 0.20090172 0.16325359 0.41986576
v -0.40687442 0.25933823 0.28265479
v -0.39228484 0.25005692 0.32405865
v -0.35719597 0.26542437 0.35630479
v -0.38101947 0.24777460 0.34400392
v -0.34399146 0.26139230 0.37248605
v -0.27409074 0.27143440 0.40764248
v -0.32857084 0.25736025 0.38626146
v -0.28914201 0.19368419 0.44310933
v -0.30493203 0.21498562 0.42650121
v -0.33605030 0.23864542 0.39417750
v -0.34269872 0.22000667 0.40147266
v -0.36726093 0.20273730 0.39161643
v -0.34750035 0.20144400 0.40671119
v -0.32681638 0.19916171 0.42083585
v -0.28683355 0.21293156 0.43546498
v -0.28313997 0.23202677 0.42646241
v -0.26171732 0.25104588 0.42514309
v 0.29388723 0.09052443 0.40042496
v 0.30801511 0.10840241 0.37729776
v 0.27745086 0.20190047 0.33178067
v 0.29554933 0.19977032 0.31684113
v 0.32712930 0.18721770 0.28653517
v 0.38253278 0.14537561 0.20465873
v 0.41125026 0.13738757 0.09135103
v 0.35400000 0.10102299 0.32320496
v 0.38401020 0.07568950 0.29697347
v 0.37625372 0.13411628 0.24625662
v -0.43993181 0.12673685 0.09135103
v -0.39690179 0.24906790 0.17571095
v -0.44556451 0.12019427 0.09135103
v -0.45442906 0.10916318 0.09135103
v -0.43134427 0.21749614 0.19495773
v -0.43005154 0.23240715 0.21668798
v -0.42358780 0.23978657 0.26193345
v -0.43540719 0.22411481 0.23810779
v -0.24408053 0.25058943 0.43197259
v -0.24722007 0.23004878 0.44074231
v -0.27168992 0.19117367 0.44955081
v -0.19172424 0.15724353 0.47702405
v -0.27630690 0.14917943 0.46049356
v -0.28960371 0.17359999 0.44795984
v -0.29135817 0.15321149 0.45218951
v -0.16900882 0.15602632 0.48016718
v -0.16753140 0.13099714 0.48016718
v -0.04961433 0.16949186 0.48668623
v 0.15971847 0.02836991 0.45370284
v 0.18548109 0.04951918 0.45141339
v 0.00726657 0.20669328 0.48199096
v 0.20819651 0.07218999 0.44322574
v 0.22795708 0.09501294 0.43076968
v 0.20644207 0.11920528 0.43286508
v 0.30275178 -0.01742816 0.40997073
v 0.33414710 -0.03690375 0.38874495
v 0.32592890 0.04951918 0.39103436
v 0.32749867 0.07310291 0.38152739
v 0.22869579 0.04822588 0.43957818
v 0.24808702 0.02258809 0.43422323
v 0.26516974 -0.00449515 0.42801458
v -0.40059537 0.25340426 0.30325970
v -0.42220271 0.23058131 0.28490540
v -0.41573897 0.22206074 0.30783859
v -0.40401191 0.22190858 0.32960764
v -0.36790732 0.24503586 0.36278504
v -0.39043805 0.22350620 0.34881562
v -0.37667951 0.22373442 0.36848924
v -0.36079720 0.22251719 0.38618386
v -0.34851608 0.16584019 0.41342428
v -0.32921720 0.16348182 0.42848024
v -0.38148114 0.20129184 0.37337855
v -0.38452834 0.15762392 0.38672712
v -0.26568788 0.23103777 0.43433964
v 0.32352808 0.09866462 0.36635503
v 0.33497813 0.13571389 0.32002303
v 0.39675301 0.09067658 0.24004799
v 0.44938630 0.03742301 0.12425683
v 0.44994035 0.04670435 0.10291463
v 0.45141777 0.04898664 0.09135103
v 0.36831257 0.07317898 0.32401985
v 0.38013196 0.04792157 0.32336017
v 0.39416751 0.05073640 0.29778835
v 0.39601430 0.07317898 0.26969424
v 0.38770378 0.09470864 0.26488256
v -0.46624848 0.09250242 0.09135103
v -0.46818760 0.08953543 0.09135103
v -0.44094756 0.21095356 0.21420452
v -0.43743867 0.21300763 0.26073053
v -0.44528750 0.20037892 0.23469304
v -0.21647114 0.11190193 0.47333765
v -0.19190893 0.10786988 0.47776133
v -0.27944642 0.12734547 0.46115321
v -0.28720289 0.10619619 0.45898020
v -0.33069465 0.10262059 0.43503812
v -0.14324620 0.13160574 0.48102087
v -0.16725437 0.10581581 0.47780013
v -0.16983987 0.08131917 0.47376451
v 0.19019037 -0.05310805 0.43891853
v 0.17218426 -0.03043725 0.44357499
v 0.21539897 -0.03819705 0.44062591
v 0.17883267 0.00767709 0.44997767
v 0.20477997 0.02700053 0.44741660
v 0.31438652 -0.04808700 0.40186068
v 0.27985168 -0.03218701 0.42056423
v 0.34347335 -0.06786690 0.37888873
v 0.35215321 -0.02693773 0.37322333
v 0.35797057 0.01003546 0.36200899
v 0.37468395 0.01634981 0.34214133
v 0.36378795 0.04252014 0.34741867
v 0.22343247 0.00326465 0.44198403
v 0.24051520 -0.02168845 0.43593061
v -0.43633059 0.19893348 0.28436217
v -0.42940515 0.18120764 0.31117573
v -0.39597839 0.19741194 0.35448098
v -0.34602293 0.13868088 0.41924489
v -0.42598861 0.14765790 0.32386464
v -0.41850916 0.12544355 0.33604911
v -0.41675469 0.08824213 0.33236271
v -0.40770546 0.10246844 0.34675899
v -0.39579371 0.08033017 0.35847783
v -0.36781496 0.11760767 0.40100700
v 0.40506354 0.05043210 0.27089718
v 0.42048416 0.00394934 0.25882912
v 0.43239591 -0.03964251 0.23368412
v 0.43821329 -0.05987886 0.21703720
v 0.44190684 -0.08003914 0.19903216
v 0.45538837 -0.00776644 0.09135103
v 0.45271051 0.04175938 0.09135103
v 0.41291237 0.02677230 0.26728839
v 0.39010459 0.02152302 0.31928578
v 0.40312442 0.02509862 0.29429600
v -0.47455898 0.07721104 0.09135103
v -0.44815001 0.18919568 0.20904359
v -0.48148444 0.06131104 0.09135103
v -0.44741130 0.18668516 0.25634566
v -0.45248994 0.17801243 0.22778592
v -0.25285274 0.07302683 0.46289939
v -0.20973037 0.04122684 0.46262777
v -0.22810586 0.06747324 0.46596491
v -0.31315020 0.09379572 0.44435108
v -0.29597512 0.08595984 0.45296556
v -0.34085193 0.08588376 0.42397898
v -0.32339984 0.07538520 0.43418443
v 0.20200980 -0.13283625 0.41028115
v 0.22823410 -0.12203339 0.41307506
v 0.24347007 -0.08673388 0.42238802
v -0.20298962 -0.02282959 0.44186762
v 0.26840162 -0.07380087 0.41893446
v 0.25547415 -0.04755447 0.42801458
v 0.29222512 -0.06033532 0.41179451
v 0.32389745 -0.07882192 0.39150003
v 0.35095280 -0.09768890 0.36693710
v 0.36978999 -0.08635350 0.35199755
v 0.36083308 -0.05714010 0.36336711
v 0.37745413 -0.04725016 0.34590530
v 0.36785087 -0.01849323 0.35467502
v 0.38373318 -0.01126596 0.33469096
v -0.44593388 0.17116554 0.27660137
v -0.44030118 0.15062489 0.29705107
v -0.43457615 0.13305120 0.30915791
v -0.42700434 0.11182585 0.32110956
v -0.41176838 0.05035602 0.32910317
v -0.40447360 0.06602779 0.34400392
v -0.42358780 0.07249429 0.31699634
v -0.38268155 0.05948520 0.37147716
v -0.35497981 0.10011007 0.41148409
v 0.41697529 -0.02518797 0.27691180
v 0.42427006 -0.04884776 0.26461092
v 0.43119550 -0.07174680 0.24978779
v 0.41004986 -0.00046310 0.28692323
v 0.43535078 -0.09365684 0.23213197
v 0.43775159 -0.11480612 0.21327323
v 0.44319960 -0.10004727 0.18075547
v 0.44347662 -0.12028362 0.16329366
v 0.44107580 -0.14105251 0.14563784
v 0.43969071 -0.12644581 0.11424540
v 0.43119550 -0.14348696 0.09135103
v 0.39749172 -0.00525592 0.31168017
v -0.48508567 0.04936703 0.09135103
v -0.45313632 0.16424258 0.24703270
v -0.45729157 0.15693924 0.21855056
v -0.26060924 0.05256224 0.45486695
v -0.23613937 0.04579143 0.46057117
v -0.21674815 0.02076225 0.45502219
v -0.30437797 0.06709286 0.44252729
v -0.26882741 0.03263019 0.44625247
v -0.36569116 0.04099861 0.38362283
v -0.33207971 0.05803975 0.42168954
v -0.30659413 0.00311250 0.41575253
v 0.21530662 -0.16859221 0.39569086
v 0.23275872 -0.14523673 0.40395612
v -0.18045887 -0.04390279 0.43395162
v 0.25455076 -0.11123051 0.41284221
v -0.22367358 0.00098236 0.44726139
v -0.21222353 -0.04230519 0.43329194
v 0.28603840 -0.12842381 0.39926082
v 0.27902064 -0.10027549 0.40861258
v 0.30201307 -0.08939655 0.40112340
v 0.33026883 -0.10856784 0.37935436
v 0.30847681 -0.11860994 0.38979265
v 0.33488581 -0.13618362 0.36627743
v 0.35640082 -0.12507644 0.35323927
v 0.37588435 -0.11343674 0.33756244
v 0.39315179 -0.10202526 0.31951860
v 0.38631868 -0.07539847 0.33438054
v 0.39222839 -0.03872959 0.32537800
v -0.45784560 0.14377800 0.23566313
v -0.45073551 0.14841866 0.26554221
v -0.44039351 0.11418423 0.29417959
v -0.44584152 0.13191006 0.28129664
v -0.43965480 0.07538520 0.28956190
v -0.42922047 0.05454023 0.30019420
v -0.41666237 0.03316273 0.31202942
v -0.39662477 0.02958713 0.34179208
v -0.39034572 0.04503066 0.35700327
v -0.37353998 0.02585938 0.36996379
v 0.41374341 -0.05675972 0.29049319
v 0.42122287 -0.08148459 0.27613571
v 0.42593217 -0.10529654 0.25890672
v 0.40534055 -0.03142624 0.30213439
v 0.42870235 -0.12796736 0.24039721
v 0.43904433 -0.13557501 0.19418165
v 0.42999509 -0.15002954 0.22126684
v 0.43673584 -0.15626782 0.17520648
v 0.43128785 -0.17703672 0.15747306
v 0.43433502 -0.16197357 0.12953417
v 0.43248826 -0.14797547 0.10105203
v 0.42583984 -0.16311471 0.09135103
v -0.48591670 0.04472636 0.09135103
v -0.24398820 0.02570723 0.45246112
v -0.28369403 -0.00479946 0.42475504
v -0.27630690 0.01376321 0.43577540
v -0.25876245 -0.01195065 0.43282628
v -0.25128299 0.00661202 0.44314814
v -0.35479516 0.00904647 0.38164380
v -0.33448052 -0.00472338 0.39204329
v -0.32727808 0.01277422 0.40531424
v -0.31342721 -0.01522194 0.40267557
v -0.29080412 -0.02343821 0.41249299
v 0.20995095 -0.18023193 0.38866735
v 0.23580590 -0.18502475 0.38501975
v 0.23599058 -0.16630992 0.39510879
v -0.18840005 -0.06223723 0.42436701
v 0.26092216 -0.13625969 0.40259796
v -0.23198411 -0.01834108 0.43880212
v -0.19430974 -0.08011522 0.41338548
v -0.24020229 -0.03682768 0.42770416
v -0.21961066 -0.06041140 0.42157313
v 0.28973195 -0.15550706 0.38769722
v 0.31290910 -0.14675826 0.37815145
v 0.33876404 -0.16144103 0.35137668
v 0.36120245 -0.15056208 0.33810571
v 0.38096303 -0.13899845 0.32188565
v 0.39915383 -0.12781520 0.30384177
v 0.40857241 -0.09145062 0.29941812
v 0.40090826 -0.06550852 0.31389201
v -0.45886135 0.11022825 0.23597357
v -0.45498309 0.12886700 0.25145638
v -0.48794818 0.02776129 0.09135103
v -0.45073551 0.11266270 0.26534820
v -0.44556451 0.09486079 0.27768788
v -0.45008913 0.07743926 0.25906196
v -0.44334838 0.05796368 0.26965544
v -0.43300638 0.03673832 0.27958927
v -0.41989422 0.01505652 0.29026037
v -0.40318084 -0.00365831 0.30613121
v -0.40068769 0.01330675 0.32483473
v -0.37954202 0.01072015 0.35463622
v -0.36144355 -0.00662529 0.36682066
v 0.41374341 -0.11647980 0.28273240
v 0.41688293 -0.14044391 0.26461092
v 0.41836035 -0.16357116 0.24544173
v 0.42861000 -0.17140704 0.20167083
v 0.41706762 -0.18586159 0.22553529
v 0.42371604 -0.19270848 0.18300609
v 0.42260796 -0.19788168 0.14121418
v 0.42565516 -0.18266638 0.11478865
v 0.42371604 -0.17049412 0.09135103
v -0.26614958 -0.03020902 0.42071944
v -0.34149832 -0.02123199 0.37803504
v -0.31989095 -0.03271954 0.38858974
v -0.29699084 -0.04154442 0.39879519
v -0.27279800 -0.04846738 0.40775889
v 0.20634973 -0.19461039 0.37935436
v 0.23589826 -0.20427211 0.37291291
v -0.16780841 -0.09844966 0.40473220
v 0.26480040 -0.18403575 0.37966481
v 0.26415402 -0.16098456 0.39188805
v -0.22468932 -0.07806115 0.40923345
v -0.19892670 -0.09761282 0.40081298
v -0.24712773 -0.05493389 0.41517046
v 0.29037833 -0.17916685 0.37217563
v 0.31494054 -0.17140704 0.36255223
v 0.34190357 -0.18525298 0.33504018
v 0.36471134 -0.17505872 0.32122597
v 0.38474894 -0.16395155 0.30485067
v 0.40229335 -0.15246399 0.28610834
v -0.45498309 0.09478471 0.24800281
v -0.48767114 0.02053402 0.09135103
v -0.48730180 0.01132877 0.09135103
v -0.48563969 -0.00183247 0.09135103
v -0.48527032 -0.00464731 0.09135103
v -0.48499331 -0.00654922 0.09135103
v -0.47594407 -0.00928797 0.11901829
v -0.47474366 -0.03431715 0.10101323
v -0.46634081 -0.04778270 0.10900685
v -0.45646054 -0.06033532 0.11769895
v -0.44935042 -0.08506019 0.10501005
v -0.38360494 -0.00502769 0.33791170
v -0.38231221 -0.05386882 0.28851420
v -0.38489771 -0.03751237 0.30298808
v -0.36799964 -0.05348843 0.31773362
v -0.36799964 -0.03766452 0.33364326
v -0.36569116 -0.02191668 0.35025138
v -0.34648463 -0.03705591 0.36235821
v 0.40340143 -0.17612380 0.26678395
v 0.40192401 -0.19871852 0.24683869
v 0.41208130 -0.20723909 0.20613328
v 0.41503617 -0.21347737 0.16538908
v 0.41180429 -0.21796589 0.12526573
v 0.41438979 -0.20244627 0.10031477
v 0.41374341 -0.19757737 0.09135103
v -0.32552364 -0.04938030 0.37380540
v -0.30234653 -0.05850948 0.38439888
v -0.27778432 -0.06604106 0.39409989
v -0.25192934 -0.07235541 0.40201592
v 0.17726290 -0.19316493 0.37741417
v 0.16433543 -0.22055249 0.35797337
v 0.20265616 -0.20921709 0.36895490
v 0.19785453 -0.22435631 0.35680926
v 0.19129845 -0.23736539 0.34633216
v 0.18308027 -0.24976587 0.33569986
v 0.22684902 -0.23378980 0.34664258
v 0.25547415 -0.23850654 0.33612671
v 0.26387700 -0.20472857 0.36596698
v -0.12884131 -0.15603960 0.36802360
v 0.15602490 -0.23363765 0.34761268
v -0.25543824 -0.08939655 0.38874495
v -0.23115306 -0.11077406 0.38125575
v -0.20289728 -0.11442573 0.38703758
v -0.15645070 -0.15322477 0.36600578
v 0.29037833 -0.20084867 0.35680926
v 0.31669497 -0.19400178 0.34660378
v 0.34236526 -0.20739125 0.31734556
v 0.36545005 -0.19818598 0.30240601
v 0.38557997 -0.18768743 0.28564268
v -0.48323888 -0.01438510 0.09135103
v -0.48111507 -0.02016692 0.09387329
v -0.47612876 -0.03842528 0.09135103
v -0.46920332 -0.05622719 0.09135103
v -0.46357062 -0.06817120 0.09135103
v -0.46015409 -0.07258365 0.09457177
v -0.45812264 -0.07889799 0.09135103
v -0.45101252 -0.09236354 0.09135103
v -0.43993181 -0.10948075 0.09309721
v -0.43762335 -0.09647167 0.11556473
v -0.35618022 -0.11488219 0.25910076
v -0.34196001 -0.11389320 0.28661278
v -0.34925479 -0.06794298 0.33084935
v -0.34907013 -0.05234729 0.34613815
v -0.32801679 -0.06474776 0.35836139
v 0.39666066 -0.22001995 0.22747549
v 0.38382554 -0.21020608 0.26593027
v 0.38779610 -0.24033238 0.20935401
v 0.40284738 -0.22777976 0.18789540
v 0.40377077 -0.23363765 0.14866455
v 0.39832276 -0.23630032 0.10912327
v 0.40063125 -0.22473669 0.09135103
v 0.40672565 -0.21317306 0.09135103
v -0.30585542 -0.07532240 0.37070107
v -0.28110853 -0.08277790 0.38036329
v 0.14706801 -0.24550557 0.33779529
v 0.17375402 -0.26140559 0.32483473
v 0.21105902 -0.26125342 0.32270053
v 0.21955423 -0.24778789 0.33438054
v 0.24854872 -0.25372186 0.32289454
v 0.27809724 -0.25524339 0.31121454
v 0.28465331 -0.23820224 0.32580483
v 0.26064515 -0.22199793 0.35040659
v 0.28862390 -0.22001995 0.34074438
v -0.10141658 -0.20845632 0.33042252
v -0.25783908 -0.10544870 0.37454265
v -0.23420024 -0.12675013 0.36697590
v -0.20686786 -0.13063003 0.37233084
v -0.16383784 -0.17049412 0.35098863
v 0.31632563 -0.21469459 0.32987925
v 0.33913338 -0.22770368 0.29980615
v 0.36277220 -0.21979173 0.28358608
v -0.48148444 -0.02107983 0.09135103
v -0.46052346 -0.07418125 0.09135103
v -0.44177860 -0.10757884 0.09135103
v -0.44002417 -0.11024152 0.09135103
v -0.42746603 -0.12720659 0.09135103
v -0.42709669 -0.12051186 0.10435037
v -0.34085193 -0.14051998 0.25130114
v -0.34094429 -0.12789127 0.26984945
v -0.32478493 -0.12621759 0.29817638
v -0.32607767 -0.11145875 0.31431887
v -0.32847849 -0.07996307 0.34349948
v -0.30677879 -0.09076593 0.35591674
v 0.37773114 -0.23074673 0.24707150
v 0.36923596 -0.25045055 0.22976492
v 0.35677016 -0.23964769 0.26593027
v 0.35806292 -0.26969790 0.21404931
v 0.37606904 -0.25996011 0.19286232
v 0.39102799 -0.24755964 0.17101565
v 0.37763882 -0.26597017 0.15479559
v 0.39010459 -0.25181994 0.13221166
v 0.38308683 -0.25471085 0.09135103
v 0.39389050 -0.23721324 0.09135103
v -0.28507909 -0.13055396 0.33647594
v -0.28286296 -0.09875397 0.36600578
v -0.26217902 -0.13747692 0.34567249
v 0.13718772 -0.25638452 0.32731819
v 0.16295034 -0.27205628 0.31393081
v 0.20108640 -0.27334958 0.31086528
v 0.22971153 -0.28126156 0.29708987
v 0.23986882 -0.26794815 0.30977878
v 0.26914033 -0.27053475 0.29681826
v 0.29776546 -0.26962185 0.28339207
v 0.30644533 -0.25235248 0.29829279
v 0.31263205 -0.23386587 0.31354278
v -0.15201843 -0.20008790 0.32646450
v -0.11249728 -0.21986780 0.31598744
v 0.10228353 -0.28491321 0.29293784
v 0.11465697 -0.27593619 0.30485067
v 0.12629171 -0.26650271 0.31641427
v -0.23724744 -0.14219366 0.35223037
v -0.21111546 -0.14637788 0.35754651
v -0.17122497 -0.18403575 0.33604911
v 0.33313134 -0.24725536 0.28358608
v -0.41546196 -0.14173721 0.09135103
v -0.35248667 -0.21020608 0.11265443
v -0.36264396 -0.19430608 0.12235543
v -0.32469258 -0.15208361 0.26177824
v -0.32432324 -0.13983528 0.28075337
v -0.35396409 -0.20054436 0.13007744
v -0.30659413 -0.15117069 0.29243338
v -0.30659413 -0.13747692 0.31005043
v -0.30659413 -0.10620946 0.34097719
v 0.34845966 -0.25881898 0.24978779
v 0.36203349 -0.27776203 0.17687505
v 0.33756363 -0.27715343 0.23446020
v 0.32435915 -0.29427063 0.21948186
v 0.34384269 -0.28651083 0.19848889
v 0.34688988 -0.29358596 0.16135345
v 0.36240286 -0.28141370 0.13857551
v 0.37579203 -0.26832855 0.11579756
v 0.36378795 -0.27867496 0.09135103
v -0.28563315 -0.14546496 0.32025588
v -0.26402578 -0.15261614 0.33011210
v 0.17717056 -0.29381418 0.28723365
v 0.18963635 -0.28430462 0.29914647
v 0.15103859 -0.28118548 0.30248362
v 0.21789213 -0.29305342 0.28455618
v 0.24651724 -0.29822662 0.26977184
v 0.25870600 -0.28506538 0.28312042
v 0.28705412 -0.28521752 0.26853013
v 0.31392482 -0.28263092 0.25285330
v 0.32482082 -0.26543763 0.26787046
v -0.17796572 -0.19575153 0.32068270
v -0.15903619 -0.20974962 0.31078768
v -0.05709380 -0.27867496 0.25374579
v -0.04795223 -0.27099121 0.26779285
v 0.05694502 -0.28924960 0.27570885
v 0.08972541 -0.29290125 0.27997732
v 0.11216383 -0.30552995 0.26732719
v 0.12527597 -0.29807445 0.27958927
v 0.13848047 -0.29001036 0.29123047
v -0.24057165 -0.15680036 0.33651474
v -0.24426521 -0.17079844 0.32017827
v -0.41352284 -0.14394343 0.09135103
v -0.34740803 -0.21857449 0.09282559
v -0.34491485 -0.22131325 0.09135103
v -0.33568096 -0.22960559 0.09135103
v -0.27658391 -0.25775391 0.12503292
v -0.31508932 -0.22679076 0.13663530
v -0.33032528 -0.21332522 0.14299917
v -0.30724049 -0.16311471 0.27318659
v -0.28664887 -0.17148313 0.28401291
v -0.26661128 -0.17833002 0.29406315
v 0.32934543 -0.30317158 0.18382098
v 0.30081266 -0.29837877 0.23791376
v 0.30912319 -0.30963808 0.20477515
v 0.33119223 -0.30689934 0.14579305
v 0.34716690 -0.29556394 0.12247185
v 0.35279959 -0.29077113 0.09135103
v 0.36046374 -0.28331563 0.09934466
v 0.35935566 -0.28392422 0.09135103
v -0.25340676 -0.19582762 0.28215033
v 0.16405840 -0.30256298 0.27574766
v 0.20487231 -0.30347589 0.27221650
v 0.23275872 -0.30979025 0.25665611
v 0.26009110 -0.31237686 0.24047484
v 0.27458835 -0.29997638 0.25448307
v -0.17621127 -0.22762761 0.27376866
v -0.08507255 -0.27662089 0.24385078
v -0.06512731 -0.28521752 0.23915550
v 0.00394236 -0.30347589 0.23771974
v 0.03459895 -0.30545390 0.24579097
v 0.01428434 -0.29624861 0.25254288
v 0.04540263 -0.29769409 0.26080814
v 0.07744431 -0.30088928 0.26651230
v 0.09951336 -0.31222469 0.25417265
v 0.12250580 -0.32340795 0.23977636
v 0.13598731 -0.31678930 0.25227123
v 0.15002286 -0.31001848 0.26426169
v -0.26670361 -0.27106729 0.09135103
v -0.29514408 -0.23523526 0.14936303
v -0.26522619 -0.27152374 0.09305841
v -0.26393345 -0.27258882 0.09135103
v -0.25488421 -0.27631658 0.09135103
v -0.24528094 -0.27875102 0.09612393
v -0.24962088 -0.27380607 0.10695024
v -0.09421413 -0.31450698 0.15475678
v -0.09033588 -0.30933380 0.17295586
v -0.25756204 -0.20396779 0.26127377
v -0.29375899 -0.19103479 0.24020320
v -0.29034245 -0.18190561 0.26278713
v 0.31290910 -0.31602854 0.16888145
v 0.28576139 -0.31245291 0.22343987
v 0.29250214 -0.32241896 0.19022363
v 0.31484821 -0.31808260 0.13120274
v 0.30940020 -0.32371226 0.09135103
v 0.31374013 -0.32066920 0.09395090
v 0.31521755 -0.31975627 0.09135103
v 0.33119223 -0.30826873 0.10683383
v 0.34033379 -0.30172613 0.09135103
v -0.08498022 -0.30355197 0.19034006
v -0.09116694 -0.28331563 0.22790232
v 0.17597015 -0.31975627 0.24761477
v 0.19092910 -0.31192040 0.25952759
v 0.21779978 -0.31975627 0.24381196
v 0.24430111 -0.32340795 0.22693223
v 0.26941735 -0.32454908 0.20935401
v -0.07214507 -0.29137972 0.22375029
v -0.03456305 -0.30712757 0.21397170
v -0.02542148 -0.30126968 0.22879483
v -0.00612260 -0.30940986 0.22281900
v 0.04410988 -0.32142997 0.22235337
v 0.05500590 -0.31541991 0.23729290
v 0.06599426 -0.30826873 0.25199962
v 0.08750927 -0.31907159 0.24059124
v 0.10985534 -0.32995054 0.22658300
v 0.13284779 -0.33991656 0.21110019
v 0.14669865 -0.33322182 0.22359508
v 0.16101122 -0.32660317 0.23577955
v -0.27529114 -0.19780560 0.25075790
v -0.24980555 -0.27829456 0.09135103
v -0.12893364 -0.31861514 0.10186692
v -0.12847194 -0.31374621 0.11994958
v -0.04453568 -0.33968833 0.12821484
v -0.07934753 -0.32013667 0.15289418
v -0.07445356 -0.31564814 0.17051122
v 0.29591867 -0.32713568 0.15483439
v 0.29767314 -0.32926583 0.11886308
v 0.27495769 -0.33322182 0.17633182
v 0.29019365 -0.33558020 0.09135103
v 0.32962248 -0.30963808 0.09135103
v -0.06817450 -0.31039885 0.18719694
v -0.07879350 -0.29769409 0.20737502
v 0.18640448 -0.33497158 0.21855056
v 0.20219447 -0.32766822 0.23092905
v 0.21096669 -0.34120986 0.20097235
v 0.22777240 -0.33306965 0.21385528
v 0.25205761 -0.33474335 0.19573382
v -0.02588318 -0.31975627 0.19371600
v -0.00843108 -0.32743999 0.18750736
v -0.01609523 -0.31481129 0.20822871
v 0.00255728 -0.32279932 0.20143801
v 0.05251274 -0.33626488 0.19767401
v 0.06451683 -0.33124381 0.21183747
v 0.07605922 -0.32561415 0.22631137
v 0.09757424 -0.33626488 0.21284637
v 0.11918159 -0.34607875 0.19779041
v 0.14023492 -0.35490364 0.18110469
v 0.15547088 -0.34851319 0.19394884
v -0.14546235 -0.31503952 0.09135103
v -0.11286663 -0.31929982 0.11894068
v -0.12902598 -0.32074526 0.09135103
v -0.00584558 -0.36091366 0.09135103
v -0.02976142 -0.34836105 0.11214998
v -0.05247685 -0.33086345 0.14773326
v 0.02453399 -0.36951032 0.09569709
v 0.01271458 -0.36205482 0.11044261
v -0.00104395 -0.35414287 0.12324792
v -0.02671423 -0.34159023 0.13954560
v -0.04462802 -0.32743999 0.16375931
v -0.01951178 -0.33116776 0.17361553
v 0.27837425 -0.33763427 0.14206786
v 0.27782020 -0.34250316 0.09135103
v 0.23848376 -0.35132805 0.15002269
v 0.25962940 -0.34714383 0.12961179
v 0.21650703 -0.35140410 0.16942470
v 0.23432848 -0.34341606 0.18242404
v 0.19397628 -0.34813282 0.18812823
v 0.19859324 -0.35855529 0.15654176
v 0.00920569 -0.33542803 0.17982417
v 0.02130212 -0.33124381 0.19344437
v 0.02684247 -0.34402469 0.17047241
v 0.07190396 -0.34600267 0.18502390
v 0.08492377 -0.34159023 0.19883813
v 0.10523839 -0.35155627 0.18401501
v 0.12481429 -0.35992467 0.16752329
v 0.16064186 -0.36152229 0.16306084
v 0.00311131 -0.36380458 0.09135103
v 0.00763593 -0.36525002 0.09135103
v -0.01581821 -0.33984047 0.15359266
v 0.02748884 -0.37126008 0.09135103
v 0.04254012 -0.37156439 0.10578613
v 0.02905861 -0.36365244 0.12099729
v 0.01566943 -0.36776057 0.09135103
v -0.00048991 -0.34737206 0.14497817
v 0.01326861 -0.34638306 0.15724024
v 0.26009110 -0.35132805 0.09612393
v 0.26341531 -0.34995866 0.09135103
v 0.24042287 -0.35627300 0.11711690
v 0.21955423 -0.35916391 0.13706215
v 0.20062470 -0.36593473 0.12410161
v 0.18058711 -0.36502180 0.14373644
v 0.02961264 -0.35467541 0.14610349
v 0.04410988 -0.35277349 0.15863718
v 0.07587454 -0.35962036 0.15720144
v 0.09083349 -0.35596868 0.17039479
v 0.10902429 -0.36433712 0.15394190
v 0.14383614 -0.36631510 0.14963464
v 0.16267332 -0.37027109 0.13062069
v 0.04327883 -0.37513998 0.09135103
v 0.05297444 -0.37749836 0.09135103
v 0.05989987 -0.37179261 0.11641842
v 0.04531029 -0.36334813 0.13244447
v 0.25196525 -0.35467541 0.09135103
v 0.22056995 -0.36410889 0.10427277
v 0.23248170 -0.36144620 0.09135103
v 0.18141817 -0.37141225 0.11098586
v 0.16812134 -0.37688974 0.09135103
v 0.19923961 -0.37087971 0.09135103
v 0.20034769 -0.37065145 0.09135103
v 0.06063858 -0.36220697 0.14455132
v 0.07661325 -0.37049931 0.12821484
v 0.09286495 -0.36798880 0.14078733
v 0.10967067 -0.37445530 0.12293750
v 0.12684575 -0.37065145 0.13613085
v 0.14457485 -0.37468353 0.11727211
v 0.16230397 -0.37681368 0.09787011
v 0.15260836 -0.37917203 0.09135103
v 0.05537526 -0.37787873 0.09135103
v 0.05999222 -0.37856343 0.09135103
v 0.07412010 -0.37841126 0.09876260
v 0.21946189 -0.36532611 0.09135103
v 0.16165759 -0.37795481 0.09135103
v 0.10754687 -0.38183472 0.09135103
v 0.12629171 -0.37848735 0.10407875
v 0.07966045 -0.38054141 0.09135103
v 0.13718772 -0.38054141 0.09135103
f 1 2 3
f 1 3 4
f 1 4 5
f 1 5 6
f 1 6 7
f 1 7 8
f 1 8 9
f 1 9 2
f 2 10 3
f 2 9 11
f 2 11 12
f 2 12 10
f 3 10 13
f 3 13 14
f 3 14 15
f 3 15 4
f 4 15 5
f 5 16 17
f 5 17 6
f 5 15 18
f 5 18 19
f 5 19 16
f 6 17 7
f 7 17 20
f 7 20 21
f 7 21 22
f 7 22 8
f 8 22 9
f 9 22 23
f 9 23 24
f 9 24 11
f 10 25 13
f 10 12 26
f 10 26 25
f 11 24 27
f 11 27 28
f 11 28 12
f 12 28 26
f 13 25 29
f 13 29 30
f 13 30 14
f 14 30 31
f 14 31 32
f 14 32 15
f 15 32 18
f 16 33 34
f 16 34 17
f 16 19 33
f 17 34 20
f 18 32 35
f 18 35 19
f 19 36 33
f 19 35 37
f 19 37 38
f 19 38 36
f 20 34 39
f 20 39 40
f 20 40 41
f 20 41 21
f 21 41 42
f 21 42 22
f 22 42 43
f 22 43 23
f 23 44 24
f 23 43 44
f 24 44 45
f 24 45 27
f 25 46 29
f 25 26 47
f 25 47 46
f 26 28 48
f 26 48 47
f 27 45 49
f 27 49 50
f 27 50 51
f 27 51 52
f 27 52 28
f 28 52 53
f 28 53 48
f 29 46 54
f 29 54 55
f 29 55 30
f 30 55 56
f 30 56 31
f 31 56 57
f 31 57 58
f 31 58 32
f 32 58 59
f 32 59 35
f 33 60 61
f 33 61 34
f 33 36 60
f 34 61 62
f 34 62 39
f 35 59 63
f 35 63 37
f 36 38 64
f 36 64 60
f 37 63 38
f 38 65 64
f 38 63 66
f 38 66 67
f 38 67 65
f 39 62 68
f 39 68 69
f 39 69 40
f 40 69 70
f 40 70 71
f 40 71 41
f 41 71 72
f 41 72 42
f 42 72 43
f 43 72 73
f 43 73 74
f 43 74 75
f 43 75 76
f 43 76 77
f 43 77 78
f 43 78 44
f 44 78 79
f 44 79 45
f 45 79 80
f 45 80 49
f 46 47 81
f 46 81 82
f 46 82 83
f 46 83 54
f 47 48 81
f 48 53 84
f 48 84 85
f 48 85 81
f 49 80 86
f 49 86 50
f 50 86 80
f 50 80 87
f 50 87 88
f 50 88 89
f 50 89 124
f 50 124 159
f 50 159 158
f 50 158 157
f 50 157 156
f 50 156 155
f 50 155 194
f 50 194 242
f 50 242 291
f 50 291 290
f 50 290 344
f 50 344 397
f 50 397 446
f 50 446 445
f 50 445 495
f 50 495 546
f 50 546 596
f 50 596 640
f 50 640 687
f 50 687 686
f 50 686 728
f 50 728 727
f 50 727 767
f 50 767 807
f 50 807 805
f 50 805 846
f 50 846 877
f 50 877 844
f 50 844 842
f 50 842 876
f 50 876 909
f 50 909 934
f 50 934 950
f 50 950 952
f 50 952 968
f 50 968 956
f 50 956 955
f 50 955 954
f 50 954 969
f 50 969 964
f 50 964 973
f 50 973 970
f 50 970 972
f 50 972 966
f 50 966 965
f 50 965 947
f 50 947 946
f 50 946 927
f 50 927 930
f 50 930 925
f 50 925 924
f 50 924 899
f 50 899 898
f 50 898 896
f 50 896 867
f 50 867 830
f 50 830 829
f 50 829 826
f 50 826 793
f 50 793 792
f 50 792 790
f 50 790 750
f 50 750 711
f 50 711 710
f 50 710 709
f 50 709 672
f 50 672 671
f 50 671 708
f 50 708 669
f 50 669 668
f 50 668 667
f 50 667 707
f 50 707 665
f 50 665 621
f 50 621 620
f 50 620 619
f 50 619 618
f 50 618 617
f 50 617 577
f 50 577 547
f 50 547 497
f 50 497 452
f 50 452 450
f 50 450 404
f 50 404 403
f 50 403 351
f 50 351 350
f 50 350 348
f 50 348 294
f 50 294 293
f 50 293 243
f 50 243 198
f 50 198 197
f 50 197 196
f 50 196 195
f 50 195 160
f 50 160 125
f 50 125 91
f 50 91 90
f 50 90 83
f 50 83 82
f 50 82 81
f 50 81 85
f 50 85 84
f 50 84 52
f 50 52 51
f 52 84 53
f 54 83 90
f 54 90 91
f 54 91 92
f 54 92 55
f 55 92 93
f 55 93 56
f 56 93 94
f 56 94 57
f 57 94 95
f 57 95 58
f 58 95 96
f 58 96 97
f 58 97 59
f 59 97 63
f 60 98 99
f 60 99 61
f 60 64 98
f 61 99 100
f 61 100 101
f 61 101 62
f 62 101 68
f 63 97 102
f 63 102 103
f 63 103 66
f 64 104 98
f 64 65 105
f 64 105 104
f 65 67 106
f 65 106 105
f 66 103 107
f 66 107 67
f 67 107 108
f 67 108 106
f 68 101 109
f 68 109 110
f 68 110 69
f 69 110 111
f 69 111 70
f 70 111 71
f 71 111 112
f 71 112 113
f 71 113 114
f 71 114 72
f 72 114 73
f 73 114 74
f 74 114 115
f 74 115 116
f 74 116 117
f 74 117 118
f 74 118 75
f 75 118 76
f 76 119 77
f 76 118 120
f 76 120 119
f 77 119 121
f 77 121 78
f 78 121 79
f 79 121 88
f 79 88 87
f 79 87 80
f 88 121 122
f 88 122 123
f 88 123 89
f 89 123 124
f 91 125 126
f 91 126 92
f 92 126 93
f 93 127 94
f 93 126 127
f 94 127 128
f 94 128 95
f 95 128 129
f 95 129 96
f 96 129 130
f 96 130 97
f 97 130 131
f 97 131 102
f 98 132 99
f 98 104 132
f 99 132 100
f 100 132 133
f 100 133 134
f 100 134 101
f 101 134 135
f 101 135 136
f 101 136 137
f 101 137 109
f 102 131 138
f 102 138 103
f 103 138 139
f 103 139 140
f 103 140 107
f 104 105 141
f 104 141 142
f 104 142 143
f 104 143 132
f 105 106 144
f 105 144 141
f 106 108 145
f 106 145 144
f 107 140 108
f 108 140 146
f 108 146 147
f 108 147 145
f 109 137 148
f 109 148 110
f 110 148 149
f 110 149 111
f 111 149 113
f 111 113 112
f 113 149 150
f 113 150 116
f 113 116 115
f 113 115 114
f 116 118 117
f 116 150 151
f 116 151 118
f 118 151 152
f 118 152 120
f 119 122 121
f 119 120 122
f 120 153 154
f 120 154 123
f 120 123 122
f 120 152 151
f 120 151 153
f 123 154 155
f 123 155 156
f 123 156 157
f 123 157 158
f 123 158 159
f 123 159 124
f 125 160 126
f 126 161 162
f 126 162 127
f 126 160 161
f 127 162 163
f 127 163 128
f 128 163 164
f 128 164 165
f 128 165 129
f 129 165 166
f 129 166 167
f 129 167 168
f 129 168 130
f 130 168 131
f 131 168 169
f 131 169 138
f 132 170 133
f 132 143 170
f 133 170 171
f 133 171 172
f 133 172 173
f 133 173 134
f 134 173 174
f 134 174 135
f 135 174 175
f 135 175 176
f 135 176 136
f 136 176 177
f 136 177 178
f 136 178 137
f 137 178 148
f 138 169 179
f 138 179 180
f 138 180 139
f 139 180 140
f 140 180 181
f 140 181 182
f 140 182 146
f 141 183 142
f 141 144 184
f 141 184 183
f 142 183 143
f 143 183 170
f 144 145 184
f 145 147 185
f 145 185 184
f 146 182 186
f 146 186 147
f 147 186 187
f 147 187 185
f 148 178 188
f 148 188 189
f 148 189 149
f 149 189 151
f 149 151 150
f 151 189 190
f 151 190 191
f 151 191 153
f 153 192 193
f 153 193 154
f 153 191 192
f 154 193 194
f 154 194 155
f 160 195 161
f 161 195 196
f 161 196 197
f 161 197 198
f 161 198 199
f 161 199 200
f 161 200 162
f 162 200 163
f 163 200 164
f 164 200 201
f 164 201 202
f 164 202 165
f 165 202 166
f 166 203 204
f 166 204 167
f 166 202 203
f 167 204 205
f 167 205 168
f 168 205 206
f 168 206 207
f 168 207 208
f 168 208 169
f 169 208 209
f 169 209 179
f 170 210 171
f 170 183 211
f 170 211 212
f 170 212 210
f 171 210 213
f 171 213 214
f 171 214 215
f 171 215 216
f 171 216 172
f 172 216 217
f 172 217 175
f 172 175 174
f 172 174 173
f 175 218 219
f 175 219 176
f 175 217 218
f 176 188 177
f 176 219 189
f 176 189 188
f 177 188 178
f 179 209 180
f 180 209 220
f 180 220 221
f 180 221 181
f 181 221 222
f 181 222 182
f 182 222 186
f 183 184 211
f 184 185 223
f 184 223 224
f 184 224 211
f 185 187 223
f 186 222 225
f 186 225 187
f 187 225 226
f 187 226 227
f 187 227 228
f 187 228 223
f 189 229 230
f 189 230 231
f 189 231 232
f 189 232 233
f 189 233 190
f 189 219 229
f 190 234 235
f 190 235 191
f 190 233 234
f 191 235 236
f 191 236 192
f 192 236 237
f 192 237 238
f 192 238 193
f 193 238 239
f 193 239 240
f 193 240 194
f 194 241 242
f 194 240 241
f 198 243 199
f 199 243 244
f 199 244 201
f 199 201 200
f 201 244 243
f 201 243 245
f 201 245 246
f 201 246 202
f 202 246 203
f 203 246 247
f 203 247 248
f 203 248 204
f 204 248 249
f 204 249 205
f 205 249 250
f 205 250 206
f 206 250 251
f 206 251 252
f 206 252 207
f 207 253 208
f 207 252 253
f 208 253 209
f 209 253 254
f 209 254 220
f 210 212 255
f 210 255 213
f 211 224 256
f 211 256 257
f 211 257 212
f 212 257 255
f 213 258 214
f 213 255 258
f 214 258 259
f 214 259 260
f 214 260 215
f 215 260 261
f 215 261 262
f 215 262 263
f 215 263 264
f 215 264 265
f 215 265 216
f 216 265 266
f 216 266 267
f 216 267 217
f 217 267 218
f 218 267 268
f 218 268 219
f 219 268 269
f 219 269 229
f 220 254 270
f 220 270 271
f 220 271 272
f 220 272 273
f 220 273 222
f 220 222 221
f 222 273 274
f 222 274 275
f 222 275 225
f 223 256 224
f 223 228 227
f 223 227 276
f 223 276 277
f 223 277 256
f 225 275 226
f 226 275 227
f 227 275 278
f 227 278 279
f 227 279 280
f 227 280 281
f 227 281 276
f 229 282 230
f 229 269 282
f 230 283 231
f 230 282 284
f 230 284 283
f 231 283 285
f 231 285 286
f 231 286 232
f 232 234 233
f 232 286 238
f 232 238 234
f 234 236 235
f 234 238 236
f 236 238 237
f 238 286 287
f 238 287 239
f 239 287 240
f 240 287 288
f 240 288 241
f 241 289 290
f 241 290 291
f 241 291 242
f 241 288 292
f 241 292 289
f 243 293 245
f 245 293 246
f 246 293 294
f 246 294 247
f 247 294 295
f 247 295 296
f 247 296 248
f 248 296 297
f 248 297 250
f 248 250 249
f 250 298 299
f 250 299 251
f 250 297 298
f 251 299 300
f 251 300 301
f 251 301 252
f 252 301 302
f 252 302 253
f 253 302 254
f 254 302 270
f 255 257 303
f 255 303 258
f 256 277 304
f 256 304 305
f 256 305 257
f 257 305 303
f 258 303 306
f 258 306 259
f 259 306 307
f 259 307 308
f 259 308 260
f 260 308 261
f 261 309 262
f 261 308 307
f 261 307 310
f 261 310 311
f 261 311 309
f 262 309 312
f 262 312 263
f 263 313 314
f 263 314 264
f 263 312 309
f 263 309 315
f 263 315 313
f 264 314 265
f 265 314 316
f 265 316 266
f 266 316 267
f 267 316 317
f 267 317 268
f 268 317 318
f 268 318 319
f 268 319 320
f 268 320 284
f 268 284 269
f 269 284 282
f 270 302 321
f 270 321 322
f 270 322 271
f 271 322 272
f 272 323 274
f 272 274 273
f 272 322 324
f 272 324 323
f 274 323 275
f 275 323 325
f 275 325 278
f 276 281 277
f 277 281 326
f 277 326 304
f 278 325 327
f 278 327 279
f 279 328 329
f 279 329 280
f 279 327 330
f 279 330 331
f 279 331 332
f 279 332 333
f 279 333 334
f 279 334 328
f 280 329 335
f 280 335 336
f 280 336 337
f 280 337 304
f 280 304 326
f 280 326 281
f 283 284 285
f 284 338 339
f 284 339 340
f 284 340 285
f 284 320 338
f 285 340 286
f 286 340 341
f 286 341 287
f 287 341 342
f 287 342 292
f 287 292 288
f 289 343 290
f 289 292 343
f 290 343 344
f 292 342 345
f 292 345 346
f 292 346 347
f 292 347 343
f 294 348 295
f 295 348 296
f 296 349 297
f 296 348 350
f 296 350 349
f 297 349 298
f 298 349 351
f 298 351 352
f 298 352 299
f 299 352 353
f 299 353 300
f 300 354 301
f 300 353 355
f 300 355 354
f 301 354 321
f 301 321 302
f 303 305 356
f 303 356 306
f 304 337 356
f 304 356 305
f 306 356 307
f 307 356 357
f 307 357 358
f 307 358 311
f 307 311 310
f 309 359 315
f 309 311 360
f 309 360 359
f 311 358 328
f 311 328 361
f 311 361 362
f 311 362 360
f 313 315 363
f 313 363 364
f 313 364 365
f 313 365 314
f 314 366 367
f 314 367 368
f 314 368 316
f 314 365 366
f 315 359 363
f 316 368 367
f 316 367 369
f 316 369 370
f 316 370 317
f 317 371 318
f 317 370 371
f 318 371 319
f 319 372 373
f 319 373 374
f 319 374 375
f 319 375 338
f 319 338 320
f 319 371 370
f 319 370 369
f 319 369 376
f 319 376 377
f 319 377 378
f 319 378 372
f 321 379 322
f 321 354 380
f 321 380 379
f 322 379 381
f 322 381 382
f 322 382 324
f 323 324 383
f 323 383 325
f 324 382 384
f 324 384 385
f 324 385 383
f 325 330 327
f 325 383 386
f 325 386 330
f 328 362 361
f 328 358 357
f 328 357 335
f 328 335 329
f 328 334 362
f 330 386 331
f 331 386 332
f 332 387 388
f 332 388 333
f 332 386 385
f 332 385 389
f 332 389 390
f 332 390 387
f 333 388 334
f 334 388 362
f 335 357 391
f 335 391 337
f 335 337 336
f 337 391 356
f 338 375 339
f 339 375 392
f 339 392 341
f 339 341 340
f 341 392 342
f 342 392 393
f 342 393 345
f 343 347 394
f 343 394 395
f 343 395 396
f 343 396 344
f 344 396 397
f 345 398 346
f 345 393 392
f 345 392 375
f 345 375 398
f 346 398 399
f 346 399 400
f 346 400 401
f 346 401 402
f 346 402 347
f 347 402 401
f 347 401 394
f 349 350 351
f 351 403 352
f 352 403 404
f 352 404 405
f 352 405 353
f 353 405 355
f 354 355 406
f 354 406 380
f 355 405 407
f 355 407 406
f 356 391 357
f 359 408 409
f 359 409 363
f 359 360 410
f 359 410 408
f 360 362 410
f 362 411 410
f 362 388 412
f 362 412 411
f 363 409 364
f 364 409 413
f 364 413 365
f 365 413 409
f 365 409 414
f 365 414 415
f 365 415 416
f 365 416 417
f 365 417 418
f 365 418 419
f 365 419 366
f 366 419 367
f 367 419 420
f 367 420 376
f 367 376 369
f 372 421 373
f 372 378 422
f 372 422 421
f 373 421 423
f 373 423 424
f 373 424 374
f 374 424 425
f 374 425 426
f 374 426 427
f 374 427 375
f 375 427 399
f 375 399 398
f 376 420 377
f 377 420 428
f 377 428 429
f 377 429 378
f 378 429 422
f 379 380 381
f 380 406 430
f 380 430 381
f 381 430 431
f 381 431 382
f 382 432 384
f 382 431 432
f 383 385 386
f 384 432 389
f 384 389 385
f 387 433 388
f 387 390 433
f 388 433 412
f 389 432 390
f 390 432 431
f 390 431 434
f 390 434 435
f 390 435 436
f 390 436 437
f 390 437 438
f 390 438 439
f 390 439 412
f 390 412 433
f 394 401 440
f 394 440 395
f 395 441 442
f 395 442 443
f 395 443 444
f 395 444 445
f 395 445 446
f 395 446 397
f 395 397 396
f 395 440 447
f 395 447 441
f 399 427 426
f 399 426 448
f 399 448 400
f 400 448 449
f 400 449 440
f 400 440 401
f 404 450 405
f 405 451 407
f 405 450 452
f 405 452 451
f 406 407 453
f 406 453 430
f 407 451 454
f 407 454 453
f 408 455 409
f 408 410 411
f 408 411 455
f 409 456 415
f 409 415 414
f 409 455 457
f 409 457 456
f 411 412 458
f 411 458 459
f 411 459 455
f 412 439 460
f 412 460 461
f 412 461 458
f 415 456 416
f 416 462 463
f 416 463 464
f 416 464 418
f 416 418 417
f 416 456 465
f 416 465 462
f 418 428 420
f 418 420 419
f 418 464 466
f 418 466 467
f 418 467 429
f 418 429 428
f 421 422 468
f 421 468 469
f 421 469 423
f 422 429 467
f 422 467 468
f 423 469 470
f 423 470 471
f 423 471 472
f 423 472 424
f 424 472 473
f 424 473 474
f 424 474 425
f 425 474 426
f 426 475 448
f 426 474 475
f 430 453 476
f 430 476 431
f 431 476 477
f 431 477 434
f 434 477 478
f 434 478 435
f 435 478 479
f 435 479 436
f 436 480 481
f 436 481 438
f 436 438 437
f 436 479 482
f 436 482 480
f 438 483 439
f 438 481 483
f 439 484 460
f 439 483 484
f 440 449 447
f 441 485 486
f 441 486 487
f 441 487 442
f 441 447 449
f 441 449 488
f 441 488 485
f 442 487 443
f 443 489 444
f 443 487 489
f 444 489 490
f 444 490 491
f 444 491 445
f 445 491 492
f 445 492 493
f 445 493 494
f 445 494 495
f 448 496 449
f 448 475 496
f 449 496 488
f 451 452 454
f 452 497 454
f 453 454 498
f 453 498 476
f 454 497 499
f 454 499 498
f 455 500 501
f 455 501 457
f 455 459 500
f 456 457 501
f 456 501 502
f 456 502 465
f 458 461 459
f 459 461 503
f 459 503 504
f 459 504 500
f 460 505 506
f 460 506 461
f 460 484 483
f 460 483 505
f 461 507 503
f 461 506 507
f 462 508 509
f 462 509 463
f 462 465 510
f 462 510 508
f 463 509 511
f 463 511 464
f 464 511 466
f 465 502 512
f 465 512 513
f 465 513 510
f 466 511 514
f 466 514 515
f 466 515 468
f 466 468 467
f 468 516 469
f 468 515 516
f 469 517 470
f 469 516 518
f 469 518 517
f 470 517 519
f 470 519 520
f 470 520 471
f 471 520 521
f 471 521 522
f 471 522 523
f 471 523 473
f 471 473 472
f 473 523 524
f 473 524 475
f 473 475 474
f 475 524 496
f 476 498 525
f 476 525 526
f 476 526 477
f 477 527 478
f 477 526 528
f 477 528 527
f 478 527 529
f 478 529 479
f 479 529 482
f 480 482 530
f 480 530 531
f 480 531 532
f 480 532 533
f 480 533 481
f 481 533 483
f 482 529 530
f 483 533 534
f 483 534 505
f 485 488 535
f 485 535 486
f 486 535 536
f 486 536 487
f 487 536 537
f 487 537 489
f 488 496 538
f 488 538 535
f 489 537 539
f 489 539 490
f 490 540 491
f 490 539 541
f 490 541 540
f 491 540 492
f 492 540 493
f 493 540 542
f 493 542 543
f 493 543 544
f 493 544 494
f 494 544 545
f 494 545 495
f 495 545 546
f 496 524 538
f 497 547 499
f 498 499 525
f 499 547 525
f 500 548 501
f 500 504 548
f 501 512 502
f 501 548 512
f 503 507 549
f 503 549 550
f 503 550 504
f 504 550 551
f 504 551 552
f 504 552 548
f 505 553 506
f 505 534 553
f 506 553 554
f 506 554 555
f 506 555 507
f 507 555 556
f 507 556 557
f 507 557 549
f 508 558 559
f 508 559 560
f 508 560 509
f 508 510 513
f 508 513 561
f 508 561 558
f 509 560 562
f 509 562 511
f 511 562 514
f 512 548 563
f 512 563 513
f 513 564 561
f 513 563 565
f 513 565 566
f 513 566 564
f 514 562 567
f 514 567 568
f 514 568 518
f 514 518 516
f 514 516 515
f 517 518 568
f 517 568 519
f 519 569 570
f 519 570 520
f 519 568 569
f 520 570 521
f 521 570 571
f 521 571 572
f 521 572 522
f 522 572 573
f 522 573 523
f 523 573 574
f 523 574 524
f 524 574 538
f 525 575 576
f 525 576 526
f 525 547 577
f 525 577 575
f 526 578 528
f 526 576 578
f 527 528 579
f 527 579 529
f 528 578 579
f 529 579 580
f 529 580 581
f 529 581 530
f 530 581 582
f 530 582 531
f 531 583 584
f 531 584 585
f 531 585 532
f 531 582 583
f 532 586 534
f 532 534 533
f 532 585 586
f 534 586 587
f 534 587 553
f 535 538 574
f 535 574 573
f 535 573 536
f 536 573 588
f 536 588 537
f 537 588 589
f 537 589 539
f 539 589 590
f 539 590 541
f 540 541 591
f 540 591 542
f 541 590 592
f 541 592 591
f 542 591 593
f 542 593 543
f 543 593 594
f 543 594 544
f 544 594 595
f 544 595 545
f 545 595 596
f 545 596 546
f 548 552 563
f 549 557 597
f 549 597 551
f 549 551 550
f 551 597 565
f 551 565 563
f 551 563 552
f 553 587 598
f 553 598 554
f 554 598 599
f 554 599 556
f 554 556 555
f 556 599 600
f 556 600 557
f 557 601 597
f 557 600 601
f 558 602 603
f 558 603 559
f 558 561 564
f 558 564 604
f 558 604 602
f 559 603 605
f 559 605 560
f 560 605 606
f 560 606 562
f 562 606 567
f 564 566 607
f 564 607 608
f 564 608 604
f 565 597 609
f 565 609 566
f 566 609 607
f 567 610 611
f 567 611 568
f 567 606 605
f 567 605 610
f 568 611 569
f 569 611 612
f 569 612 613
f 569 613 570
f 570 613 614
f 570 614 571
f 571 614 572
f 572 615 588
f 572 588 573
f 572 614 615
f 575 616 578
f 575 578 576
f 575 577 617
f 575 617 618
f 575 618 616
f 578 616 579
f 579 616 580
f 580 616 618
f 580 618 619
f 580 619 620
f 580 620 621
f 580 621 581
f 581 621 622
f 581 622 623
f 581 623 582
f 582 623 624
f 582 624 583
f 583 624 625
f 583 625 626
f 583 626 584
f 584 627 585
f 584 626 628
f 584 628 629
f 584 629 630
f 584 630 631
f 584 631 627
f 585 627 586
f 586 627 632
f 586 632 587
f 587 632 633
f 587 633 598
f 588 615 589
f 589 615 590
f 590 615 634
f 590 634 592
f 591 592 593
f 592 634 635
f 592 635 636
f 592 636 593
f 593 636 637
f 593 637 594
f 594 637 638
f 594 638 595
f 595 638 639
f 595 639 640
f 595 640 596
f 597 601 609
f 598 633 641
f 598 641 599
f 599 642 600
f 599 641 642
f 600 642 643
f 600 643 601
f 601 643 644
f 601 644 609
f 602 604 645
f 602 645 646
f 602 646 647
f 602 647 603
f 603 647 648
f 603 648 649
f 603 649 650
f 603 650 651
f 603 651 652
f 603 652 653
f 603 653 605
f 604 608 654
f 604 654 655
f 604 655 646
f 604 646 645
f 605 653 610
f 607 609 644
f 607 644 656
f 607 656 657
f 607 657 658
f 607 658 608
f 608 658 659
f 608 659 654
f 610 660 661
f 610 661 611
f 610 653 660
f 611 661 612
f 612 661 662
f 612 662 613
f 613 663 664
f 613 664 614
f 613 662 663
f 614 664 634
f 614 634 615
f 621 665 622
f 622 665 666
f 622 666 623
f 623 666 667
f 623 667 668
f 623 668 624
f 624 668 669
f 624 669 670
f 624 670 625
f 625 670 626
f 626 670 671
f 626 671 672
f 626 672 673
f 626 673 674
f 626 674 628
f 627 631 632
f 628 674 673
f 628 673 675
f 628 675 630
f 628 630 629
f 630 675 676
f 630 676 677
f 630 677 631
f 631 677 678
f 631 678 632
f 632 678 633
f 633 679 641
f 633 678 679
f 634 664 635
f 635 680 636
f 635 664 681
f 635 681 680
f 636 680 682
f 636 682 683
f 636 683 637
f 637 683 684
f 637 684 638
f 638 684 685
f 638 685 686
f 638 686 639
f 639 686 687
f 639 687 640
f 641 679 688
f 641 688 642
f 642 688 643
f 643 689 656
f 643 656 644
f 643 688 689
f 646 655 647
f 647 655 649
f 647 649 648
f 649 655 690
f 649 690 650
f 650 691 692
f 650 692 693
f 650 693 651
f 650 690 691
f 651 694 652
f 651 693 694
f 652 695 696
f 652 696 697
f 652 697 653
f 652 694 695
f 653 697 696
f 653 696 698
f 653 698 660
f 654 659 699
f 654 699 690
f 654 690 655
f 656 700 701
f 656 701 657
f 656 689 700
f 657 701 702
f 657 702 658
f 658 702 703
f 658 703 659
f 659 703 699
f 660 698 704
f 660 704 661
f 661 704 662
f 662 704 705
f 662 705 706
f 662 706 663
f 663 706 681
f 663 681 664
f 665 707 666
f 666 707 667
f 669 708 670
f 670 708 671
f 672 709 673
f 673 710 711
f 673 711 712
f 673 712 675
f 673 709 710
f 675 713 714
f 675 714 676
f 675 712 713
f 676 714 715
f 676 715 716
f 676 716 677
f 677 716 717
f 677 717 678
f 678 717 679
f 679 717 718
f 679 718 688
f 680 681 719
f 680 719 720
f 680 720 682
f 681 706 721
f 681 721 719
f 682 720 722
f 682 722 723
f 682 723 683
f 683 723 724
f 683 724 684
f 684 724 725
f 684 725 726
f 684 726 685
f 685 726 727
f 685 727 728
f 685 728 686
f 688 718 729
f 688 729 730
f 688 730 689
f 689 730 731
f 689 731 700
f 690 732 691
f 690 699 732
f 691 733 734
f 691 734 692
f 691 732 733
f 692 734 735
f 692 735 736
f 692 736 694
f 692 694 693
f 694 736 695
f 695 736 737
f 695 737 738
f 695 738 739
f 695 739 696
f 696 739 740
f 696 740 704
f 696 704 698
f 699 703 741
f 699 741 742
f 699 742 743
f 699 743 744
f 699 744 745
f 699 745 732
f 700 731 701
f 701 731 746
f 701 746 747
f 701 747 702
f 702 747 703
f 703 748 741
f 703 747 748
f 704 740 705
f 705 740 749
f 705 749 706
f 706 749 721
f 711 750 751
f 711 751 752
f 711 752 712
f 712 752 713
f 713 753 754
f 713 754 714
f 713 752 755
f 713 755 753
f 714 754 715
f 715 754 756
f 715 756 757
f 715 757 716
f 716 757 717
f 717 757 758
f 717 758 718
f 718 758 729
f 719 721 759
f 719 759 720
f 720 759 722
f 721 749 759
f 722 760 723
f 722 759 761
f 722 761 762
f 722 762 763
f 722 763 760
f 723 760 725
f 723 725 724
f 725 760 764
f 725 764 765
f 725 765 766
f 725 766 726
f 726 766 727
f 727 766 767
f 729 758 757
f 729 757 768
f 729 768 769
f 729 769 731
f 729 731 730
f 731 769 746
f 732 745 733
f 733 770 771
f 733 771 734
f 733 745 744
f 733 744 772
f 733 772 770
f 734 773 735
f 734 771 773
f 735 774 775
f 735 775 736
f 735 773 774
f 736 775 737
f 737 775 776
f 737 776 738
f 738 776 777
f 738 777 778
f 738 778 739
f 739 778 749
f 739 749 740
f 741 748 779
f 741 779 780
f 741 780 742
f 742 780 781
f 742 781 782
f 742 782 783
f 742 783 784
f 742 784 743
f 743 784 785
f 743 785 786
f 743 786 787
f 743 787 744
f 744 787 772
f 746 769 788
f 746 788 748
f 746 748 747
f 748 788 789
f 748 789 779
f 749 778 759
f 750 790 751
f 751 791 792
f 751 792 793
f 751 793 794
f 751 794 795
f 751 795 796
f 751 796 755
f 751 755 752
f 751 790 791
f 753 755 797
f 753 797 756
f 753 756 754
f 755 796 797
f 756 797 798
f 756 798 799
f 756 799 768
f 756 768 757
f 759 778 761
f 760 763 800
f 760 800 764
f 761 778 777
f 761 777 762
f 762 800 763
f 762 777 801
f 762 801 802
f 762 802 800
f 764 800 803
f 764 803 804
f 764 804 765
f 765 805 806
f 765 806 766
f 765 804 805
f 766 806 807
f 766 807 767
f 768 799 769
f 769 799 808
f 769 808 789
f 769 789 788
f 770 772 787
f 770 787 809
f 770 809 810
f 770 810 771
f 771 810 773
f 773 810 811
f 773 811 774
f 774 811 812
f 774 812 813
f 774 813 775
f 775 813 776
f 776 801 777
f 776 813 801
f 779 789 808
f 779 808 780
f 780 808 814
f 780 814 815
f 780 815 781
f 781 815 816
f 781 816 817
f 781 817 818
f 781 818 819
f 781 819 782
f 782 819 820
f 782 820 821
f 782 821 783
f 783 821 784
f 784 821 785
f 785 821 822
f 785 822 823
f 785 823 824
f 785 824 825
f 785 825 786
f 786 825 809
f 786 809 787
f 790 792 791
f 793 826 794
f 794 827 795
f 794 826 828
f 794 828 829
f 794 829 830
f 794 830 831
f 794 831 832
f 794 832 833
f 794 833 834
f 794 834 835
f 794 835 827
f 795 827 796
f 796 827 836
f 796 836 837
f 796 837 797
f 797 837 798
f 798 837 808
f 798 808 799
f 800 802 838
f 800 838 803
f 801 813 839
f 801 839 802
f 802 839 840
f 802 840 838
f 803 838 841
f 803 841 842
f 803 842 843
f 803 843 844
f 803 844 845
f 803 845 804
f 804 845 846
f 804 846 805
f 805 807 806
f 808 837 835
f 808 835 847
f 808 847 848
f 808 848 815
f 808 815 814
f 809 849 850
f 809 850 810
f 809 825 849
f 810 850 851
f 810 851 811
f 811 852 812
f 811 851 852
f 812 853 839
f 812 839 813
f 812 852 853
f 815 848 854
f 815 854 816
f 816 854 855
f 816 855 856
f 816 856 817
f 817 856 857
f 817 857 858
f 817 858 859
f 817 859 818
f 818 859 860
f 818 860 820
f 818 820 819
f 820 860 821
f 821 860 861
f 821 861 822
f 822 861 862
f 822 862 823
f 823 863 824
f 823 862 863
f 824 863 864
f 824 864 865
f 824 865 825
f 825 865 849
f 826 829 828
f 827 835 866
f 827 866 836
f 830 867 831
f 831 867 868
f 831 868 869
f 831 869 832
f 832 869 833
f 833 869 870
f 833 870 871
f 833 871 872
f 833 872 834
f 834 872 847
f 834 847 835
f 835 837 866
f 836 866 837
f 838 840 873
f 838 873 874
f 838 874 841
f 839 853 840
f 840 853 875
f 840 875 873
f 841 874 876
f 841 876 842
f 842 844 843
f 844 877 845
f 845 877 846
f 847 872 878
f 847 878 879
f 847 879 848
f 848 879 854
f 849 865 880
f 849 880 881
f 849 881 851
f 849 851 850
f 851 881 882
f 851 882 883
f 851 883 852
f 852 883 884
f 852 884 853
f 853 884 875
f 854 879 855
f 855 885 886
f 855 886 887
f 855 887 857
f 855 857 856
f 855 879 885
f 857 887 888
f 857 888 858
f 858 889 890
f 858 890 859
f 858 888 889
f 859 890 891
f 859 891 861
f 859 861 860
f 861 892 862
f 861 891 892
f 862 892 893
f 862 893 863
f 863 893 894
f 863 894 895
f 863 895 864
f 864 895 865
f 865 895 880
f 867 896 868
f 868 870 897
f 868 897 869
f 868 896 898
f 868 898 899
f 868 899 900
f 868 900 870
f 869 897 870
f 870 901 871
f 870 900 902
f 870 902 903
f 870 903 904
f 870 904 905
f 870 905 901
f 871 901 872
f 872 901 906
f 872 906 907
f 872 907 878
f 873 875 908
f 873 908 909
f 873 909 874
f 874 909 876
f 875 884 910
f 875 910 911
f 875 911 908
f 878 907 885
f 878 885 879
f 880 895 882
f 880 882 881
f 882 912 913
f 882 913 883
f 882 895 914
f 882 914 915
f 882 915 912
f 883 913 884
f 884 913 910
f 885 907 886
f 886 907 916
f 886 916 889
f 886 889 917
f 886 917 888
f 886 888 887
f 888 917 889
f 889 918 919
f 889 919 920
f 889 920 890
f 889 916 918
f 890 920 891
f 891 920 892
f 892 921 893
f 892 920 921
f 893 921 894
f 894 921 922
f 894 922 923
f 894 923 895
f 895 923 914
f 899 924 900
f 900 924 925
f 900 925 902
f 901 905 926
f 901 926 906
f 902 927 928
f 902 928 929
f 902 929 903
f 902 925 930
f 902 930 927
f 903 929 904
f 904 929 905
f 905 929 931
f 905 931 926
f 906 926 907
f 907 926 931
f 907 931 932
f 907 932 918
f 907 918 916
f 908 911 933
f 908 933 909
f 909 933 934
f 910 935 911
f 910 913 912
f 910 912 936
f 910 936 935
f 911 935 933
f 912 915 936
f 914 923 915
f 915 937 936
f 915 923 938
f 915 938 937
f 918 939 940
f 918 940 941
f 918 941 919
f 918 932 939
f 919 941 942
f 919 942 920
f 920 942 921
f 921 942 943
f 921 943 922
f 922 944 923
f 922 943 944
f 923 945 938
f 923 944 945
f 927 946 928
f 928 946 947
f 928 947 948
f 928 948 929
f 929 948 949
f 929 949 939
f 929 939 931
f 931 939 932
f 933 935 950
f 933 950 934
f 935 936 951
f 935 951 952
f 935 952 950
f 936 937 951
f 937 938 953
f 937 953 954
f 937 954 955
f 937 955 956
f 937 956 951
f 938 945 953
f 939 949 957
f 939 957 940
f 940 957 941
f 941 957 958
f 941 958 959
f 941 959 942
f 942 959 943
f 943 959 960
f 943 960 961
f 943 961 944
f 944 961 962
f 944 962 945
f 945 963 953
f 945 962 964
f 945 964 963
f 947 965 948
f 948 966 967
f 948 967 958
f 948 958 957
f 948 957 949
f 948 965 966
f 951 956 968
f 951 968 952
f 953 963 954
f 954 963 969
f 958 967 960
f 958 960 959
f 960 970 971
f 960 971 962
f 960 962 961
f 960 967 972
f 960 972 970
f 962 971 973
f 962 973 964
f 963 964 969
f 966 972 967
f 970 973 971

