# Created by Open3D 
# object name: Pot061_collision_7_0
# number of vertices: 34
# number of triangles: 64
v 0.0640478 -0.10925 0.132223
v 0.0640478 -0.108643 0.0840187
v 3.231e-05 -0.127213 0.128261
v 3.231e-05 -0.138859 0.14235
v 3.231e-05 -0.134439 0.142425
v 0.0217948 -0.135882 0.142939
v 3.231e-05 -0.12739 0.132223
v 0.0640478 -0.110126 0.134899
v 3.231e-05 -0.126903 0.100519
v 3.231e-05 -0.126849 0.0840187
v 0.0160049 -0.138685 0.138007
v 3.231e-05 -0.133973 0.0840187
v 3.231e-05 -0.139359 0.136185
v 0.0198147 -0.132361 0.0840187
v 0.0237749 -0.137248 0.136185
v 0.0361068 -0.134836 0.137396
v 3.231e-05 -0.129143 0.135372
v 3.231e-05 -0.139359 0.140147
v 0.0257551 -0.136881 0.140147
v 0.0138744 -0.133179 0.0840187
v 0.0340766 -0.134728 0.142076
v 0.0336756 -0.129297 0.0840187
v 0.0119569 -0.138673 0.142137
v 0.0475427 -0.130743 0.142131
v 0.0598871 -0.125547 0.136185
v 0.0640478 -0.116985 0.0840187
v 0.0518851 -0.122999 0.0840187
v 0.0640478 -0.123568 0.138166
v 0.0640478 -0.118979 0.142708
v 0.0480565 -0.130938 0.137494
v 0.0599905 -0.125047 0.142371
v 0.0640478 -0.11838 0.142489
v 0.0576782 -0.126843 0.140147
v 0.0495212 -0.128611 0.142764
f 1 2 3
f 5 4 6
f 7 1 3
f 1 7 8
f 10 9 2
f 2 9 3
f 12 11 13
f 11 14 15
f 14 16 15
f 17 5 8
f 7 17 8
f 11 18 13
f 19 11 15
f 16 19 15
f 20 11 12
f 20 14 11
f 21 19 16
f 22 16 14
f 18 23 4
f 23 18 11
f 19 23 11
f 4 23 6
f 23 21 6
f 21 23 19
f 24 21 16
f 26 25 27
f 28 25 26
f 29 5 6
f 25 30 27
f 30 22 27
f 22 30 16
f 30 24 16
f 29 31 28
f 5 32 8
f 29 32 5
f 33 25 28
f 33 30 25
f 31 33 28
f 30 33 24
f 33 31 24
f 31 34 24
f 21 34 6
f 24 34 21
f 34 29 6
f 34 31 29
f 18 12 13
f 17 18 5
f 18 7 3
f 18 10 12
f 18 4 5
f 9 18 3
f 18 9 10
f 18 17 7
f 10 22 12
f 22 10 2
f 26 22 2
f 22 26 27
f 22 20 12
f 20 22 14
f 32 26 2
f 1 32 2
f 32 1 8
f 32 28 26
f 32 29 28
