# Created by Open3D 
# object name: Pot061_collision_3_0
# number of vertices: 34
# number of triangles: 64
v 0.124673 0.0534751 0.142702
v 0.0613155 0.123738 0.142737
v 0.0613155 0.120815 0.142742
v 0.116808 0.0534751 0.135357
v 0.0613155 0.112724 0.135598
v 0.0613155 0.11081 0.132216
v 0.115251 0.0534751 0.132222
v 0.127242 0.0547511 0.142518
v 0.128661 0.0534751 0.138164
v 0.114476 0.0534751 0.102515
v 0.0613155 0.110207 0.0840187
v 0.114651 0.0534751 0.0840187
v 0.0693448 0.120668 0.136185
v 0.0613155 0.118375 0.0840187
v 0.0613155 0.125099 0.140148
v 0.0793534 0.114968 0.137928
v 0.0676426 0.115066 0.0840187
v 0.0817319 0.105401 0.0840187
v 0.0834044 0.111077 0.142265
v 0.0901637 0.106145 0.138167
v 0.0944884 0.094517 0.0840187
v 0.116835 0.0752755 0.14179
v 0.108289 0.0865771 0.142371
v 0.125563 0.0534751 0.100539
v 0.115383 0.0681209 0.0840187
v 0.122773 0.0534751 0.0840187
v 0.0968389 0.0988164 0.142583
v 0.102376 0.0943803 0.140148
v 0.0985394 0.0985483 0.136185
v 0.105701 0.0820936 0.0840187
v 0.120061 0.0706729 0.136185
v 0.109188 0.0864983 0.136185
v 0.126129 0.059182 0.138164
v 0.114974 0.0793524 0.138247
f 1 2 3
f 4 5 6
f 4 6 7
f 5 4 3
f 4 1 3
f 8 1 9
f 10 6 11
f 12 10 11
f 6 10 7
f 13 14 15
f 16 13 15
f 17 16 18
f 13 17 14
f 17 13 16
f 2 19 15
f 19 16 15
f 18 20 21
f 16 20 18
f 19 20 16
f 8 22 23
f 25 24 26
f 27 23 28
f 20 27 28
f 27 20 19
f 27 19 2
f 1 27 2
f 8 27 1
f 27 8 23
f 20 29 21
f 29 20 28
f 29 30 21
f 31 24 25
f 32 29 28
f 29 32 30
f 24 33 9
f 31 33 24
f 33 31 22
f 33 8 9
f 33 22 8
f 31 34 22
f 22 34 23
f 34 31 25
f 23 34 28
f 34 32 28
f 30 34 25
f 32 34 30
f 5 14 11
f 5 2 15
f 2 5 3
f 14 5 15
f 6 5 11
f 24 4 7
f 1 24 9
f 10 24 7
f 24 12 26
f 4 24 1
f 24 10 12
f 14 30 11
f 30 18 21
f 12 30 26
f 17 30 14
f 30 12 11
f 30 25 26
f 30 17 18
