# Created by Open3D 
# object name: Pot061_collision_0_1
# number of vertices: 34
# number of triangles: 64
v -0.12228 1.181e-05 0.02025
v -0.0446388 -3.82e-06 0.0184158
v -0.0446388 -0.0430984 0.0194291
v -0.0793819 -0.0430984 0.02025
v -0.0446388 0.0372655 0.0164919
v -0.0931069 0.0372655 -0.00207447
v -0.0446388 0.0372655 -0.00212143
v -0.0446388 -0.0430984 -0.00212684
v -0.105274 0.0372655 0.0169589
v -0.117413 0.0372655 0.0147761
v -0.131233 1.181e-05 0.02025
v -0.120328 0.0372655 0.0102328
v -0.129621 -0.0165647 0.0186265
v -0.124202 -0.0430984 0.02025
v -0.126808 -0.000442775 0.0113319
v -0.126719 -0.0188092 0.0133546
v -0.126693 -0.0311398 0.0174429
v -0.122713 -0.0145601 0.00752988
v -0.118872 0.00087047 0.00342513
v -0.109072 0.0372655 0.00115423
v -0.114854 0.0317064 0.00345584
v -0.12457 0.0177911 0.0102328
v -0.100992 -0.017818 -0.00196963
v -0.0940355 -0.0430984 -0.00175179
v -0.10674 -0.0349154 -0.0004405
v -0.111035 -0.0430984 0.00336525
v -0.11046 -0.0089536 -0.00066866
v -0.120852 -0.0430984 0.0134614
v -0.11252 0.0192811 0.000741189
v -0.103114 0.0372655 -0.000941417
v -0.118325 -0.0158355 0.00385294
v -0.120996 -0.032251 0.00922795
v -0.10496 0.0138766 -0.00158351
v -0.118338 0.0158339 0.00385403
f 2 1 3
f 1 4 3
f 1 2 5
f 6 7 8
f 9 10 11
f 1 9 11
f 9 1 5
f 10 12 11
f 13 14 11
f 15 13 11
f 13 15 16
f 13 17 14
f 17 13 16
f 18 15 19
f 15 18 16
f 20 21 12
f 15 22 19
f 21 22 12
f 12 22 11
f 22 15 11
f 24 23 8
f 23 6 8
f 26 25 24
f 25 23 24
f 23 25 27
f 17 28 14
f 29 20 30
f 29 27 19
f 20 29 21
f 27 31 19
f 25 31 27
f 31 18 19
f 31 25 26
f 32 17 16
f 32 28 17
f 18 32 16
f 28 32 26
f 32 31 26
f 31 32 18
f 33 29 30
f 29 33 27
f 33 23 27
f 6 33 30
f 23 33 6
f 34 29 19
f 29 34 21
f 22 34 19
f 34 22 21
f 7 2 3
f 8 7 3
f 2 7 5
f 4 1 14
f 14 1 11
f 7 20 5
f 20 6 30
f 20 9 5
f 6 20 7
f 9 20 10
f 20 12 10
f 28 8 3
f 4 28 3
f 28 4 14
f 28 24 8
f 28 26 24
