# Created by Open3D 
# object name: Pot061_collision_19_0
# number of vertices: 34
# number of triangles: 64
v 0.169439 -0.0362807 0.134406
v 0.169439 -0.0343199 0.132309
v 0.147704 -0.0361825 0.129783
v 0.148575 -0.0495219 0.114505
v 0.169439 -0.0417018 0.115443
v 0.169439 -0.0534845 0.116294
v 0.137764 -0.0417771 0.116757
v 0.137764 -0.0399944 0.120269
v 0.146305 -0.0354704 0.117856
v 0.148575 -0.0348369 0.122323
v 0.169439 -0.0336101 0.128263
v 0.169439 -0.0348952 0.117566
v 0.145806 -0.055815 0.127362
v 0.14847 -0.0553528 0.130189
v 0.169439 -0.0568992 0.128263
v 0.137764 -0.051284 0.120025
v 0.147374 -0.0558903 0.117408
v 0.137764 -0.0495082 0.124323
v 0.152537 -0.0455616 0.132142
v 0.169439 -0.0455616 0.135132
v 0.148575 -0.0534845 0.115281
v 0.169439 -0.0559953 0.117653
v 0.137764 -0.0455616 0.115132
v 0.146581 -0.0395881 0.114391
v 0.169439 -0.0375954 0.115993
v 0.145974 -0.0353928 0.127142
v 0.137764 -0.0416424 0.124272
v 0.150556 -0.0566881 0.120342
v 0.137764 -0.0497182 0.116976
v 0.169439 -0.0557579 0.133406
v 0.169439 -0.0545618 0.134377
v 0.146119 -0.0524733 0.130465
v 0.137764 -0.0455616 0.126029
v 0.146119 -0.0388235 0.130467
f 1 2 3
f 4 5 6
f 7 8 9
f 10 11 12
f 9 10 12
f 14 13 15
f 13 16 17
f 16 13 18
f 1 19 20
f 21 4 6
f 22 21 6
f 21 22 17
f 4 21 23
f 24 25 5
f 4 24 5
f 24 4 23
f 7 24 23
f 24 7 9
f 25 24 12
f 24 9 12
f 10 26 11
f 11 26 2
f 2 26 3
f 27 26 8
f 26 27 3
f 8 26 9
f 26 10 9
f 28 22 15
f 22 28 17
f 13 28 15
f 28 13 17
f 16 29 17
f 21 29 23
f 29 21 17
f 30 14 15
f 30 31 14
f 32 31 20
f 19 32 20
f 31 32 14
f 32 33 18
f 13 32 18
f 32 13 14
f 34 27 33
f 27 34 3
f 32 34 33
f 34 32 19
f 34 1 3
f 34 19 1
f 29 7 23
f 33 29 18
f 7 29 8
f 29 27 8
f 29 16 18
f 27 29 33
f 22 30 15
f 30 1 20
f 30 25 12
f 11 30 12
f 5 30 6
f 1 30 2
f 30 11 2
f 25 30 5
f 30 22 6
f 31 30 20
