# Created by Open3D 
# object name: Pot061_collision_13_0
# number of vertices: 34
# number of triangles: 64
v -0.108652 -0.0651799 0.0840187
v -0.0613137 -0.110846 0.132227
v -0.0613137 -0.110237 0.0840187
v -0.109299 -0.0651799 0.132227
v -0.0678512 -0.121501 0.136184
v -0.0613137 -0.118256 0.0840187
v -0.0613137 -0.125068 0.140148
v -0.110153 -0.0651799 0.134867
v -0.121188 -0.0651799 0.142696
v -0.0978143 -0.0978147 0.142581
v -0.0613137 -0.123755 0.142736
v -0.0613137 -0.120824 0.142725
v -0.118091 -0.0651799 0.142661
v -0.111078 -0.0833996 0.142264
v -0.0677907 -0.121064 0.142345
v -0.0613137 -0.11274 0.135586
v -0.10622 -0.0902701 0.140148
v -0.119022 -0.0715931 0.142282
v -0.0675396 -0.115009 0.0840187
v -0.0901076 -0.106121 0.136184
v -0.081761 -0.105421 0.0840187
v -0.0946091 -0.0946315 0.0840187
v -0.0985297 -0.0985533 0.136184
v -0.10619 -0.0902466 0.136184
v -0.123113 -0.0651799 0.140148
v -0.0793681 -0.114979 0.137904
v -0.0944215 -0.102399 0.140148
v -0.114932 -0.0793019 0.137968
v -0.123125 -0.0651799 0.136184
v -0.0720653 -0.119329 0.140148
v -0.106223 -0.0815354 0.0840187
v -0.115398 -0.0681579 0.0840187
v -0.117038 -0.0651799 0.0840187
v -0.0834158 -0.111087 0.142276
f 1 2 3
f 2 1 4
f 5 6 7
f 8 2 4
f 9 10 11
f 12 9 11
f 9 12 13
f 9 14 10
f 11 15 7
f 8 16 2
f 16 8 13
f 12 16 13
f 14 17 10
f 18 14 9
f 5 19 6
f 21 20 22
f 20 23 22
f 23 24 22
f 17 24 23
f 25 18 9
f 19 26 21
f 26 19 5
f 26 20 21
f 20 27 23
f 27 17 23
f 17 27 10
f 26 27 20
f 18 28 14
f 28 17 14
f 28 24 17
f 28 25 29
f 25 28 18
f 30 5 7
f 30 26 5
f 15 30 7
f 24 31 22
f 28 31 24
f 33 32 29
f 32 28 29
f 32 31 28
f 34 27 26
f 30 34 26
f 34 30 15
f 27 34 10
f 10 34 11
f 34 15 11
f 16 11 7
f 16 6 3
f 6 16 7
f 2 16 3
f 16 12 11
f 25 8 4
f 33 25 1
f 1 25 4
f 8 25 13
f 25 33 29
f 25 9 13
f 6 32 3
f 19 32 6
f 32 1 3
f 32 33 1
f 32 21 22
f 32 19 21
f 31 32 22
