# Created by Open3D 
# object name: Pot061_collision_0_3
# number of vertices: 34
# number of triangles: 64
v -6.986e-05 -0.122802 0.02025
v 0.0419557 -0.0457412 0.0174451
v -0.0446388 -0.0457412 0.0194912
v 0.0419557 -0.0914049 0.0182478
v -6.986e-05 -0.131742 0.02025
v -0.0446388 -0.0780129 0.02025
v 0.0419557 -0.115077 0.0170119
v 0.0419557 -0.121566 0.0143243
v -0.0446388 -0.0893133 -0.0020483
v -0.0446388 -0.0457412 -0.00212684
v 0.0419557 -0.0457412 -0.00214992
v 0.0177849 -0.127802 0.0143243
v 0.0419557 -0.0919114 -0.0018336
v 0.0321805 -0.120945 0.00922685
v 0.00692451 -0.102951 -0.00180783
v -0.0178737 -0.130454 0.02025
v -0.0159153 -0.124639 0.00959433
v -0.00097276 -0.125343 0.00927347
v 6.44993e-06 -0.119089 0.00324194
v -0.0187893 -0.104372 -0.00146984
v -0.0446388 -0.102292 -0.00040265
v -0.0325237 -0.126969 0.0187538
v -0.0446388 -0.123462 0.02025
v 0.0160045 -0.122802 0.00738508
v -0.0237362 -0.116652 0.00359351
v -0.0446388 -0.114951 0.00733794
v 0.0419557 -0.115809 0.00728457
v 0.00795459 -0.11109 -0.00057213
v -0.0322058 -0.120983 0.00922685
v -0.0202645 -0.111603 0.000261547
v 0.0316464 -0.114821 0.00347339
v 0.0419557 -0.107827 0.00171602
v 0.0331979 -0.10674 -0.000454755
v 0.0158137 -0.118483 0.0037224
f 1 2 3
f 1 4 2
f 4 1 5
f 6 1 3
f 8 7 5
f 7 4 5
f 9 10 11
f 12 8 5
f 13 9 11
f 12 14 8
f 13 15 9
f 16 17 5
f 18 12 5
f 17 18 5
f 18 17 19
f 9 20 21
f 15 20 9
f 22 16 23
f 16 22 17
f 24 14 12
f 18 24 12
f 24 18 19
f 25 26 21
f 17 25 19
f 14 27 8
f 28 20 15
f 26 29 23
f 29 22 23
f 22 29 17
f 29 25 17
f 25 29 26
f 20 30 21
f 30 25 21
f 28 30 20
f 25 30 19
f 30 28 19
f 24 31 14
f 31 27 14
f 27 31 32
f 31 33 32
f 32 33 13
f 33 15 13
f 33 28 15
f 34 24 19
f 34 31 24
f 28 34 19
f 33 34 28
f 34 33 31
f 11 10 2
f 2 10 3
f 23 16 6
f 1 16 5
f 6 16 1
f 10 26 3
f 26 6 3
f 26 9 21
f 26 23 6
f 9 26 10
f 27 7 8
f 27 11 2
f 4 27 2
f 7 27 4
f 27 13 11
f 27 32 13
