# Created by Open3D 
# object name: Pot061_collision_9_0
# number of vertices: 34
# number of triangles: 64
v -0.0613709 0.110815 0.132227
v -0.110588 0.0637574 0.134545
v -0.109511 0.0637574 0.0840187
v -0.0613709 0.110185 0.0840187
v -0.0620228 0.111637 0.13512
v -0.0613709 0.119082 0.141793
v -0.118447 0.0637574 0.142448
v -0.115399 0.0681309 0.0840187
v -0.120504 0.0700147 0.136184
v -0.114983 0.0793734 0.137789
v -0.118091 0.0736877 0.140992
v -0.11109 0.0834169 0.142276
v -0.123882 0.0637574 0.136184
v -0.0677947 0.121065 0.142351
v -0.0613709 0.123732 0.142742
v -0.0613709 0.125046 0.140148
v -0.0834118 0.111091 0.142276
v -0.0793721 0.114985 0.137899
v -0.0613709 0.120804 0.142736
v -0.097814 0.0978136 0.142581
v -0.069334 0.120648 0.136184
v -0.0613709 0.118188 0.0840187
v -0.117768 0.0637574 0.0840187
v -0.0902671 0.10622 0.140148
v -0.122077 0.0637574 0.142742
v -0.0674305 0.114937 0.0840187
v -0.102414 0.0944345 0.140148
v -0.0795006 0.10715 0.0840187
v -0.08403 0.103706 0.0840187
v -0.0901385 0.10613 0.136184
v -0.0946067 0.0946175 0.0840187
v -0.106154 0.0814462 0.0840187
v -0.0985607 0.098583 0.136184
v -0.106193 0.0902501 0.136184
f 1 2 3
f 4 1 3
f 5 1 6
f 1 5 2
f 5 7 2
f 7 5 6
f 8 9 10
f 10 11 12
f 11 9 13
f 9 11 10
f 14 15 16
f 15 14 17
f 18 14 16
f 14 18 17
f 19 7 6
f 20 15 17
f 22 21 16
f 21 18 16
f 9 23 13
f 8 23 9
f 18 24 17
f 24 20 17
f 25 19 15
f 20 25 15
f 19 25 7
f 25 20 12
f 11 25 12
f 25 11 13
f 26 21 22
f 21 26 18
f 20 27 12
f 24 27 20
f 27 10 12
f 26 28 18
f 28 29 18
f 31 30 29
f 30 24 18
f 29 30 18
f 32 8 10
f 33 30 31
f 33 27 24
f 30 33 24
f 32 34 31
f 34 33 31
f 34 32 10
f 27 34 10
f 33 34 27
f 19 22 16
f 19 4 22
f 1 19 6
f 4 19 1
f 15 19 16
f 2 25 3
f 23 25 13
f 7 25 2
f 25 23 3
f 4 32 22
f 32 4 3
f 23 32 3
f 32 23 8
f 32 26 22
f 32 28 26
f 28 32 29
f 32 31 29
