# Created by Open3D 
# object name: Pot061_collision_0_4
# number of vertices: 30
# number of triangles: 56
v -0.0446388 -3.82e-06 0.0184158
v 0.0419557 -0.0457412 0.0174451
v -0.0446388 -0.0457412 0.0194912
v 0.0419557 0.0402594 0.0142907
v -0.0446388 0.0402594 0.0163374
v 0.0223098 0.0402594 -0.0021456
v -0.0164979 0.0402594 -0.00213526
v 0.0419557 -0.0144094 -0.00215026
v 0.0419557 0.025408 -0.00215009
v 0.033651 0.0402594 -0.00214815
v 0.0419557 -2.126e-05 0.0163701
v -0.0443969 -0.0457412 -0.00212691
v 0.0419557 -0.0457412 -0.00214992
v -0.0446388 -0.0457412 -0.00212684
v 0.0419557 0.0324661 -0.00214865
v 0.0378289 0.0402594 -0.00214764
v 0.0419557 0.0402594 -0.00214566
v -0.0295852 0.0402594 -0.0021305
v -0.0446388 0.0201825 -0.00212438
v -0.0334778 0.0402594 -0.00212808
v -0.0169676 0.0402594 -0.00213512
v -0.0446388 -0.042917 -0.00212684
v -0.0446388 0.00612671 -0.00212655
v -0.0271561 0.0402594 -0.00213189
v 0.0419557 0.0289382 -0.00214963
v 0.0359608 0.0402594 -0.00214815
v -0.0446388 0.00936941 -0.00212611
v -0.0446388 0.0254901 -0.00212349
v -0.0370418 0.0402594 -0.00212582
v -0.0446388 0.0402594 -0.00212091
f 2 1 3
f 1 4 5
f 7 6 8
f 6 9 8
f 9 6 10
f 11 1 2
f 11 4 1
f 13 12 8
f 12 7 8
f 7 12 14
f 15 16 17
f 18 19 20
f 21 22 23
f 24 21 23
f 22 21 14
f 21 7 14
f 26 25 10
f 25 9 10
f 25 26 16
f 15 25 16
f 18 27 19
f 27 18 24
f 27 24 23
f 29 28 30
f 28 29 20
f 19 28 20
f 14 12 3
f 12 13 2
f 12 2 3
f 4 25 17
f 25 13 8
f 25 11 2
f 13 25 2
f 9 25 8
f 11 25 4
f 25 15 17
f 5 29 30
f 16 29 17
f 29 6 7
f 29 4 17
f 4 29 5
f 6 29 10
f 18 29 24
f 21 29 7
f 29 26 10
f 26 29 16
f 29 18 20
f 29 21 24
f 28 14 3
f 28 5 30
f 28 22 14
f 1 28 3
f 28 1 5
f 22 28 23
f 28 27 23
f 27 28 19
