# Created by Open3D 
# object name: Pot061_collision_11_0
# number of vertices: 34
# number of triangles: 64
v -0.198138 -0.0196836 0.134377
v -0.194296 -0.0479647 0.138298
v -0.193631 -0.0196836 0.138819
v -0.197226 -0.0406083 0.133742
v -0.199862 -0.0196836 0.124305
v -0.198217 -0.0478991 0.121859
v -0.198162 -0.0196836 0.118312
v -0.180262 -0.0196836 0.136998
v -0.146161 -0.0388974 0.130443
v -0.174271 -0.0196836 0.134271
v -0.146859 -0.0552529 0.13011
v -0.174133 -0.0557314 0.134537
v -0.166893 -0.056641 0.130245
v -0.137858 -0.0512971 0.120003
v -0.137858 -0.0455585 0.126052
v -0.148571 -0.0566091 0.120343
v -0.179271 -0.0560404 0.117492
v -0.147363 -0.0558891 0.117434
v -0.190035 -0.0554352 0.133864
v -0.175054 -0.0386969 0.114305
v -0.146568 -0.0395573 0.114384
v -0.180262 -0.0196836 0.11553
v -0.146562 -0.0515888 0.114382
v -0.179767 -0.0515031 0.115473
v -0.19452 -0.0519533 0.118119
v -0.145994 -0.0510656 0.130526
v -0.190538 -0.0517382 0.138274
v -0.184226 -0.0196836 0.115639
v -0.137858 -0.0458137 0.115137
v -0.137858 -0.0408644 0.118514
v -0.146028 -0.0353937 0.127113
v -0.146313 -0.0354739 0.117859
v -0.194924 -0.0524273 0.129598
v -0.189889 -0.055344 0.118667
f 1 2 3
f 4 1 5
f 6 4 5
f 1 4 2
f 4 6 2
f 7 6 5
f 8 9 10
f 11 12 13
f 11 14 15
f 17 16 13
f 16 17 18
f 16 11 13
f 14 16 18
f 11 16 14
f 12 19 13
f 19 17 13
f 21 20 22
f 23 17 24
f 17 23 18
f 20 23 24
f 23 20 21
f 7 25 6
f 25 20 24
f 8 26 9
f 9 26 15
f 26 11 15
f 19 27 2
f 27 19 12
f 27 26 8
f 11 27 12
f 26 27 11
f 27 8 3
f 2 27 3
f 20 28 22
f 28 25 7
f 25 28 20
f 29 23 21
f 30 29 21
f 29 14 18
f 23 29 18
f 9 31 10
f 30 31 15
f 31 9 15
f 32 22 10
f 31 32 10
f 32 31 30
f 32 21 22
f 32 30 21
f 25 33 6
f 6 33 2
f 33 19 2
f 19 34 17
f 17 34 24
f 34 25 24
f 33 34 19
f 34 33 25
f 28 7 5
f 1 28 5
f 28 1 3
f 22 28 10
f 8 28 3
f 28 8 10
f 29 30 15
f 14 29 15
