# Created by Open3D 
# object name: Pot061_collision_4_0
# number of vertices: 34
# number of triangles: 64
v 3.231e-05 0.127194 0.128261
v 0.0613155 0.110212 0.0840187
v 3.231e-05 0.126897 0.100681
v 0.0613155 0.110823 0.132223
v 0.0138714 0.133179 0.0840187
v 3.231e-05 0.133972 0.0840187
v 0.0019879 0.139369 0.136185
v 3.231e-05 0.126843 0.0840187
v 0.016001 0.138682 0.138019
v 0.0257549 0.136918 0.140147
v 0.0237753 0.13728 0.136185
v 0.0198132 0.132361 0.0840187
v 3.231e-05 0.139361 0.140147
v 3.231e-05 0.127371 0.132223
v 0.0613155 0.125096 0.140147
v 0.0475423 0.130742 0.142131
v 0.0480462 0.130939 0.137436
v 0.0518854 0.123001 0.0840187
v 0.0376384 0.128073 0.0840187
v 0.0361447 0.134857 0.13735
v 0.0315467 0.129813 0.0840187
v 3.231e-05 0.138859 0.14235
v 3.231e-05 0.134438 0.142425
v 0.0237753 0.135742 0.142901
v 3.231e-05 0.129135 0.135372
v 0.0613155 0.120818 0.142743
v 0.0584541 0.126329 0.136185
v 0.0613155 0.118384 0.0840187
v 0.0340782 0.13473 0.142094
v 0.0415976 0.131621 0.142817
v 0.0116399 0.138619 0.142056
v 0.0613155 0.112735 0.135597
v 0.0613155 0.123746 0.142737
v 0.0613155 0.124905 0.136185
f 2 1 3
f 4 1 2
f 5 6 7
f 8 2 3
f 9 5 7
f 9 10 11
f 5 9 12
f 9 11 12
f 6 13 7
f 13 9 7
f 14 1 4
f 16 15 17
f 17 18 19
f 10 20 11
f 20 16 17
f 20 21 12
f 11 20 12
f 21 20 19
f 20 17 19
f 22 23 24
f 25 14 4
f 23 26 24
f 18 27 28
f 15 27 17
f 27 18 17
f 29 20 10
f 20 29 16
f 30 29 24
f 29 30 16
f 31 22 24
f 29 31 24
f 31 29 10
f 9 31 10
f 22 31 13
f 13 31 9
f 32 26 23
f 25 32 23
f 32 25 4
f 33 30 24
f 26 33 24
f 30 33 16
f 33 15 16
f 27 34 28
f 34 27 15
f 18 28 2
f 18 5 12
f 8 18 2
f 5 18 6
f 18 8 6
f 21 18 12
f 18 21 19
f 8 25 6
f 1 25 3
f 25 8 3
f 25 13 6
f 14 25 1
f 22 25 23
f 25 22 13
f 28 34 2
f 34 4 2
f 33 34 15
f 34 32 4
f 32 34 26
f 34 33 26
