# Created by Open3D 
# object name: Pot061_collision_8_0
# number of vertices: 34
# number of triangles: 64
v -0.061365 0.110186 0.0840187
v -0.061365 0.118191 0.0840187
v -0.061371 0.112725 0.135591
v -0.061365 0.11082 0.132222
v -0.061365 0.124822 0.136185
v -0.061365 0.125045 0.140147
v 2.63e-05 0.13886 0.14235
v 2.63e-05 0.134439 0.142425
v -0.0217918 0.135895 0.142938
v -0.061365 0.111017 0.13333
v 2.63e-05 0.129135 0.135371
v 2.63e-05 0.127196 0.12826
v 2.63e-05 0.126844 0.0840187
v -0.061365 0.119085 0.141791
v -0.061365 0.120807 0.142736
v -0.0119586 0.138674 0.142137
v 2.63e-05 0.139359 0.136185
v -0.00198121 0.133973 0.0840187
v 2.63e-05 0.133973 0.0840187
v 2.63e-05 0.127373 0.132222
v -0.0518804 0.123006 0.0840187
v -0.061365 0.123737 0.142742
v -0.0415964 0.13162 0.142817
v -0.0476189 0.130771 0.142165
v -0.0480878 0.13096 0.137471
v -0.0376355 0.12809 0.0840187
v -0.0160939 0.1387 0.137903
v -0.01387 0.133182 0.0840187
v -0.0198114 0.132369 0.0840187
v -0.0237723 0.137239 0.136185
v -0.036193 0.134858 0.137332
v -0.0315439 0.129826 0.0840187
v -0.0257527 0.13688 0.140147
v -0.0340893 0.134737 0.142102
f 2 1 3
f 1 4 3
f 5 2 3
f 6 5 3
f 8 7 9
f 4 10 3
f 8 10 11
f 10 8 3
f 13 12 1
f 12 4 1
f 8 14 3
f 15 8 9
f 15 14 8
f 14 15 3
f 16 7 17
f 7 16 9
f 19 18 17
f 10 20 11
f 20 10 4
f 12 20 4
f 5 21 2
f 23 22 9
f 22 15 9
f 24 22 23
f 22 24 6
f 22 6 3
f 15 22 3
f 25 21 5
f 25 5 6
f 24 25 6
f 21 25 26
f 27 18 28
f 18 27 17
f 29 27 28
f 27 29 30
f 27 16 17
f 25 31 26
f 29 31 30
f 31 25 24
f 31 32 26
f 32 31 29
f 33 27 30
f 31 33 30
f 27 33 16
f 33 34 16
f 34 24 23
f 34 31 24
f 34 33 31
f 34 23 9
f 16 34 9
f 19 20 13
f 20 8 11
f 20 7 8
f 7 20 17
f 20 19 17
f 20 12 13
f 32 1 2
f 18 32 28
f 32 13 1
f 32 19 13
f 21 32 2
f 32 18 19
f 32 21 26
f 32 29 28
