# Created by Open3D 
# object name: Pot061_collision_1_1
# number of vertices: 34
# number of triangles: 64
v 0.0944918 0.0945088 0.0840129
v 0.0851787 0.102595 0.0840129
v 0.0851787 0.101495 0.0311726
v 0.10359 0.0512866 0.0840129
v 0.0851834 0.0931527 0.0840057
v 0.0974513 0.0512866 0.0508507
v 0.0851834 0.0738369 0.0102272
v 0.0935211 0.0512866 0.0102272
v 0.0851834 0.0926405 0.0102272
v 0.118597 0.0598899 0.0302481
v 0.122532 0.0512866 0.0272488
v 0.123715 0.0512866 0.0840129
v 0.115378 0.0681114 0.0840129
v 0.114639 0.0669161 0.0252573
v 0.0997793 0.0772822 0.0102272
v 0.0915161 0.0914753 0.0149218
v 0.0953263 0.0924044 0.0312123
v 0.103965 0.0842331 0.0840129
v 0.103341 0.083545 0.0312123
v 0.106865 0.0790701 0.0292297
v 0.0851834 0.0982705 0.016973
v 0.0851834 0.100234 0.0214402
v 0.110754 0.0630389 0.0115922
v 0.115288 0.0512866 0.0102272
v 0.0936043 0.0935796 0.0252573
v 0.114921 0.0673882 0.0331949
v 0.110787 0.0710846 0.0199126
v 0.115034 0.059694 0.0151313
v 0.120847 0.0512866 0.0193371
v 0.110943 0.0673681 0.0153407
v 0.103966 0.0816227 0.023114
v 0.115048 0.0636918 0.0190026
v 0.0949108 0.0909128 0.0198909
v 0.103 0.0792108 0.0153769
f 2 1 3
f 5 4 2
f 4 5 6
f 7 8 6
f 5 7 6
f 9 7 3
f 7 2 3
f 7 5 2
f 11 10 12
f 10 13 12
f 10 11 14
f 15 9 16
f 17 1 18
f 19 17 18
f 1 17 3
f 13 20 18
f 20 19 18
f 9 21 16
f 21 9 3
f 22 21 3
f 15 23 24
f 25 22 3
f 17 25 3
f 25 17 19
f 20 26 14
f 26 20 13
f 26 10 14
f 10 26 13
f 27 20 14
f 28 29 24
f 23 28 24
f 28 23 30
f 20 31 19
f 31 25 19
f 27 31 20
f 28 32 29
f 32 27 14
f 27 32 30
f 32 28 30
f 29 32 11
f 11 32 14
f 31 33 25
f 25 33 22
f 21 33 16
f 33 21 22
f 34 31 27
f 34 33 31
f 33 34 16
f 34 27 30
f 34 15 16
f 23 34 30
f 34 23 15
f 13 4 12
f 13 1 2
f 1 13 18
f 4 13 2
f 8 15 24
f 7 15 8
f 15 7 9
f 4 29 12
f 8 29 6
f 29 8 24
f 29 4 6
f 29 11 12
