# Created by Open3D 
# object name: Pot061_collision_17_0
# number of vertices: 34
# number of triangles: 64
v 0.12557 0.0534751 0.100535
v 0.122779 0.0534751 0.0840187
v 0.139409 0.0510907 0.120201
v 0.128716 0.0534751 0.136181
v 0.114709 0.0468374 0.100535
v 0.114655 0.0534751 0.0840187
v 0.11448 0.0534751 0.102516
v 0.12464 -0.0196753 0.0840302
v 0.125163 -0.0196753 0.132219
v 0.115258 0.0534751 0.132219
v 0.128725 0.0356529 0.0840187
v 0.13221 0.0178236 0.0840302
v 0.133277 -0.00197486 0.0840302
v 0.123233 0.0522793 0.141573
v 0.116816 0.0534751 0.135357
v 0.124677 0.0534751 0.142704
v 0.133753 -0.0196753 0.142883
v 0.125988 -0.0196753 0.135103
v 0.135878 0.0217833 0.142934
v 0.131907 -0.0196753 0.0840302
v 0.139409 0.0492576 0.116919
v 0.139409 0.0497445 0.124607
v 0.130762 0.0475964 0.14215
v 0.134881 0.0326241 0.142317
v 0.138832 -0.013188 0.137571
v 0.139344 4.98502e-06 0.140143
v 0.138596 -0.0114982 0.142012
v 0.137704 -0.0196753 0.140143
v 0.137607 -0.0196753 0.136181
v 0.127492 0.0534751 0.142692
v 0.135988 -0.0196753 0.142883
v 0.138666 0.0118948 0.142127
v 0.132593 -0.0138611 0.0840302
v 0.139409 0.0455414 0.115437
f 2 1 3
f 1 4 3
f 6 5 7
f 5 6 8
f 5 8 9
f 5 10 7
f 10 5 9
f 11 6 2
f 6 11 8
f 11 12 13
f 15 14 16
f 14 17 16
f 17 14 15
f 18 17 15
f 18 15 10
f 18 10 9
f 17 19 16
f 11 20 8
f 21 2 3
f 21 11 2
f 11 21 12
f 22 23 24
f 25 26 27
f 25 28 29
f 28 25 27
f 20 25 29
f 19 30 16
f 23 30 24
f 30 19 24
f 22 30 23
f 4 30 3
f 30 22 3
f 31 19 17
f 31 28 27
f 26 32 27
f 32 31 27
f 31 32 19
f 22 32 26
f 19 32 24
f 32 22 24
f 33 11 13
f 33 20 11
f 25 33 13
f 33 25 20
f 12 34 13
f 21 34 12
f 34 25 13
f 25 34 26
f 34 22 26
f 10 30 7
f 30 15 16
f 30 6 7
f 30 1 2
f 6 30 2
f 15 30 10
f 1 30 4
f 31 18 9
f 8 31 9
f 18 31 17
f 20 31 8
f 31 20 29
f 28 31 29
f 22 34 3
f 34 21 3
