# Created by Open3D 
# object name: Pot061_collision_18_0
# number of vertices: 34
# number of triangles: 64
v -8.141e-05 0.113002 0.0102382
v -8.141e-05 0.125907 0.0291645
v -0.0852529 0.0738348 0.0102382
v -0.0852363 0.0920362 0.0291645
v -0.0852529 0.101418 0.0291645
v -0.0786827 0.106616 0.0291645
v -0.0676767 0.113089 0.0226915
v -0.0507258 0.122511 0.0291645
v -0.0650836 0.107583 0.0102382
v -0.0777655 0.0990449 0.0102382
v -0.067093 0.110771 0.0156479
v -0.0495168 0.115737 0.0102382
v -0.0513511 0.118785 0.0154756
v -0.0852529 0.100247 0.0216522
v -0.0485829 0.122828 0.0240142
v -0.00198245 0.132385 0.0232723
v -8.141e-05 0.131635 0.019794
v -8.141e-05 0.133028 0.0291645
v -0.0196254 0.131406 0.0291645
v -0.020009 0.13078 0.0230916
v -0.0155211 0.127492 0.0132698
v -8.141e-05 0.126277 0.0102382
v -0.0157691 0.125208 0.0102382
v -0.0316091 0.122043 0.0102382
v -0.0776405 0.105286 0.0187408
v -0.0852529 0.0981902 0.0169447
v -0.0507727 0.12074 0.0196523
v -0.0336748 0.128392 0.0291645
v -0.0399699 0.12294 0.0151643
v -0.0153731 0.130699 0.0194791
v -0.0789412 0.102797 0.0156794
v -0.0852529 0.0926214 0.0102382
v -0.0340854 0.127807 0.02457
v -0.0325158 0.127002 0.0187584
f 1 2 3
f 2 4 3
f 4 5 3
f 7 6 8
f 9 10 11
f 12 9 11
f 13 12 11
f 6 14 5
f 15 7 8
f 17 16 18
f 16 19 18
f 19 16 20
f 21 22 23
f 21 17 22
f 24 21 23
f 25 6 7
f 25 14 6
f 25 7 11
f 14 25 26
f 15 27 7
f 7 27 11
f 27 13 11
f 28 15 8
f 28 19 20
f 29 24 12
f 13 29 12
f 27 29 13
f 16 30 20
f 30 16 17
f 21 30 17
f 10 31 11
f 31 25 11
f 25 31 26
f 32 31 10
f 26 31 32
f 33 28 20
f 28 33 15
f 34 21 24
f 29 34 24
f 34 30 21
f 33 34 15
f 30 34 20
f 34 33 20
f 34 27 15
f 34 29 27
f 17 18 2
f 22 17 1
f 1 17 2
f 14 32 3
f 5 14 3
f 14 26 32
f 32 24 3
f 24 1 3
f 24 22 1
f 24 32 10
f 22 24 23
f 9 24 10
f 24 9 12
f 28 4 2
f 18 28 2
f 4 28 5
f 28 6 5
f 6 28 8
f 19 28 18
