# Created by Open3D 
# object name: Pot061_collision_0_7
# number of vertices: 34
# number of triangles: 64
v 0.0419557 -2.126e-05 0.0163701
v 0.12855 -3.87e-05 0.0143243
v 0.0419557 -0.0415379 0.0173462
v 0.0419557 -0.0415379 -0.00214997
v 0.0419557 0.0384904 -0.00214634
v 0.0834449 -0.0415379 -0.0021501
v 0.0419557 0.0384904 0.0143821
v 0.106951 0.0384904 0.0127461
v 0.085071 -0.0415379 0.0163275
v 0.118084 0.0384904 0.0113722
v 0.119906 0.0384904 0.0102218
v 0.101005 0.0059214 -0.00201131
v 0.098319 0.0384904 -0.00160817
v 0.121988 0.0312645 0.0102218
v 0.124481 0.0177911 0.0102218
v 0.1183 0.0158212 0.00387597
v 0.126833 -0.000303875 0.0114454
v 0.126248 -0.0158355 0.012103
v 0.126948 -0.0196174 0.0143243
v 0.121957 -0.0415379 0.0143243
v 0.122573 -0.0152862 0.0076489
v 0.0939069 -0.0415379 -0.00180511
v 0.114867 0.0316559 0.003469
v 0.110407 0.0384904 0.00212182
v 0.11886 -2.6075e-05 0.00344048
v 0.110517 -0.017818 -0.00038345
v 0.118427 -0.013853 0.00376737
v 0.120933 -0.0321879 0.0092455
v 0.111267 -0.0415379 0.00320175
v 0.114867 -0.0316576 0.00346681
v 0.103725 -0.0415379 -0.00051333
v 0.104947 -0.00693954 -0.00161971
v 0.110873 0.0119068 -0.00049534
v 0.106868 0.0334869 -0.00048108
f 2 1 3
f 4 5 6
f 8 7 2
f 7 1 2
f 9 2 3
f 10 8 2
f 11 10 2
f 13 12 5
f 5 12 6
f 14 15 16
f 14 11 2
f 15 14 2
f 15 17 16
f 17 15 2
f 18 17 2
f 19 18 2
f 19 9 20
f 9 19 2
f 21 17 18
f 12 22 6
f 23 24 11
f 14 23 11
f 23 14 16
f 17 25 16
f 26 25 27
f 25 21 27
f 21 25 17
f 29 28 20
f 28 21 18
f 28 19 20
f 19 28 18
f 30 29 31
f 26 30 31
f 30 26 27
f 30 28 29
f 21 30 27
f 28 30 21
f 22 32 31
f 32 26 31
f 32 22 12
f 32 33 26
f 33 23 16
f 25 33 16
f 33 25 26
f 33 12 13
f 33 32 12
f 24 34 13
f 34 33 13
f 23 34 24
f 33 34 23
f 7 4 3
f 1 7 3
f 4 7 5
f 7 24 5
f 24 7 8
f 24 13 5
f 10 24 8
f 24 10 11
f 22 9 3
f 4 22 3
f 22 4 6
f 9 22 20
f 22 29 20
f 29 22 31
