# Created by Open3D 
# object name: Pot061_collision_0_5
# number of vertices: 34
# number of triangles: 64
v 0.0419557 0.0402594 -0.00214566
v 0.0419557 0.0784258 -0.00213047
v -0.0446388 0.0402594 -0.00212091
v -0.0446388 0.0847596 -0.00208076
v 0.0419557 0.118519 0.0102218
v 0.0419557 0.0402594 0.0142907
v -0.0446388 0.0402594 0.0163374
v -0.0446388 0.0693124 0.014684
v -0.0446388 0.0951964 0.012615
v 0.001914 0.12626 0.0102218
v 0.0205826 0.124303 0.0102218
v -0.033185 0.106751 -0.00045366
v -0.0446388 0.109569 0.00309174
v -0.0446388 0.102269 -0.00047579
v -0.0446388 0.0954759 -0.00160542
v -0.0324728 0.119062 0.00717228
v -0.0446388 0.117629 0.0102328
v -0.0267502 0.122989 0.0102328
v -0.016017 0.1228 0.00738508
v 0.0324094 0.119037 0.00717667
v 0.0158264 0.118481 0.0037224
v 0.0316718 0.114845 0.00347339
v 0.0262162 0.108086 -0.000520574
v -0.0158135 0.118481 0.00372021
v -6.27001e-06 0.117951 0.00256403
v -0.0158898 0.11088 -0.00049973
v 0.0419557 0.111054 0.00335097
v 0.0419557 0.0998611 -0.00114116
v 0.00912773 0.10295 -0.00187378
v 0.00787193 0.111016 -0.000548544
v 0.0160299 0.1228 0.00738508
v -0.0316589 0.114845 0.00346462
v -0.00937554 0.10295 -0.00186597
v -6.27001e-06 0.12333 0.00687611
f 2 1 3
f 4 2 3
f 6 5 7
f 5 8 7
f 9 8 10
f 8 11 10
f 11 8 5
f 13 12 14
f 12 15 14
f 16 13 17
f 9 18 17
f 18 9 10
f 19 18 10
f 18 16 17
f 16 18 19
f 20 11 5
f 21 22 23
f 24 25 26
f 27 20 5
f 20 27 22
f 22 27 23
f 27 28 23
f 29 28 2
f 4 29 2
f 28 29 23
f 30 21 23
f 21 30 25
f 25 30 26
f 29 30 23
f 31 20 22
f 21 31 22
f 20 31 11
f 11 31 10
f 16 32 13
f 32 12 13
f 32 16 19
f 24 32 19
f 12 32 26
f 32 24 26
f 15 33 4
f 33 29 4
f 33 12 26
f 12 33 15
f 30 33 26
f 33 30 29
f 34 21 25
f 34 31 21
f 31 34 10
f 34 19 10
f 34 24 19
f 24 34 25
f 1 6 3
f 6 7 3
f 7 9 3
f 9 4 3
f 9 13 14
f 8 9 7
f 15 9 14
f 13 9 17
f 9 15 4
f 27 6 1
f 27 1 2
f 27 5 6
f 28 27 2
