# Created by Open3D 
# object name: Pot061_collision_21_0
# number of vertices: 34
# number of triangles: 64
v -0.180266 -0.0196836 0.11553
v -0.176625 -0.0196836 0.118702
v -0.16836 0.0396109 0.116015
v -0.16836 0.0351853 0.117679
v -0.174276 -0.0196836 0.134271
v -0.198142 -0.0196836 0.134377
v -0.198157 0.0179846 0.13442
v -0.199866 -0.0196836 0.124304
v -0.173958 0.0397415 0.114306
v -0.197149 0.045559 0.132226
v -0.1982 0.0478352 0.121913
v -0.194392 0.051828 0.134827
v -0.195119 -0.0196836 0.138686
v -0.186207 0.0475405 0.116056
v -0.19816 -0.0196836 0.118312
v -0.198061 0.0350509 0.11838
v -0.199186 -0.0196836 0.120343
v -0.199614 0.0316888 0.124304
v -0.195289 0.0527385 0.124304
v -0.16836 0.0415961 0.13494
v -0.180266 -0.0196836 0.136998
v -0.192148 -0.0196836 0.138952
v -0.189981 0.0516414 0.138242
v -0.16836 0.0515034 0.116221
v -0.194476 0.0518579 0.118146
v -0.186798 0.055582 0.13446
v -0.194262 0.047895 0.138273
v -0.176304 0.0534848 0.115827
v -0.16836 0.055776 0.117906
v -0.16836 0.0527609 0.134566
v -0.186736 0.0555745 0.118206
v -0.184226 0.0561641 0.120343
v -0.16836 0.0565074 0.128265
v -0.173426 0.055567 0.134322
f 2 1 3
f 4 5 2
f 4 2 3
f 6 7 8
f 1 9 3
f 11 10 12
f 6 13 7
f 14 1 15
f 14 9 1
f 16 14 15
f 17 16 15
f 16 18 11
f 7 18 8
f 18 17 8
f 17 18 16
f 10 18 7
f 18 10 11
f 19 11 12
f 4 20 5
f 20 21 5
f 21 20 22
f 20 23 22
f 9 24 3
f 25 16 11
f 25 14 16
f 19 25 11
f 23 26 12
f 26 19 12
f 27 13 22
f 23 27 22
f 13 27 7
f 27 23 12
f 10 27 12
f 27 10 7
f 14 28 9
f 28 24 9
f 25 28 14
f 24 28 29
f 20 30 23
f 31 28 25
f 31 25 19
f 29 31 32
f 28 31 29
f 31 26 32
f 26 31 19
f 33 29 32
f 26 33 32
f 33 34 30
f 34 33 26
f 34 26 23
f 30 34 23
f 13 17 22
f 17 21 22
f 5 17 2
f 17 1 2
f 1 17 15
f 21 17 5
f 17 6 8
f 17 13 6
f 33 20 4
f 33 4 3
f 24 33 3
f 33 24 29
f 33 30 20
