# Created by Open3D 
# object name: Pot061_collision_14_0
# number of vertices: 34
# number of triangles: 64
v -0.086715 -0.0918738 0.0840124
v -0.101468 -0.0507027 0.0202522
v -0.086715 -0.0866108 0.0202522
v -0.104404 -0.0507027 0.0840124
v -0.123971 -0.0507027 0.0840124
v -0.102662 -0.0507027 0.0554464
v -0.122793 -0.0514474 0.0322353
v -0.123278 -0.0525001 0.0840124
v -0.122635 -0.0507027 0.0252639
v -0.121483 -0.0507027 0.0202522
v -0.114914 -0.0673856 0.0308061
v -0.0914987 -0.0953991 0.0239345
v -0.086715 -0.098547 0.0202522
v -0.0949373 -0.0910149 0.0202522
v -0.086715 -0.0999571 0.0272829
v -0.114635 -0.0651513 0.0202522
v -0.105193 -0.0794013 0.0207765
v -0.111199 -0.0706626 0.0202522
v -0.106696 -0.0788353 0.0252639
v -0.0954634 -0.0915312 0.0238752
v -0.116941 -0.0653698 0.0840124
v -0.115399 -0.0681503 0.0840124
v -0.110805 -0.0750916 0.0840124
v -0.0924161 -0.0952998 0.0312087
v -0.086715 -0.101427 0.0840124
v -0.094617 -0.0946146 0.0840124
v -0.0958318 -0.0919384 0.0312087
v -0.114667 -0.0669586 0.0252639
v -0.10326 -0.0834678 0.0276917
v -0.103416 -0.0836416 0.0351687
v -0.102977 -0.0831451 0.0235164
v -0.106916 -0.0791481 0.0312087
v -0.106724 -0.0809356 0.0840124
v -0.103983 -0.0842771 0.0840124
f 2 1 3
f 4 2 5
f 6 4 1
f 6 1 2
f 4 6 2
f 7 8 5
f 9 7 5
f 10 9 2
f 2 9 5
f 7 9 11
f 13 12 14
f 15 12 13
f 16 9 10
f 17 18 14
f 17 19 18
f 12 20 14
f 22 21 11
f 7 21 8
f 21 7 11
f 23 22 11
f 24 15 25
f 26 24 25
f 24 26 27
f 24 12 15
f 20 24 27
f 24 20 12
f 28 16 18
f 28 19 11
f 19 28 18
f 9 28 11
f 16 28 9
f 29 20 27
f 30 29 27
f 17 31 19
f 31 29 19
f 29 31 20
f 31 17 14
f 20 31 14
f 32 30 33
f 19 32 11
f 29 32 19
f 32 29 30
f 23 32 33
f 32 23 11
f 30 34 33
f 26 34 27
f 34 30 27
f 25 15 1
f 15 13 3
f 1 15 3
f 16 10 2
f 16 2 3
f 13 16 3
f 16 13 14
f 18 16 14
f 4 34 1
f 34 4 5
f 8 34 5
f 34 25 1
f 34 26 25
f 21 34 8
f 34 23 33
f 34 21 22
f 23 34 22
