# Created by Open3D 
# object name: Pot061_collision_20_0
# number of vertices: 34
# number of triangles: 64
v -0.125201 -0.0196836 0.132227
v -0.11013 0.0637574 0.13024
v -0.110591 0.0637574 0.134534
v -0.109517 0.0637574 0.0840245
v -0.1247 -0.0196836 0.0840187
v -0.132251 0.0178306 0.0840187
v -0.138677 -0.012006 0.142146
v -0.138727 -0.0162614 0.13793
v -0.139412 0.00198525 0.140139
v -0.137814 -0.0196836 0.140082
v -0.118455 0.0637574 0.142446
v -0.119192 0.0637574 0.142711
v -0.133772 -0.0196836 0.142884
v -0.139005 0.0510485 0.12026
v -0.139005 0.0492271 0.116903
v -0.126002 -0.0196836 0.135093
v -0.117776 0.0637574 0.0840245
v -0.131993 -0.0196836 0.0840187
v -0.135991 -0.0196836 0.142884
v -0.138677 0.0120233 0.142146
v -0.128796 0.0356565 0.0840245
v -0.123887 0.0637574 0.136183
v -0.139005 0.04966 0.124539
v -0.130773 0.0476344 0.142164
v -0.134743 0.0341251 0.142103
v -0.127003 0.0560553 0.142354
v -0.135888 0.0217919 0.142936
v -0.123281 0.0524942 0.0840245
v -0.139037 -0.00989873 0.136933
v -0.132687 -0.0138601 0.0840187
v -0.133456 -0.00197608 0.0840187
v -0.123562 0.0637574 0.141225
v -0.139005 0.0455598 0.115398
v -0.133456 0.00199342 0.0840187
f 1 2 3
f 2 1 4
f 1 5 4
f 5 6 4
f 8 7 9
f 10 7 8
f 11 12 13
f 14 15 9
f 16 1 3
f 11 16 3
f 16 11 13
f 6 17 4
f 14 17 15
f 18 10 8
f 10 19 7
f 7 20 9
f 21 6 15
f 22 17 14
f 24 23 25
f 23 20 25
f 23 14 9
f 20 23 9
f 26 23 24
f 20 27 25
f 19 27 7
f 27 20 7
f 27 24 25
f 27 26 24
f 26 27 12
f 27 19 13
f 12 27 13
f 28 17 6
f 21 28 6
f 17 28 15
f 28 21 15
f 29 8 9
f 30 18 8
f 29 30 8
f 30 29 31
f 32 26 12
f 26 32 23
f 32 22 14
f 23 32 14
f 34 33 6
f 6 33 15
f 33 34 31
f 29 33 31
f 15 33 9
f 33 29 9
f 19 16 13
f 1 19 5
f 19 18 5
f 16 19 1
f 18 19 10
f 18 34 5
f 34 6 5
f 30 34 18
f 34 30 31
f 32 2 4
f 32 11 3
f 2 32 3
f 11 32 12
f 17 32 4
f 22 32 17
