# Created by Open3D 
# object name: Pot061_collision_10_0
# number of vertices: 34
# number of triangles: 64
v -0.137783 -0.0196836 0.136316
v -0.131995 -0.0196836 0.0840187
v -0.137858 -0.0417637 0.116765
v -0.133773 -0.0196836 0.142884
v -0.120968 -0.0651799 0.142729
v -0.135751 -0.0237741 0.142902
v -0.131624 -0.0416034 0.142815
v -0.123126 -0.0651799 0.136189
v -0.137858 -0.0512986 0.12
v -0.117043 -0.0651799 0.0840187
v -0.137858 -0.0458119 0.115133
v -0.115337 -0.0450637 0.100536
v -0.124701 -0.0196836 0.0840187
v -0.108657 -0.0651799 0.0840187
v -0.125198 -0.0196836 0.132227
v -0.109306 -0.0651799 0.132227
v -0.137815 -0.0196836 0.140082
v -0.137858 -0.0495261 0.124337
v -0.118095 -0.0651799 0.14266
v -0.126001 -0.0196836 0.135093
v -0.125618 -0.0574465 0.142717
v -0.123114 -0.0651799 0.140151
v -0.134576 -0.0354488 0.141898
v -0.130749 -0.0475666 0.14214
v -0.137858 -0.0494548 0.116713
v -0.123283 -0.052501 0.0840187
v -0.129821 -0.0316968 0.0840187
v -0.128334 -0.0376399 0.0840187
v -0.135994 -0.0196836 0.142884
v -0.110157 -0.0651799 0.134862
v -0.127007 -0.0560548 0.14236
v -0.136914 -0.0257537 0.140151
v -0.124423 -0.0495216 0.0840187
v -0.123091 -0.0639597 0.142383
f 1 2 3
f 5 4 6
f 7 5 6
f 8 9 10
f 2 11 3
f 13 12 14
f 12 13 15
f 12 16 14
f 16 12 15
f 18 17 3
f 17 1 3
f 19 4 5
f 20 16 15
f 7 21 5
f 22 18 9
f 8 22 9
f 23 18 24
f 23 7 6
f 7 23 24
f 25 26 10
f 9 25 10
f 25 27 28
f 27 25 2
f 25 11 2
f 4 29 6
f 29 17 6
f 20 30 16
f 30 20 4
f 19 30 4
f 31 7 24
f 31 21 7
f 18 31 24
f 32 17 18
f 23 32 18
f 17 32 6
f 32 23 6
f 33 25 28
f 25 33 26
f 34 22 5
f 21 34 5
f 31 34 21
f 22 34 18
f 34 31 18
f 18 25 9
f 25 18 3
f 11 25 3
f 29 13 2
f 1 29 2
f 13 29 15
f 17 29 1
f 29 20 15
f 20 29 4
f 30 10 14
f 16 30 14
f 30 19 5
f 30 8 10
f 22 30 5
f 30 22 8
f 10 33 14
f 26 33 10
f 33 13 14
f 13 33 2
f 33 27 2
f 27 33 28
