# Created by Open3D 
# object name: Pot061_collision_16_0
# number of vertices: 34
# number of triangles: 64
v 0.18014 0.0299727 0.115176
v 0.175359 0.0299727 0.11825
v 0.169439 -0.0396398 0.115718
v 0.172808 0.0299727 0.130243
v 0.169439 -0.0495152 0.135134
v 0.190495 -0.0516927 0.138256
v 0.192152 0.0299727 0.13894
v 0.173663 0.0299727 0.134762
v 0.194298 -0.0479586 0.138297
v 0.198036 0.0299727 0.13387
v 0.198151 -0.0172054 0.13439
v 0.199837 -0.0123804 0.124304
v 0.199645 0.0299727 0.124304
v 0.180273 0.0299727 0.136987
v 0.170125 -0.0555034 0.134245
v 0.169439 -0.0568898 0.128262
v 0.190041 -0.0554353 0.133861
v 0.1984 0.0290711 0.119035
v 0.198084 -0.0314316 0.118367
v 0.194582 0.0299727 0.117549
v 0.173932 -0.0398014 0.114298
v 0.194979 0.0299727 0.138669
v 0.182254 -0.0566262 0.120343
v 0.169439 -0.0559882 0.117652
v 0.194525 -0.0519479 0.11812
v 0.198218 -0.0478906 0.121854
v 0.1954 -0.0529346 0.124304
v 0.194448 -0.0519139 0.134888
v 0.197844 -0.0385851 0.132621
v 0.169439 -0.0514971 0.115947
v 0.177299 -0.0514971 0.115253
v 0.192149 -0.0495152 0.117096
v 0.190035 -0.0554098 0.118514
v 0.199024 -0.0415962 0.124304
f 2 1 3
f 4 2 3
f 5 6 7
f 4 5 8
f 5 4 3
f 6 9 7
f 10 11 12
f 13 10 12
f 14 5 7
f 5 14 8
f 5 15 6
f 15 5 16
f 15 17 6
f 17 15 16
f 18 13 12
f 19 18 12
f 13 18 20
f 18 19 20
f 1 21 3
f 9 22 7
f 22 9 11
f 10 22 11
f 24 23 16
f 23 17 16
f 26 25 19
f 25 26 27
f 26 28 27
f 28 17 27
f 28 9 6
f 17 28 6
f 9 29 11
f 11 29 12
f 28 29 9
f 29 28 26
f 21 30 3
f 24 30 31
f 30 21 31
f 25 32 19
f 19 32 20
f 21 32 31
f 32 25 31
f 32 1 20
f 32 21 1
f 33 24 31
f 25 33 31
f 33 23 24
f 33 25 27
f 17 33 27
f 23 33 17
f 29 34 12
f 34 29 26
f 34 19 12
f 34 26 19
f 22 1 2
f 4 22 2
f 22 14 7
f 1 22 20
f 22 13 20
f 22 4 8
f 22 10 13
f 14 22 8
f 5 30 16
f 30 5 3
f 30 24 16
