# Created by Open3D 
# object name: Pot061_collision_0_6
# number of vertices: 34
# number of triangles: 64
v 0.085071 -0.0415379 0.0163275
v 0.0419557 -0.102419 0.0181514
v 0.121957 -0.0415379 0.0143243
v 0.0419557 -0.0826899 0.0183138
v 0.0419557 -0.0415379 0.0173462
v 0.0419557 -0.113103 0.0175127
v 0.102582 -0.0784545 0.0143243
v 0.112527 -0.0631754 0.0143243
v 0.0419557 -0.0870023 -0.00206564
v 0.0419557 -0.0415379 -0.00214997
v 0.0811217 -0.0415379 -0.0021583
v 0.0651558 -0.110932 0.0143243
v 0.0419557 -0.121566 0.0143243
v 0.0791954 -0.0692996 -0.00161861
v 0.102373 -0.0415379 -0.00080791
v 0.0831758 -0.0978501 0.0143243
v 0.0742707 -0.100477 0.00941361
v 0.087347 -0.0873189 0.00726661
v 0.11527 -0.049702 0.00951973
v 0.111271 -0.0415379 0.00320473
v 0.102099 -0.0586043 0.00239401
v 0.0467288 -0.114518 0.00773391
v 0.0419557 -0.108672 0.00208868
v 0.0636933 -0.0913091 -0.00056994
v 0.0419557 -0.09881 -0.0013507
v 0.0584062 -0.0851185 -0.00185336
v 0.0949772 -0.0592862 -0.00047779
v 0.107147 -0.0617864 0.00725455
v 0.0614297 -0.106916 0.00742567
v 0.0831758 -0.0752471 -0.00049973
v 0.0838625 -0.0838337 0.00308288
v 0.0987668 -0.0749441 0.00760667
v 0.071349 -0.095072 0.0034339
v 0.0594458 -0.102951 0.00345365
f 1 2 3
f 4 1 5
f 1 4 2
f 6 7 2
f 2 8 3
f 7 8 2
f 9 10 11
f 12 6 13
f 15 14 11
f 6 16 7
f 12 16 6
f 16 12 17
f 16 18 7
f 18 16 17
f 19 20 3
f 8 19 3
f 20 21 15
f 23 22 13
f 22 12 13
f 24 23 25
f 26 9 11
f 14 26 11
f 9 26 25
f 26 24 25
f 27 14 15
f 21 27 15
f 19 28 20
f 28 21 20
f 28 19 8
f 28 8 7
f 12 29 17
f 22 29 12
f 27 30 14
f 30 26 14
f 26 30 24
f 24 30 31
f 30 21 31
f 30 27 21
f 21 32 31
f 28 32 21
f 32 18 31
f 18 32 7
f 32 28 7
f 33 24 31
f 29 33 17
f 18 33 31
f 33 18 17
f 34 33 29
f 34 22 23
f 34 29 22
f 24 34 23
f 33 34 24
f 1 20 5
f 20 10 5
f 10 20 11
f 20 1 3
f 20 15 11
f 10 23 5
f 9 23 10
f 23 4 5
f 6 23 13
f 4 23 2
f 23 6 2
f 23 9 25
