# Created by Open3D 
# object name: Pot061_collision_0_0
# number of vertices: 34
# number of triangles: 64
v -0.0793819 -0.0430984 0.02025
v -0.0446388 -0.0780129 0.02025
v -0.0446388 -0.0430984 0.0194291
v -0.112908 -0.067898 0.02025
v -0.118974 -0.0517603 0.015158
v -0.124202 -0.0430984 0.02025
v -0.0883434 -0.0430984 -0.00206364
v -0.081179 -0.061357 -0.00202448
v -0.103129 -0.0430984 -0.0004844
v -0.0908694 -0.06512 -0.000448175
v -0.0750749 -0.0830003 -0.00046682
v -0.0952441 -0.0715347 0.0033264
v -0.0446388 -0.0884265 -0.0020579
v -0.0446388 -0.0430984 -0.00212684
v -0.113357 -0.0430984 0.0052705
v -0.0978733 -0.0873157 0.0197956
v -0.0809756 -0.103356 0.02025
v -0.0915053 -0.0914859 0.0148969
v -0.0792461 -0.099037 0.0113801
v -0.0642145 -0.114442 0.02025
v -0.0600688 -0.111235 0.0110116
v -0.0515229 -0.0990118 -0.00049973
v -0.0446388 -0.103835 0.000232495
v -0.0713361 -0.095072 0.00342513
v -0.103205 -0.0598165 0.00329349
v -0.0988303 -0.0749946 0.0075935
v -0.110759 -0.0630744 0.0115732
v -0.103001 -0.0792121 0.0153467
v -0.0446388 -0.11054 0.0037203
v -0.0539869 -0.118114 0.0168679
v -0.0446388 -0.118737 0.0115105
v -0.0446388 -0.123462 0.02025
v -0.08563 -0.0856142 0.00516597
v -0.0601196 -0.107321 0.00708453
f 1 2 3
f 5 4 6
f 7 8 9
f 10 8 11
f 8 10 9
f 12 10 11
f 13 7 14
f 7 13 8
f 8 13 11
f 15 5 6
f 4 16 17
f 17 16 18
f 19 17 18
f 19 20 17
f 20 19 21
f 22 13 23
f 13 22 11
f 22 24 11
f 25 15 9
f 10 25 9
f 25 10 12
f 26 25 12
f 27 4 5
f 27 25 26
f 15 27 5
f 25 27 15
f 16 28 18
f 28 16 4
f 27 28 4
f 28 26 18
f 28 27 26
f 29 22 23
f 22 29 24
f 30 31 32
f 20 30 32
f 31 30 21
f 30 20 21
f 33 24 19
f 26 33 18
f 33 19 18
f 33 26 12
f 33 12 11
f 24 33 11
f 34 29 31
f 34 31 21
f 29 34 24
f 19 34 21
f 24 34 19
f 14 15 3
f 7 15 14
f 1 15 6
f 15 1 3
f 15 7 9
f 2 20 32
f 20 1 6
f 1 20 2
f 4 20 6
f 20 4 17
f 2 29 3
f 29 14 3
f 29 2 32
f 29 13 14
f 13 29 23
f 31 29 32
