# Created by Open3D 
# object name: Pot061_collision_26_0
# number of vertices: 34
# number of triangles: 64
v -6.851e-05 0.125916 0.0292135
v 0.0851749 0.073838 0.0102272
v -6.851e-05 0.112988 0.0102272
v 0.0851749 0.0919989 0.0292135
v 0.0132049 0.127302 0.0125579
v 0.0157686 0.125197 0.0102272
v -6.851e-05 0.126269 0.0102272
v -6.851e-05 0.131405 0.0192993
v 0.0153598 0.130697 0.019487
v 0.0325153 0.126999 0.0187659
v 0.0328824 0.121674 0.0102272
v 0.0587491 0.112559 0.0118312
v 0.0651532 0.10742 0.0102272
v 0.0473323 0.116556 0.0102272
v 0.0671099 0.110774 0.0156359
v 0.0783974 0.101131 0.0132414
v 0.0851749 0.0926537 0.0102272
v 0.0851749 0.100204 0.0212918
v 0.0851666 0.101439 0.0292135
v 0.00199249 0.132383 0.0232722
v -6.851e-05 0.133038 0.0292135
v 0.0449772 0.120995 0.0150997
v 0.0632633 0.114825 0.0195651
v 0.0457365 0.122871 0.0194146
v 0.0498418 0.122255 0.0240064
v 0.0666677 0.114506 0.0292135
v 0.0507054 0.122503 0.0292135
v 0.0851749 0.0967825 0.0149356
v 0.0776736 0.105301 0.0187594
v 0.0169326 0.131322 0.0241793
v 0.0196236 0.131401 0.0292135
v 0.0785497 0.106509 0.0272331
v 0.0340756 0.127796 0.0245728
v 0.0336834 0.128379 0.0292135
f 2 1 3
f 4 1 2
f 5 6 7
f 8 5 7
f 5 8 9
f 5 9 10
f 5 11 6
f 11 5 10
f 12 13 14
f 13 12 15
f 13 16 17
f 16 13 15
f 18 19 4
f 20 8 21
f 8 20 9
f 22 12 14
f 11 22 14
f 23 22 24
f 24 22 10
f 22 11 10
f 12 22 15
f 22 23 15
f 25 23 24
f 26 25 27
f 25 26 23
f 16 28 17
f 29 16 15
f 23 29 15
f 28 29 18
f 29 28 16
f 31 30 21
f 30 20 21
f 20 30 9
f 9 30 10
f 32 26 19
f 18 32 19
f 29 32 18
f 26 32 23
f 32 29 23
f 34 33 31
f 33 30 31
f 30 33 10
f 33 24 10
f 33 25 24
f 33 34 27
f 25 33 27
f 8 1 21
f 1 8 3
f 8 7 3
f 7 11 3
f 11 2 3
f 11 17 2
f 13 11 14
f 6 11 7
f 11 13 17
f 1 26 21
f 4 26 1
f 19 26 4
f 34 26 27
f 26 31 21
f 26 34 31
f 17 28 2
f 28 4 2
f 28 18 4
