# Created by Open3D 
# object name: Pot061_collision_22_0
# number of vertices: 34
# number of triangles: 64
v 0.126146 -2.723e-05 0.0840119
v 0.117065 -2.723e-05 0.0143326
v 0.102046 -0.0585078 0.0143326
v 0.112252 -0.0585078 0.0840119
v 0.127553 -0.0247653 0.0167544
v 0.124346 -0.033475 0.0143326
v 0.126812 -0.0338156 0.0193331
v 0.119505 -0.0488565 0.0143326
v 0.115062 -0.0585078 0.0143394
v 0.130564 -0.0138746 0.020179
v 0.127849 -0.0138746 0.0143326
v 0.12857 -2.723e-05 0.0143326
v 0.130891 -2.723e-05 0.0189306
v 0.124009 -0.0392423 0.0166401
v 0.13245 -2.723e-05 0.0292317
v 0.13245 -0.00199643 0.0292317
v 0.133276 -2.723e-05 0.0840119
v 0.132594 -0.0138746 0.0840119
v 0.129633 -0.0259502 0.0259503
v 0.128396 -0.0336753 0.0312032
v 0.131114 -0.0192784 0.0302106
v 0.129246 -0.0336753 0.0840119
v 0.132212 -0.0178359 0.0840119
v 0.122727 -0.051255 0.029218
v 0.123259 -0.0524457 0.0840119
v 0.120333 -0.0585078 0.0840119
v 0.124378 -0.0495148 0.0840119
v 0.131155 -0.0145458 0.0238509
v 0.131767 -0.0138746 0.0312032
v 0.127072 -0.0365518 0.0238662
v 0.118884 -0.0585078 0.0252545
v 0.127361 -0.0374363 0.03121
v 0.119778 -0.0545809 0.0201892
v 0.122715 -0.0472193 0.0197424
f 1 2 3
f 4 1 3
f 6 5 7
f 8 9 3
f 5 10 7
f 11 5 6
f 11 10 5
f 11 12 13
f 10 11 13
f 14 8 6
f 14 6 7
f 16 15 17
f 15 16 13
f 18 16 17
f 20 19 21
f 10 19 7
f 23 22 21
f 22 20 21
f 24 25 26
f 25 24 27
f 19 28 21
f 28 19 10
f 16 28 13
f 28 10 13
f 18 29 16
f 28 29 21
f 29 28 16
f 29 18 23
f 29 23 21
f 19 30 7
f 30 19 20
f 31 24 26
f 24 32 27
f 32 22 27
f 22 32 20
f 32 30 20
f 30 32 24
f 33 31 9
f 8 33 9
f 31 33 24
f 14 34 8
f 34 33 8
f 34 14 7
f 30 34 7
f 34 30 24
f 33 34 24
f 12 11 2
f 2 11 3
f 11 8 3
f 8 11 6
f 1 15 2
f 15 1 17
f 15 12 2
f 12 15 13
f 1 22 17
f 4 22 1
f 26 22 4
f 22 18 17
f 22 25 27
f 18 22 23
f 25 22 26
f 31 26 4
f 31 4 3
f 9 31 3
