# Created by Open3D 
# object name: Pot061_collision_27_0
# number of vertices: 34
# number of triangles: 64
v -0.08524 0.0920299 0.0291645
v -6.851e-05 0.126842 0.0840133
v -0.0852567 0.0931302 0.0840133
v -6.851e-05 0.12591 0.0291645
v -0.0852567 0.10142 0.0291645
v -0.0852567 0.102672 0.0840133
v -0.0518769 0.123004 0.0840133
v -0.049517 0.123915 0.0840133
v -0.0507178 0.122515 0.0291645
v -0.00198641 0.133161 0.0331808
v -6.851e-05 0.13397 0.0840133
v -0.00198641 0.133974 0.0840133
v -6.851e-05 0.13303 0.0291645
v -0.0158495 0.131958 0.0291645
v -0.0138691 0.132291 0.0331808
v -0.0138691 0.133182 0.0840133
v -0.0336818 0.12931 0.0840133
v -0.0372466 0.127327 0.0291645
v -0.0336818 0.12839 0.0291645
v -0.0297209 0.129425 0.0331808
v -0.0214406 0.131076 0.0291645
v -0.0217908 0.132007 0.0840133
v -0.059757 0.119029 0.0840133
v -0.0786858 0.106622 0.0291645
v -0.0678705 0.11347 0.0291645
v -0.0674202 0.11494 0.0840133
v -0.01783 0.131835 0.0331808
v -0.0472197 0.123907 0.0331808
v -0.0376427 0.128091 0.0840133
v -0.0629215 0.116268 0.0291914
v -0.0794947 0.107151 0.0840133
v -0.0835223 0.10329 0.0430875
v -0.01783 0.13273 0.0840133
v -0.0827509 0.1047 0.0840133
f 1 2 3
f 1 4 2
f 6 5 3
f 5 1 3
f 7 8 9
f 11 10 12
f 10 11 13
f 14 10 13
f 10 14 15
f 10 16 12
f 16 10 15
f 18 17 19
f 19 20 21
f 20 22 21
f 20 17 22
f 17 20 19
f 23 7 9
f 25 24 26
f 27 14 21
f 22 27 21
f 14 27 15
f 28 18 9
f 8 28 9
f 29 17 18
f 29 28 8
f 28 29 18
f 25 30 9
f 30 23 9
f 23 30 26
f 30 25 26
f 24 31 26
f 32 24 5
f 32 5 6
f 32 31 24
f 33 27 22
f 33 16 15
f 27 33 15
f 34 32 6
f 32 34 31
f 4 11 2
f 11 4 13
f 4 24 13
f 24 25 9
f 24 4 1
f 5 24 1
f 24 14 13
f 24 19 21
f 18 24 9
f 14 24 21
f 24 18 19
f 11 34 2
f 2 34 3
f 34 11 12
f 7 34 8
f 34 6 3
f 34 29 8
f 16 34 12
f 34 23 26
f 34 33 22
f 17 34 22
f 23 34 7
f 29 34 17
f 31 34 26
f 33 34 16
