# Created by Open3D 
# object name: Pot061_collision_0_8
# number of vertices: 34
# number of triangles: 64
v 0.103748 0.0384904 0.0129155
v 0.0419557 0.118519 0.0102218
v 0.0419557 0.0384904 0.0143821
v 0.0811919 0.0574157 -0.00209907
v 0.098319 0.0384904 -0.00160817
v 0.0419557 0.0384904 -0.00214634
v 0.115459 0.0384904 0.0120558
v 0.0831249 0.0942496 0.0102218
v 0.0602088 0.110122 0.0102218
v 0.0952315 0.071533 0.00333737
v 0.0987923 0.0749424 0.00760667
v 0.0873215 0.0873425 0.00726661
v 0.103218 0.0597896 0.00330447
v 0.096872 0.0561466 -0.00044872
v 0.110223 0.0384904 0.00199559
v 0.0419557 0.0784258 -0.00213047
v 0.0419557 0.0968202 -0.00153657
v 0.0653211 0.0851201 -0.00138825
v 0.051485 0.0990101 -0.00049754
v 0.072875 0.084817 -0.00042514
v 0.101387 0.0749929 0.0102218
v 0.0614297 0.106927 0.00742567
v 0.0419557 0.111054 0.00335097
v 0.114689 0.0470865 0.00757815
v 0.119906 0.0384904 0.0102218
v 0.104558 0.0384904 -0.000562757
v 0.0419557 0.103224 -0.00045295
v 0.0861261 0.0623593 -0.00154183
v 0.110149 0.0615953 0.0102218
v 0.0594204 0.102975 0.00345584
v 0.0747317 0.0986061 0.00777341
v 0.0881799 0.0683888 -0.000472857
v 0.0713235 0.0950704 0.0034339
v 0.0838371 0.0838321 0.00308288
f 1 2 3
f 4 5 6
f 7 8 1
f 1 9 2
f 8 9 1
f 11 10 12
f 10 11 13
f 14 10 13
f 15 14 13
f 16 4 6
f 4 16 17
f 18 4 17
f 18 19 20
f 19 18 17
f 7 21 8
f 8 21 12
f 21 11 12
f 22 23 2
f 9 22 2
f 15 24 25
f 24 15 13
f 14 26 5
f 26 14 15
f 27 19 17
f 19 27 23
f 18 28 4
f 4 28 5
f 28 14 5
f 28 18 20
f 29 7 25
f 29 21 7
f 24 29 25
f 29 24 13
f 11 29 13
f 21 29 11
f 30 19 23
f 22 30 23
f 31 9 8
f 31 22 9
f 31 8 12
f 31 30 22
f 32 28 20
f 28 32 14
f 14 32 10
f 19 33 20
f 30 33 19
f 31 33 30
f 33 31 12
f 33 34 20
f 34 32 20
f 32 34 10
f 10 34 12
f 34 33 12
f 26 1 3
f 6 26 3
f 7 26 25
f 5 26 6
f 26 7 1
f 26 15 25
f 27 6 3
f 2 27 3
f 23 27 2
f 27 16 6
f 16 27 17
