# Created by Open3D 
# object name: Pot061_collision_25_0
# number of vertices: 34
# number of triangles: 64
v -6.851e-05 -0.117592 0.0143258
v 0.080749 -0.0849902 0.0143258
v -6.851e-05 -0.12685 0.0840133
v 0.080749 -0.0969618 0.0840133
v 0.0325164 -0.126999 0.0187665
v 0.0484331 -0.119241 0.0143258
v 0.0470566 -0.122641 0.0201376
v 0.0593224 -0.11682 0.0195271
v 0.0642726 -0.111533 0.0143258
v 0.0676328 -0.11507 0.0840133
v 0.0590851 -0.11845 0.0312053
v 0.0518822 -0.122995 0.0840133
v 0.0680006 -0.113661 0.0292237
v 0.080749 -0.105117 0.0312053
v 0.080749 -0.103909 0.0212972
v 0.080749 -0.106201 0.0840133
v 0.01586 -0.128082 0.0143258
v 0.0153577 -0.1307 0.0194896
v -6.851e-05 -0.129108 0.0143258
v -6.851e-05 -0.131208 0.0183026
v 0.0158452 -0.131979 0.0301762
v -6.851e-05 -0.133095 0.0312053
v -6.851e-05 -0.133965 0.0840133
v 0.0188246 -0.132471 0.0840133
v 0.025535 -0.130247 0.0311746
v 0.0340768 -0.127795 0.02458
v 0.0354869 -0.127864 0.0301992
v 0.0336872 -0.12929 0.0840133
v 0.0507035 -0.122506 0.0292237
v 0.0754329 -0.107078 0.019128
v 0.080749 -0.100136 0.0143258
v 0.00147411 -0.132462 0.0237743
v 0.0333312 -0.124419 0.0143258
v 0.0199856 -0.130772 0.0231117
f 2 1 3
f 4 2 3
f 5 6 7
f 9 8 6
f 6 8 7
f 11 10 12
f 10 11 13
f 14 13 15
f 10 14 16
f 14 10 13
f 18 17 5
f 19 17 20
f 17 18 20
f 22 21 23
f 21 24 23
f 24 21 25
f 26 5 7
f 26 27 25
f 28 27 12
f 28 24 25
f 27 28 25
f 27 29 12
f 29 11 12
f 29 26 7
f 26 29 27
f 8 29 7
f 11 29 13
f 29 8 13
f 30 8 9
f 30 31 15
f 30 9 31
f 13 30 15
f 8 30 13
f 32 22 20
f 18 32 20
f 32 21 22
f 5 33 6
f 17 33 5
f 34 32 18
f 32 34 21
f 34 18 5
f 26 34 5
f 21 34 25
f 34 26 25
f 1 22 3
f 22 23 3
f 19 22 1
f 22 19 20
f 14 31 2
f 4 14 2
f 31 14 15
f 16 14 4
f 23 28 3
f 28 4 3
f 28 16 4
f 24 28 23
f 10 28 12
f 28 10 16
f 33 19 1
f 33 1 2
f 33 9 6
f 31 33 2
f 9 33 31
f 33 17 19
