# Created by Open3D 
# object name: Pot061_collision_24_0
# number of vertices: 34
# number of triangles: 64
v 0.102042 -0.0585135 0.0143326
v 0.112249 -0.0585135 0.0840119
v 0.080749 -0.0969552 0.0840119
v 0.080749 -0.0849831 0.0143326
v 0.116139 -0.0667471 0.0840119
v 0.114903 -0.0673632 0.0310872
v 0.120332 -0.0585135 0.0840119
v 0.102631 -0.0784999 0.0143326
v 0.115054 -0.0585135 0.0143394
v 0.115054 -0.0637038 0.0189988
v 0.0908936 -0.0948782 0.0200016
v 0.080749 -0.102393 0.0176344
v 0.080749 -0.103901 0.0212978
v 0.118166 -0.0585135 0.0212978
v 0.103299 -0.083521 0.0304579
v 0.106862 -0.0790787 0.029218
v 0.103204 -0.0824591 0.0224541
v 0.114457 -0.0665837 0.0232795
v 0.106698 -0.080913 0.0840119
v 0.103956 -0.0842503 0.0840119
v 0.0832174 -0.103018 0.0271646
v 0.080749 -0.105109 0.0311998
v 0.0912269 -0.0912142 0.0143326
v 0.080749 -0.100129 0.0143326
v 0.0949081 -0.0909201 0.0198925
v 0.0954428 -0.0915153 0.0238969
v 0.0948403 -0.0929062 0.0311998
v 0.0944896 -0.0945141 0.0840119
v 0.0918546 -0.095709 0.029218
v 0.108525 -0.0746562 0.0206053
v 0.0839497 -0.103653 0.0840119
v 0.080749 -0.106197 0.0840119
v 0.0914788 -0.0953846 0.0239549
v 0.103336 -0.0796364 0.0166964
f 2 1 3
f 3 1 4
f 5 6 7
f 8 1 9
f 10 8 9
f 12 11 13
f 6 14 7
f 14 10 9
f 16 15 17
f 16 18 6
f 18 14 6
f 14 18 10
f 15 19 20
f 19 15 16
f 5 19 6
f 19 16 6
f 21 22 13
f 23 12 24
f 23 11 12
f 23 25 11
f 15 26 17
f 26 25 17
f 25 26 11
f 28 27 20
f 27 15 20
f 27 28 29
f 26 27 29
f 27 26 15
f 30 16 17
f 30 18 16
f 18 30 10
f 22 31 32
f 21 31 22
f 28 31 29
f 31 21 29
f 11 33 13
f 33 21 13
f 21 33 29
f 33 26 29
f 26 33 11
f 25 34 17
f 34 30 17
f 34 23 8
f 23 34 25
f 34 8 10
f 30 34 10
f 3 22 32
f 22 3 4
f 22 12 13
f 24 22 4
f 12 22 24
f 14 2 7
f 14 1 2
f 1 14 9
f 23 24 4
f 1 23 4
f 8 23 1
f 31 3 32
f 2 31 7
f 31 2 3
f 31 5 7
f 19 31 20
f 31 28 20
f 31 19 5
