# Created by Open3D 
# object name: Pot061_collision_29_0
# number of vertices: 34
# number of triangles: 64
v -0.086715 -0.0866195 0.0202522
v -6.851e-05 -0.126848 0.0840124
v -0.086715 -0.091885 0.0840124
v -6.851e-05 -0.122834 0.0202522
v -0.0158525 -0.132955 0.0840124
v -0.0158525 -0.131986 0.0302179
v -0.021798 -0.132007 0.0840124
v -0.00198531 -0.133161 0.0331903
v -6.851e-05 -0.133972 0.0840124
v -0.0336805 -0.128396 0.0292271
v -0.0336805 -0.129309 0.0840124
v -0.0647141 -0.115594 0.0292271
v -0.0518901 -0.123001 0.0840124
v -0.0507282 -0.122514 0.0292271
v -0.0675299 -0.115005 0.0840124
v -0.0680091 -0.113677 0.0292271
v -0.0787509 -0.106655 0.0312087
v -0.086715 -0.101433 0.0840124
v -0.086715 -0.100238 0.0312087
v -6.851e-05 -0.132869 0.0272455
v -0.0255722 -0.130252 0.0312087
v -0.0372342 -0.127335 0.0292271
v -0.0471236 -0.122658 0.0202522
v -0.0589828 -0.117165 0.0202522
v -0.0808246 -0.104736 0.0261782
v -0.086715 -0.0985643 0.0202522
v -0.0788527 -0.104961 0.0202522
v -0.0794972 -0.107153 0.0840124
v -0.0353089 -0.126676 0.0202522
v -0.0138678 -0.131877 0.0252639
v -6.851e-05 -0.13177 0.0202522
v -0.0161875 -0.130723 0.0202522
v -0.0663849 -0.114347 0.0252639
v -0.0200084 -0.130779 0.0231044
f 2 1 3
f 4 1 2
f 6 5 7
f 5 8 9
f 8 5 6
f 11 10 7
f 13 12 14
f 15 12 13
f 12 15 16
f 17 18 19
f 8 20 9
f 21 6 7
f 10 21 7
f 22 10 11
f 22 11 13
f 22 13 14
f 23 22 14
f 24 23 14
f 25 17 19
f 25 26 27
f 26 25 19
f 17 25 16
f 17 28 18
f 15 28 16
f 28 17 16
f 29 22 23
f 22 29 10
f 20 30 31
f 30 32 31
f 30 8 6
f 30 20 8
f 24 33 27
f 33 25 27
f 25 33 16
f 33 12 16
f 12 33 14
f 33 24 14
f 34 29 32
f 29 34 10
f 30 34 32
f 34 21 10
f 21 34 6
f 34 30 6
f 26 18 3
f 1 26 3
f 18 26 19
f 9 20 2
f 20 4 2
f 20 31 4
f 28 9 2
f 28 2 3
f 11 28 13
f 18 28 3
f 28 5 9
f 28 11 7
f 5 28 7
f 28 15 13
f 31 29 4
f 4 29 1
f 29 26 1
f 26 29 27
f 32 29 31
f 29 24 27
f 24 29 23
