# Created by Open3D 
# object name: Pot061_collision_23_0
# number of vertices: 34
# number of triangles: 64
v -6.851e-05 0.126844 0.0840187
v 0.0851749 0.0919985 0.0292172
v -6.851e-05 0.125919 0.0292172
v 0.0851749 0.0931737 0.0840026
v 0.0851749 0.102596 0.0840187
v 0.0851749 0.101441 0.0292226
v 0.0833476 0.103138 0.0331814
v 0.00198415 0.13316 0.0331814
v -6.851e-05 0.133037 0.0292172
v 0.0138745 0.132186 0.0292172
v -6.851e-05 0.133973 0.0840187
v 0.0786916 0.106611 0.0292172
v 0.066676 0.114508 0.0292172
v 0.0676356 0.115071 0.0840187
v 0.0630922 0.116493 0.0331814
v 0.0788605 0.106723 0.038134
v 0.037213 0.127325 0.0292172
v 0.0317017 0.128847 0.0292172
v 0.0336834 0.128531 0.0361532
v 0.0508473 0.122562 0.0331814
v 0.0497083 0.122879 0.0292172
v 0.0138745 0.13318 0.0840187
v 0.0618782 0.1181 0.0840187
v 0.053484 0.121206 0.0292172
v 0.0518819 0.122998 0.0840187
v 0.0804855 0.106399 0.0840187
v 0.0376469 0.128073 0.0840187
v 0.0336834 0.129293 0.0840187
v 0.02972 0.129412 0.0331814
v 0.0214009 0.131076 0.0292172
v 0.0217931 0.131997 0.0840187
v 0.017838 0.132724 0.0840187
v 0.0478726 0.124485 0.0840187
v 0.017838 0.13173 0.0292172
f 2 1 3
f 4 1 2
f 4 5 1
f 5 6 7
f 9 8 10
f 8 9 11
f 12 6 2
f 6 12 7
f 14 13 15
f 12 16 7
f 13 16 12
f 16 13 14
f 17 18 19
f 17 20 21
f 22 8 11
f 8 22 10
f 23 14 15
f 20 24 21
f 13 24 15
f 24 23 15
f 23 24 25
f 24 20 25
f 26 16 14
f 26 5 7
f 16 26 7
f 27 17 19
f 28 27 19
f 30 29 18
f 29 30 31
f 18 29 19
f 28 29 31
f 29 28 19
f 30 32 31
f 20 33 25
f 17 33 20
f 27 33 17
f 34 32 30
f 32 34 22
f 22 34 10
f 1 9 3
f 9 1 11
f 6 5 2
f 5 4 2
f 1 33 11
f 5 33 1
f 26 33 5
f 33 22 11
f 33 23 25
f 33 28 31
f 32 33 31
f 23 33 14
f 33 26 14
f 33 27 28
f 33 32 22
f 9 34 3
f 34 2 3
f 34 12 2
f 34 9 10
f 24 34 21
f 34 17 21
f 34 13 12
f 17 34 18
f 34 30 18
f 34 24 13
