# Created by Open3D 
# object name: Pot061_collision_5_0
# number of vertices: 34
# number of triangles: 64
v 0.137607 -0.0196797 0.136186
v 0.131909 -0.0196797 0.0840245
v 0.137761 -0.0417775 0.11675
v 0.133755 -0.0196797 0.142888
v 0.118084 -0.0651668 0.142658
v 0.121013 -0.0651668 0.142733
v 0.135752 -0.0237724 0.142894
v 0.137704 -0.0196797 0.140149
v 0.137761 -0.0495086 0.124317
v 0.137761 -0.0455585 0.115129
v 0.137761 -0.049718 0.116975
v 0.115379 -0.0450508 0.100537
v 0.124638 -0.0196797 0.0840245
v 0.108614 -0.0651668 0.0840245
v 0.12516 -0.0196797 0.132224
v 0.10926 -0.0651668 0.132319
v 0.131606 -0.0416039 0.142813
v 0.134542 -0.0353557 0.141798
v 0.130764 -0.0475937 0.142156
v 0.135989 -0.0196797 0.142888
v 0.129249 -0.0336768 0.0840245
v 0.128208 -0.0376403 0.0840245
v 0.12326 -0.0524524 0.0840245
v 0.117003 -0.0651668 0.0840245
v 0.137761 -0.0512856 0.12002
v 0.123123 -0.0651668 0.136186
v 0.125985 -0.0196797 0.135108
v 0.137169 -0.0237724 0.140149
v 0.126995 -0.0560195 0.142346
v 0.123092 -0.0639466 0.142387
v 0.123129 -0.0651668 0.140149
v 0.110126 -0.0651668 0.1349
v 0.134893 -0.0327149 0.142335
v 0.125598 -0.0574469 0.142715
f 2 1 3
f 4 5 6
f 4 6 7
f 1 8 3
f 8 9 3
f 10 2 3
f 10 11 2
f 12 13 14
f 13 12 15
f 16 12 14
f 12 16 15
f 6 17 7
f 18 19 9
f 20 4 7
f 8 20 7
f 11 21 2
f 22 21 11
f 23 11 24
f 23 22 11
f 25 26 24
f 11 25 24
f 16 27 15
f 8 28 9
f 19 29 9
f 29 30 9
f 31 25 9
f 30 31 9
f 25 31 26
f 31 30 6
f 32 27 16
f 27 32 4
f 4 32 5
f 33 18 9
f 28 33 9
f 17 33 7
f 33 8 7
f 33 28 8
f 33 17 19
f 18 33 19
f 17 34 19
f 34 29 19
f 34 17 6
f 30 34 6
f 29 34 30
f 13 23 14
f 23 24 14
f 23 13 2
f 21 23 2
f 23 21 22
f 25 10 3
f 9 25 3
f 10 25 11
f 13 27 2
f 27 1 2
f 27 13 15
f 20 27 4
f 27 8 1
f 27 20 8
f 24 32 14
f 32 16 14
f 5 32 6
f 26 32 24
f 32 31 6
f 31 32 26
