# Created by Open3D 
# object name: Pot061_collision_2_0
# number of vertices: 34
# number of triangles: 64
v -0.147384 0.0361319 0.129845
v -0.16836 0.0340737 0.128264
v -0.16836 0.0360461 0.133992
v -0.16836 0.0351942 0.117679
v -0.149562 0.0347352 0.122323
v -0.146313 0.0556488 0.11785
v -0.16836 0.0557809 0.117905
v -0.14656 0.0515918 0.114378
v -0.139006 0.0492364 0.116906
v -0.147721 0.0549752 0.129801
v -0.16836 0.053759 0.134133
v -0.14612 0.0523336 0.130465
v -0.145933 0.0353747 0.127205
v -0.146278 0.0354518 0.117822
v -0.139006 0.0397025 0.120023
v -0.16836 0.0515038 0.11622
v -0.16836 0.0416022 0.115704
v -0.152533 0.0495226 0.132161
v -0.16836 0.0455624 0.134938
v -0.160074 0.0403321 0.133433
v -0.16836 0.0559702 0.131714
v -0.146014 0.0557127 0.127161
v -0.146112 0.0387713 0.130471
v -0.139006 0.0452542 0.12672
v -0.139006 0.0409132 0.124345
v -0.139006 0.0455602 0.115403
v -0.146565 0.0395528 0.114384
v -0.150552 0.056329 0.120342
v -0.16836 0.0565349 0.126275
v -0.153028 0.0563233 0.126285
v -0.139006 0.0510503 0.120263
v -0.139006 0.0414812 0.11699
v -0.16836 0.0376267 0.116328
v -0.139006 0.0496679 0.124543
f 2 1 3
f 4 5 2
f 7 6 8
f 6 9 8
f 10 11 12
f 5 13 2
f 13 1 2
f 4 14 5
f 13 14 15
f 14 13 5
f 16 8 17
f 16 7 8
f 19 18 11
f 11 18 12
f 20 19 3
f 20 18 19
f 10 21 11
f 22 21 10
f 22 10 12
f 23 24 12
f 18 23 12
f 20 23 18
f 1 23 3
f 23 20 3
f 13 25 1
f 25 23 1
f 23 25 24
f 25 13 15
f 9 26 8
f 27 14 4
f 8 27 17
f 26 27 8
f 28 22 6
f 28 7 29
f 28 6 7
f 21 30 29
f 22 30 21
f 30 28 29
f 28 30 22
f 6 31 9
f 22 31 6
f 14 32 15
f 27 32 14
f 32 27 26
f 27 33 17
f 33 27 4
f 34 31 22
f 24 34 12
f 34 22 12
f 33 2 3
f 33 4 2
f 7 33 29
f 33 16 17
f 33 21 29
f 19 33 3
f 33 19 11
f 16 33 7
f 21 33 11
f 31 34 9
f 34 25 15
f 25 34 24
f 34 26 9
f 32 34 15
f 34 32 26
