# Created by Open3D 
# object name: Pot061_collision_0_2
# number of vertices: 34
# number of triangles: 64
v -0.102998 0.0372655 0.0171041
v -0.0446388 0.117629 0.0102328
v -0.0446388 0.0823799 0.0137144
v -0.0781001 0.0372655 0.0172029
v -0.0446388 0.0372655 0.0164919
v -0.110572 0.0372655 0.0164932
v -0.0785593 0.0983282 0.0102328
v -0.089089 0.0890724 0.0102328
v -0.116539 0.0483493 0.0102328
v -0.114701 0.047137 0.0075606
v -0.120249 0.0372655 0.0109695
v -0.109843 0.0623403 0.0102328
v -0.101164 0.0753339 0.0102328
v -0.0627902 0.106612 0.00771855
v -0.0446388 0.11054 0.0037026
v -0.0593821 0.10295 0.003469
v -0.11288 0.0372655 0.0033697
v -0.118448 0.0372655 0.0142627
v -0.0713615 0.0950704 0.0034339
v -0.103205 0.0598149 0.00329349
v -0.0446388 0.102269 -0.00047579
v -0.0446388 0.0954759 -0.00160542
v -0.0618841 0.0876266 -0.00137125
v -0.0930567 0.0534507 -0.00145845
v -0.0930567 0.0372655 -0.00207533
v -0.105149 0.0372655 -0.00050985
v -0.100725 0.0490311 -0.000418555
v -0.107529 0.0604968 0.00692217
v -0.0675607 0.0784449 -0.00183827
v -0.0446388 0.0372655 -0.00212143
v -0.0952441 0.0715583 0.0033264
v -0.0881861 0.0684141 -0.00047889
v -0.0750749 0.0830239 -0.00046463
v -0.083875 0.0838573 0.0030785
f 2 1 3
f 4 5 3
f 1 4 3
f 6 7 8
f 7 6 2
f 6 1 2
f 9 10 11
f 9 12 10
f 13 6 8
f 14 7 2
f 15 14 2
f 14 15 16
f 10 17 11
f 18 9 11
f 9 18 12
f 13 18 6
f 18 13 12
f 14 19 7
f 19 14 16
f 20 17 10
f 15 21 16
f 21 22 23
f 24 25 26
f 17 27 26
f 20 27 17
f 27 24 26
f 12 28 10
f 28 20 10
f 13 28 12
f 24 29 25
f 22 29 23
f 29 22 30
f 25 29 30
f 31 13 8
f 31 28 13
f 28 31 20
f 27 32 24
f 32 27 20
f 31 32 20
f 32 29 24
f 29 33 23
f 32 33 29
f 33 21 23
f 33 19 16
f 21 33 16
f 34 32 31
f 34 33 32
f 33 34 19
f 34 31 8
f 7 34 8
f 19 34 7
f 5 18 30
f 17 18 11
f 4 18 5
f 18 4 1
f 6 18 1
f 18 25 30
f 25 18 26
f 18 17 26
f 5 21 3
f 21 2 3
f 21 5 30
f 22 21 30
f 21 15 2
