# Created by Open3D 
# object name: Pot061_collision_1_0
# number of vertices: 34
# number of triangles: 64
v 0.0974513 0.0512866 0.0508507
v 0.112492 -2.15e-05 0.0102272
v 0.0935211 0.0512866 0.0102272
v 0.126141 -2.15e-05 0.0840129
v 0.10359 0.0512866 0.0840129
v 0.119061 0.0512866 0.0150576
v 0.121502 0.0512866 0.0212198
v 0.122714 0.0472386 0.0197393
v 0.122719 0.0512866 0.0291951
v 0.127332 0.0373748 0.0292297
v 0.123715 0.0512866 0.0840129
v 0.132592 0.0138803 0.0840129
v 0.13245 -2.15e-05 0.0292297
v 0.133279 -2.15e-05 0.0840129
v 0.131721 0.0138803 0.0292297
v 0.131881 0.0198217 0.0840129
v 0.131112 0.0192843 0.030221
v 0.132158 0.00198743 0.0252573
v 0.130887 -2.15e-05 0.0189303
v 0.126965 0.0362397 0.0224838
v 0.12681 0.033824 0.0193312
v 0.129788 0.0158591 0.0187534
v 0.130047 0.0198418 0.0213319
v 0.12228 0.0324177 0.0107652
v 0.115288 0.0512866 0.0102272
v 0.128203 0.037656 0.0840129
v 0.128598 0.0326889 0.0312123
v 0.129244 0.0336783 0.0840129
v 0.130947 0.0171385 0.0245838
v 0.122875 0.0408502 0.0153516
v 0.124536 0.0178379 0.0102272
v 0.126791 0.0178379 0.0132679
v 0.125793 -2.15e-05 0.0102272
v 0.128451 0.0317046 0.0252573
f 2 1 3
f 4 1 2
f 4 5 1
f 6 7 8
f 10 9 11
f 7 9 8
f 13 12 14
f 15 12 13
f 16 12 17
f 12 15 17
f 18 13 19
f 18 15 13
f 9 20 8
f 20 9 10
f 20 21 8
f 22 21 23
f 22 18 19
f 6 24 25
f 26 10 11
f 27 28 16
f 27 16 17
f 27 26 28
f 26 27 10
f 18 29 15
f 15 29 17
f 29 22 23
f 22 29 18
f 30 24 6
f 24 30 21
f 30 6 8
f 21 30 8
f 24 31 25
f 22 32 21
f 32 24 21
f 32 31 24
f 31 32 33
f 33 32 19
f 32 22 19
f 34 20 10
f 27 34 10
f 34 29 23
f 34 27 17
f 29 34 17
f 21 34 23
f 20 34 21
f 13 4 2
f 4 13 14
f 33 13 2
f 13 33 19
f 9 25 3
f 1 9 3
f 5 9 1
f 9 5 11
f 9 6 25
f 6 9 7
f 26 4 14
f 5 26 11
f 26 5 4
f 12 26 14
f 28 26 16
f 26 12 16
f 25 31 3
f 31 33 2
f 31 2 3
