# Created by Open3D 
# object name: Pot061_collision_28_0
# number of vertices: 34
# number of triangles: 64
v -0.0975045 0.0513463 0.0509113
v -0.112545 2.15e-05 0.0102397
v -0.0935709 0.0513463 0.0102397
v -0.103629 0.0513463 0.0840187
v -0.126193 2.15e-05 0.0840187
v -0.132456 0.015852 0.0840187
v -0.131463 0.0178365 0.0331837
v -0.129317 0.033682 0.0840187
v -0.11907 0.0513463 0.0150407
v -0.122377 0.0513463 0.0252829
v -0.122726 0.0472869 0.0196715
v -0.127477 0.0376409 0.0371485
v -0.12372 0.0513463 0.0840187
v -0.131765 0.0138675 0.0292261
v -0.132496 2.15e-05 0.0292261
v -0.133454 2.15e-05 0.0840187
v -0.130411 0.0198335 0.02325
v -0.122746 0.0513413 0.0292169
v -0.128392 0.033682 0.0292261
v -0.129779 0.00793423 0.017115
v -0.125835 2.15e-05 0.0102397
v -0.130911 2.15e-05 0.0188699
v -0.126575 0.0163556 0.0126338
v -0.126826 0.0338981 0.0192779
v -0.132204 0.00199089 0.0252613
v -0.130138 0.0253523 0.0331837
v -0.130586 0.0138776 0.020047
v -0.127585 0.024772 0.0167286
v -0.124825 0.0157515 0.0102397
v -0.121556 0.0331445 0.0102397
v -0.123208 0.0341091 0.012641
v -0.127529 0.0349883 0.0238349
v -0.118574 0.0467443 0.011778
v -0.115331 0.0513463 0.0102397
f 1 2 3
f 4 1 3
f 1 5 2
f 5 1 4
f 7 6 8
f 10 9 11
f 13 12 8
f 14 15 16
f 6 14 16
f 14 6 7
f 17 14 7
f 10 18 13
f 18 12 13
f 12 19 8
f 19 17 7
f 18 19 12
f 20 21 22
f 20 23 21
f 9 24 11
f 15 25 22
f 14 25 15
f 26 7 8
f 19 26 8
f 26 19 7
f 27 20 22
f 25 27 22
f 27 14 17
f 27 25 14
f 27 24 28
f 24 27 17
f 23 27 28
f 20 27 23
f 23 29 21
f 30 29 23
f 31 23 28
f 31 30 23
f 24 31 28
f 31 24 9
f 19 32 17
f 32 24 17
f 32 18 10
f 32 19 18
f 32 10 11
f 24 32 11
f 30 33 34
f 31 33 30
f 33 9 34
f 33 31 9
f 5 15 2
f 15 5 16
f 15 21 2
f 21 15 22
f 5 6 16
f 6 5 4
f 13 6 4
f 6 13 8
f 34 9 3
f 9 4 3
f 9 13 4
f 9 10 13
f 29 34 3
f 21 29 2
f 2 29 3
f 29 30 34
