# Created by Open3D 
# object name: Pot061_collision_12_0
# number of vertices: 34
# number of triangles: 64
v 3.231e-05 -0.129145 0.135371
v 3.231e-05 -0.127388 0.132222
v -0.0613137 -0.110849 0.132222
v -0.0613137 -0.112742 0.135585
v 3.231e-05 -0.134438 0.142425
v -0.0613137 -0.120827 0.142719
v 3.231e-05 -0.127212 0.12826
v -0.0613137 -0.110239 0.0840187
v -0.0613137 -0.123758 0.142736
v -0.0217895 -0.135889 0.142938
v -0.0613137 -0.12487 0.136185
v -0.048151 -0.13099 0.13735
v -0.0613137 -0.125067 0.140147
v -0.051886 -0.123008 0.0840187
v -0.0336732 -0.12931 0.0840187
v -0.0613137 -0.118263 0.0840187
v 3.231e-05 -0.136685 0.14265
v 3.231e-05 -0.138858 0.14235
v -0.00198533 -0.139371 0.136185
v 3.231e-05 -0.139359 0.136185
v 3.231e-05 -0.133973 0.0840187
v -0.0361832 -0.134862 0.137327
v -0.0198109 -0.13237 0.0840187
v 3.231e-05 -0.126904 0.100519
v 3.231e-05 -0.126849 0.0840187
v -0.013869 -0.133183 0.0840187
v -0.0160128 -0.138684 0.138001
v 3.231e-05 -0.139359 0.140147
v -0.0237711 -0.137289 0.136185
v -0.0116772 -0.138627 0.142067
v -0.0340935 -0.134736 0.142105
v -0.0257527 -0.136927 0.140147
v -0.0476225 -0.130773 0.142165
v -0.0415936 -0.13162 0.142817
f 1 2 3
f 1 4 5
f 4 1 3
f 4 6 5
f 7 8 3
f 2 7 3
f 6 9 10
f 11 12 13
f 12 14 15
f 14 11 16
f 11 14 12
f 18 17 10
f 17 6 10
f 6 17 5
f 20 19 21
f 22 12 15
f 23 22 15
f 24 25 8
f 7 24 8
f 23 26 27
f 19 26 21
f 26 19 27
f 28 19 20
f 19 28 27
f 29 23 27
f 29 22 23
f 30 28 18
f 28 30 27
f 30 18 10
f 31 30 10
f 32 31 22
f 32 29 27
f 29 32 22
f 30 32 27
f 32 30 31
f 22 33 12
f 31 33 22
f 12 33 13
f 33 9 13
f 9 34 10
f 33 34 9
f 34 31 10
f 34 33 31
f 11 8 16
f 8 11 3
f 9 11 13
f 11 4 3
f 11 6 4
f 11 9 6
f 8 26 16
f 26 14 16
f 26 25 21
f 25 26 8
f 14 26 15
f 26 23 15
f 1 28 2
f 28 20 21
f 28 1 5
f 25 28 21
f 28 7 2
f 24 28 25
f 17 28 5
f 28 17 18
f 28 24 7
