# Created by Open3D 
# object name: Pot061_collision_6_0
# number of vertices: 34
# number of triangles: 64
v 0.10861 -0.065177 0.0840244
v 0.0640536 -0.108635 0.0840244
v 0.0640536 -0.109248 0.132222
v 0.0693398 -0.120622 0.136185
v 0.0640536 -0.11698 0.0840244
v 0.0640536 -0.123681 0.140148
v 0.0640536 -0.110119 0.134902
v 0.0640536 -0.118675 0.142598
v 0.118078 -0.065177 0.142662
v 0.109258 -0.065177 0.132319
v 0.0793627 -0.114975 0.137928
v 0.0752795 -0.11684 0.141799
v 0.106164 -0.0901936 0.140148
v 0.10918 -0.0864823 0.136185
v 0.0985411 -0.0985554 0.136185
v 0.11012 -0.065177 0.134896
v 0.115383 -0.0681208 0.0840244
v 0.116996 -0.065177 0.0840244
v 0.123115 -0.065177 0.136185
v 0.0944087 -0.102387 0.140148
v 0.0977993 -0.0977979 0.142574
v 0.0640536 -0.12186 0.142737
v 0.121062 -0.065177 0.142731
v 0.105327 -0.082585 0.0840244
v 0.0944868 -0.0945119 0.0840244
v 0.0676394 -0.115073 0.0840244
v 0.0817253 -0.105402 0.0840244
v 0.0901144 -0.10611 0.136185
v 0.0833997 -0.111081 0.142265
v 0.122939 -0.065177 0.140746
v 0.11684 -0.0752713 0.141782
v 0.114966 -0.0793462 0.137859
v 0.120094 -0.070678 0.136185
v 0.111074 -0.0833954 0.142253
f 1 2 3
f 5 4 6
f 7 8 9
f 10 1 3
f 7 10 3
f 4 11 6
f 11 12 6
f 14 13 15
f 16 7 9
f 16 10 7
f 17 18 19
f 13 20 15
f 20 13 21
f 12 22 6
f 23 22 21
f 22 23 9
f 8 22 9
f 24 15 25
f 24 14 15
f 26 27 11
f 26 4 5
f 26 11 4
f 28 27 25
f 15 28 25
f 27 28 11
f 20 28 15
f 28 20 11
f 29 12 11
f 20 29 11
f 29 20 21
f 22 29 21
f 29 22 12
f 31 30 23
f 32 30 31
f 32 13 14
f 32 24 17
f 24 32 14
f 33 17 19
f 33 32 17
f 30 33 19
f 32 33 30
f 32 34 13
f 34 32 31
f 13 34 21
f 34 23 21
f 34 31 23
f 2 22 3
f 22 5 6
f 5 22 2
f 22 7 3
f 7 22 8
f 26 5 2
f 27 26 25
f 1 26 2
f 18 26 1
f 17 26 18
f 26 24 25
f 24 26 17
f 30 16 9
f 30 18 1
f 10 30 1
f 18 30 19
f 23 30 9
f 16 30 10
