# Created by Open3D 
# object name: Pot061_collision_28_1
# number of vertices: 34
# number of triangles: 64
v -0.0935709 0.0513463 0.0102397
v -0.0975045 0.0513463 0.0509113
v -0.0852614 0.0738235 0.0102397
v -0.103629 0.0513463 0.0840187
v -0.12372 0.0513463 0.0840187
v -0.122745 0.0513463 0.0292261
v -0.115331 0.0513463 0.0102397
v -0.0852614 0.0931255 0.0840187
v -0.106912 0.0791439 0.0312049
v -0.115394 0.0681163 0.0840187
v -0.107556 0.0796312 0.0840187
v -0.0918853 0.095728 0.0292261
v -0.0946122 0.0946126 0.0840187
v -0.0852614 0.102671 0.0840187
v -0.118409 0.0625095 0.0840187
v -0.103925 0.0842331 0.0840187
v -0.0852614 0.101239 0.0273917
v -0.0958011 0.0918997 0.0292261
v -0.114904 0.0673828 0.0308366
v -0.121948 0.0513463 0.0232411
v -0.115064 0.0637253 0.0189638
v -0.10326 0.0834645 0.0276914
v -0.106494 0.0785309 0.0232789
v -0.0949236 0.0909351 0.0198376
v -0.103015 0.0792293 0.0153528
v -0.101014 0.0757276 0.0102397
v -0.108964 0.0638509 0.0102397
v -0.112542 0.068699 0.0205706
v -0.113002 0.0635595 0.015212
v -0.114672 0.0669507 0.0252829
v -0.0937364 0.0932285 0.0239117
v -0.0852614 0.0991945 0.0192815
v -0.0915267 0.0915078 0.0149051
v -0.0852614 0.0926131 0.0102397
f 2 1 3
f 2 4 5
f 6 2 5
f 7 1 2
f 8 4 2
f 8 2 3
f 9 10 11
f 12 13 14
f 15 6 5
f 16 9 11
f 17 12 14
f 12 18 13
f 18 16 13
f 19 15 10
f 15 19 6
f 9 19 10
f 20 21 7
f 6 20 2
f 20 7 2
f 16 22 9
f 18 22 16
f 9 22 23
f 24 25 23
f 22 24 23
f 25 26 27
f 25 28 23
f 28 25 21
f 29 25 27
f 25 29 21
f 29 27 7
f 21 29 7
f 20 30 21
f 30 28 21
f 19 30 6
f 30 20 6
f 28 30 23
f 30 9 23
f 30 19 9
f 31 18 12
f 17 31 12
f 31 22 18
f 31 24 22
f 31 17 32
f 24 31 32
f 34 33 32
f 33 24 32
f 24 33 25
f 26 33 34
f 33 26 25
f 13 16 14
f 4 16 5
f 16 8 14
f 8 16 4
f 16 15 5
f 10 16 11
f 15 16 10
f 8 17 14
f 17 8 3
f 34 17 3
f 17 34 32
f 7 26 1
f 1 26 3
f 27 26 7
f 26 34 3
