# Created by Open3D 
# object name: Pot061_collision_14_1
# number of vertices: 34
# number of triangles: 64
v -0.102662 -0.0507027 0.0554464
v -0.122308 2.15e-05 0.0202522
v -0.101468 -0.0507027 0.0202522
v -0.104404 -0.0507027 0.0840124
v -0.126197 2.15e-05 0.0840124
v -0.121483 -0.0507027 0.0202522
v -0.132498 2.15e-05 0.0292271
v -0.132498 -0.00198443 0.0292271
v -0.132205 -0.00198443 0.0252639
v -0.131258 2.15e-05 0.0202522
v -0.130627 -0.013871 0.0202522
v -0.122805 -0.0474356 0.0202522
v -0.122621 -0.0507027 0.0251761
v -0.124422 -0.0495309 0.0840124
v -0.122971 -0.0507027 0.0292271
v -0.123971 -0.0507027 0.0840124
v -0.127355 -0.0374357 0.0292271
v -0.12833 -0.0376443 0.0840124
v -0.131771 -0.013871 0.0292271
v -0.133454 -0.00198443 0.0840124
v -0.129243 -0.0235866 0.0207765
v -0.126705 -0.0353851 0.0202522
v -0.12698 -0.0362838 0.0224179
v -0.128499 -0.031701 0.0252639
v -0.131188 -0.0145761 0.023805
v -0.132686 -0.013871 0.0840124
v -0.131473 -0.0178332 0.0331903
v -0.132283 -0.0178332 0.0840124
v -0.130938 -0.0208819 0.0312087
v -0.128446 -0.0336821 0.0312087
v -0.129279 -0.0297199 0.0312087
v -0.129819 -0.031701 0.0840124
v -0.130748 -0.0198143 0.0251797
v -0.133454 2.15e-05 0.0840124
f 2 1 3
f 4 1 5
f 5 1 2
f 1 6 3
f 8 7 9
f 7 10 9
f 10 11 9
f 12 6 13
f 14 15 16
f 15 17 13
f 17 14 18
f 14 17 15
f 8 19 20
f 19 8 9
f 21 11 22
f 12 23 22
f 23 12 13
f 17 23 13
f 23 17 24
f 21 23 24
f 23 21 22
f 11 25 9
f 25 19 9
f 19 26 20
f 26 19 27
f 28 26 27
f 29 28 27
f 17 30 24
f 30 31 24
f 30 17 18
f 32 30 18
f 30 32 31
f 29 32 28
f 32 29 31
f 33 21 24
f 21 33 11
f 33 25 11
f 31 33 24
f 29 33 31
f 25 33 19
f 19 33 27
f 33 29 27
f 34 7 20
f 7 8 20
f 10 34 5
f 10 5 2
f 10 7 34
f 15 1 4
f 6 15 13
f 15 6 1
f 16 15 4
f 6 12 3
f 12 2 3
f 12 10 2
f 12 11 10
f 11 12 22
f 32 4 5
f 32 34 20
f 34 32 5
f 32 16 4
f 32 14 16
f 14 32 18
f 26 32 20
f 32 26 28
