# Created by Open3D 
# object name: Pot061_collision_15_0
# number of vertices: 34
# number of triangles: 64
v 0.180268 0.0299776 0.115157
v 0.146287 0.0354494 0.1178
v 0.173658 0.0299776 0.134763
v 0.146688 0.0357719 0.128485
v 0.186209 0.0299776 0.137966
v 0.19498 0.0299776 0.13867
v 0.189944 0.0516751 0.138255
v 0.182482 0.055727 0.117939
v 0.186796 0.0555814 0.134459
v 0.150556 0.0563148 0.120342
v 0.194266 0.0478599 0.138272
v 0.173269 0.0555944 0.134355
v 0.146098 0.0523409 0.130482
v 0.19439 0.0518286 0.134777
v 0.175097 0.0386639 0.114305
v 0.194582 0.0299776 0.117548
v 0.194473 0.0518598 0.118145
v 0.146587 0.0395975 0.114395
v 0.146587 0.0515321 0.114392
v 0.139411 0.0474022 0.116187
v 0.147472 0.0549832 0.129789
v 0.139411 0.0504203 0.122413
v 0.139411 0.043377 0.125687
v 0.152537 0.0495218 0.132126
v 0.146316 0.0556464 0.117865
v 0.178781 0.0515035 0.115518
v 0.190345 0.055519 0.121994
v 0.19749 0.0420614 0.132409
v 0.198199 0.0478235 0.121927
v 0.19965 0.0299776 0.124305
v 0.197958 0.0348607 0.11848
v 0.146139 0.0387887 0.13047
v 0.139411 0.0406508 0.118436
v 0.195287 0.0527388 0.124305
f 2 1 3
f 4 2 3
f 5 6 7
f 9 8 10
f 6 11 7
f 12 13 7
f 9 12 7
f 12 9 10
f 14 9 7
f 11 14 7
f 15 16 1
f 16 15 17
f 18 1 2
f 19 18 20
f 15 18 19
f 18 15 1
f 21 22 13
f 21 12 10
f 12 21 13
f 22 23 13
f 13 24 7
f 24 5 7
f 8 25 10
f 25 8 19
f 25 21 10
f 21 25 22
f 25 19 20
f 22 25 20
f 26 8 17
f 8 26 19
f 15 26 17
f 26 15 19
f 8 27 17
f 27 8 9
f 14 27 9
f 29 28 30
f 28 6 30
f 28 11 6
f 14 28 29
f 28 14 11
f 16 31 30
f 31 29 30
f 29 31 17
f 31 16 17
f 23 32 13
f 32 23 4
f 32 24 13
f 32 4 3
f 5 32 3
f 24 32 5
f 4 33 2
f 23 33 4
f 18 33 20
f 33 18 2
f 27 34 17
f 34 27 14
f 34 29 17
f 34 14 29
f 16 5 3
f 6 16 30
f 1 16 3
f 5 16 6
f 33 23 22
f 33 22 20
